<svg width="971" height="90" viewBox="0 0 971 90" fill="none" xmlns="http://www.w3.org/2000/svg">
<g filter="url(#filter0_d_50483_12949)">
<path d="M886.63 33.1216V12.5978H890.088V15.228C891.228 13.2354 893.625 12 896.337 12C900.778 12 904.001 14.3911 904.001 20.5682V33.1216H900.464V21.0863C900.464 17.2605 898.617 15.3874 895.551 15.3874C892.093 15.3874 890.167 17.7786 890.167 21.2058V33.1216H886.63Z" fill="#F0EFFF"/>
<path d="M886.63 33.1216V12.5978H890.088V15.228C891.228 13.2354 893.625 12 896.337 12C900.778 12 904.001 14.3911 904.001 20.5682V33.1216H900.464V21.0863C900.464 17.2605 898.617 15.3874 895.551 15.3874C892.093 15.3874 890.167 17.7786 890.167 21.2058V33.1216H886.63Z" fill="url(#paint0_linear_50483_12949)"/>
<path d="M874.215 33.7194C868.438 33.7194 863.997 29.9335 863.997 22.7601C863.997 16.0649 868.281 12 873.901 12C880.307 12 883.805 16.5431 883.805 21.6841C883.805 22.521 883.765 23.3977 883.648 24.0353H867.691C867.927 28.0205 870.521 30.4914 874.255 30.4914C877.202 30.4914 878.735 29.5349 879.757 27.1438H883.451C882.351 31.2884 878.931 33.7194 874.215 33.7194ZM867.691 21.0464H880.071C879.914 17.2206 877.359 15.1483 873.901 15.1483C870.246 15.1483 868.006 17.38 867.691 21.0464Z" fill="#F0EFFF"/>
<path d="M874.215 33.7194C868.438 33.7194 863.997 29.9335 863.997 22.7601C863.997 16.0649 868.281 12 873.901 12C880.307 12 883.805 16.5431 883.805 21.6841C883.805 22.521 883.765 23.3977 883.648 24.0353H867.691C867.927 28.0205 870.521 30.4914 874.255 30.4914C877.202 30.4914 878.735 29.5349 879.757 27.1438H883.451C882.351 31.2884 878.931 33.7194 874.215 33.7194ZM867.691 21.0464H880.071C879.914 17.2206 877.359 15.1483 873.901 15.1483C870.246 15.1483 868.006 17.38 867.691 21.0464Z" fill="url(#paint1_linear_50483_12949)"/>
<path d="M846.739 12.5978V33.1218H850.277V26.4665L853.657 23.1986L860.691 33.1218H864.818L856.054 20.7278L864.346 12.5979H859.788L850.277 22.003V12.5978H846.739Z" fill="#F0EFFF"/>
<path d="M846.739 12.5978V33.1218H850.277V26.4665L853.657 23.1986L860.691 33.1218H864.818L856.054 20.7278L864.346 12.5979H859.788L850.277 22.003V12.5978H846.739Z" fill="url(#paint2_linear_50483_12949)"/>
<path d="M832.254 33.7194C828.285 33.7194 825.219 31.4877 825.219 27.6619C825.219 23.7165 827.931 22.0029 831.115 21.4051L836.145 20.4486C837.757 20.1298 838.739 19.6118 838.739 18.0177C838.739 16.304 837.285 15.1483 834.416 15.1483C831.822 15.1483 829.7 16.2243 829.503 18.735H825.77C825.848 14.5107 829.621 12 834.455 12C840.036 12 842.276 14.8694 842.276 18.1372V28.8176C842.276 29.7342 842.708 30.2124 843.495 30.2124C844.163 30.2124 844.556 30.053 844.909 29.8139V32.7231C844.359 33.2013 843.416 33.5201 842.276 33.5201C840.586 33.5201 839.211 32.6035 838.857 30.85C837.953 32.1253 836.067 33.7194 832.254 33.7194ZM828.874 27.5423C828.874 29.5349 830.643 30.5711 832.922 30.5711C836.263 30.5711 838.739 28.6582 838.739 25.7888V22.4811C838.346 22.9593 837.049 23.318 835.713 23.5571L832.372 24.1947C829.975 24.673 828.874 25.7091 828.874 27.5423Z" fill="#F0EFFF"/>
<path d="M832.254 33.7194C828.285 33.7194 825.219 31.4877 825.219 27.6619C825.219 23.7165 827.931 22.0029 831.115 21.4051L836.145 20.4486C837.757 20.1298 838.739 19.6118 838.739 18.0177C838.739 16.304 837.285 15.1483 834.416 15.1483C831.822 15.1483 829.7 16.2243 829.503 18.735H825.77C825.848 14.5107 829.621 12 834.455 12C840.036 12 842.276 14.8694 842.276 18.1372V28.8176C842.276 29.7342 842.708 30.2124 843.495 30.2124C844.163 30.2124 844.556 30.053 844.909 29.8139V32.7231C844.359 33.2013 843.416 33.5201 842.276 33.5201C840.586 33.5201 839.211 32.6035 838.857 30.85C837.953 32.1253 836.067 33.7194 832.254 33.7194ZM828.874 27.5423C828.874 29.5349 830.643 30.5711 832.922 30.5711C836.263 30.5711 838.739 28.6582 838.739 25.7888V22.4811C838.346 22.9593 837.049 23.318 835.713 23.5571L832.372 24.1947C829.975 24.673 828.874 25.7091 828.874 27.5423Z" fill="url(#paint3_linear_50483_12949)"/>
<path d="M814.362 33.1214V12.5976H817.821V16.0249C818.803 13.5939 820.572 12.1592 823.362 12.1592C823.952 12.1592 824.541 12.2788 824.855 12.3585V16.0249C824.541 15.9452 823.873 15.8256 823.205 15.8256C819.746 15.8256 817.899 18.5754 817.899 22.9591V33.1214H814.362Z" fill="#F0EFFF"/>
<path d="M814.362 33.1214V12.5976H817.821V16.0249C818.803 13.5939 820.572 12.1592 823.362 12.1592C823.952 12.1592 824.541 12.2788 824.855 12.3585V16.0249C824.541 15.9452 823.873 15.8256 823.205 15.8256C819.746 15.8256 817.899 18.5754 817.899 22.9591V33.1214H814.362Z" fill="url(#paint4_linear_50483_12949)"/>
<path d="M794.729 12.5978V33.1215H798.266V26.4662L801.646 23.1983L808.681 33.1215H812.807L804.043 20.7275L812.336 12.5976H807.777L798.266 22.0027V12.5978H794.729Z" fill="#F0EFFF"/>
<path d="M794.729 12.5978V33.1215H798.266V26.4662L801.646 23.1983L808.681 33.1215H812.807L804.043 20.7275L812.336 12.5976H807.777L798.266 22.0027V12.5978H794.729Z" fill="url(#paint5_linear_50483_12949)"/>
<path d="M776.645 12C769.109 12 763 18.1889 763 25.8232V31.747C763 32.8366 763.872 33.7194 764.948 33.7194C766.024 33.7194 766.902 32.8366 766.902 31.747V25.8232C766.902 24.7303 767.771 23.8475 768.85 23.8475C769.926 23.8475 770.798 24.7303 770.798 25.8232V31.747C770.798 32.8366 771.67 33.7194 772.746 33.7194C773.825 33.7194 774.697 32.8366 774.697 31.747V25.8232C774.697 24.7303 775.569 23.8475 776.645 23.8475C777.724 23.8475 778.599 24.7303 778.599 25.8232V31.747C778.599 32.8366 779.471 33.7194 780.547 33.7194C781.623 33.7194 782.495 32.8366 782.495 31.747V25.8232C782.495 24.7303 783.367 23.8475 784.449 23.8475C785.526 23.8475 786.397 24.7303 786.397 25.8232V31.747C786.397 32.8366 787.269 33.7194 788.349 33.7194C789.425 33.7194 790.296 32.8366 790.296 31.747V25.8232C790.296 18.1889 784.184 12 776.645 12Z" fill="#F0EFFF"/>
<path d="M776.645 12C769.109 12 763 18.1889 763 25.8232V31.747C763 32.8366 763.872 33.7194 764.948 33.7194C766.024 33.7194 766.902 32.8366 766.902 31.747V25.8232C766.902 24.7303 767.771 23.8475 768.85 23.8475C769.926 23.8475 770.798 24.7303 770.798 25.8232V31.747C770.798 32.8366 771.67 33.7194 772.746 33.7194C773.825 33.7194 774.697 32.8366 774.697 31.747V25.8232C774.697 24.7303 775.569 23.8475 776.645 23.8475C777.724 23.8475 778.599 24.7303 778.599 25.8232V31.747C778.599 32.8366 779.471 33.7194 780.547 33.7194C781.623 33.7194 782.495 32.8366 782.495 31.747V25.8232C782.495 24.7303 783.367 23.8475 784.449 23.8475C785.526 23.8475 786.397 24.7303 786.397 25.8232V31.747C786.397 32.8366 787.269 33.7194 788.349 33.7194C789.425 33.7194 790.296 32.8366 790.296 31.747V25.8232C790.296 18.1889 784.184 12 776.645 12Z" fill="url(#paint6_linear_50483_12949)"/>
<path d="M922.148 20.4095C922.148 22.015 920.999 22.6171 919.722 22.6171H917.295V18.2202H919.722C920.999 18.2202 922.148 18.804 922.148 20.4095Z" fill="#F0EFFF"/>
<path d="M922.148 20.4095C922.148 22.015 920.999 22.6171 919.722 22.6171H917.295V18.2202H919.722C920.999 18.2202 922.148 18.804 922.148 20.4095Z" fill="url(#paint7_linear_50483_12949)"/>
<path d="M933.533 20.2818C933.533 21.6136 932.657 22.4164 931.216 22.4164H928.68V18.2202H931.216C932.657 18.2202 933.533 18.9317 933.533 20.2818Z" fill="#F0EFFF"/>
<path d="M933.533 20.2818C933.533 21.6136 932.657 22.4164 931.216 22.4164H928.68V18.2202H931.216C932.657 18.2202 933.533 18.9317 933.533 20.2818Z" fill="url(#paint8_linear_50483_12949)"/>
<path d="M948.856 22.8178C948.856 26.1382 946.904 27.7255 944.605 27.7255C942.288 27.7255 940.355 26.1565 940.355 22.836V22.8178C940.355 19.4791 942.288 17.8918 944.605 17.8918C946.904 17.8918 948.856 19.4791 948.856 22.7995V22.8178Z" fill="#F0EFFF"/>
<path d="M948.856 22.8178C948.856 26.1382 946.904 27.7255 944.605 27.7255C942.288 27.7255 940.355 26.1565 940.355 22.836V22.8178C940.355 19.4791 942.288 17.8918 944.605 17.8918C946.904 17.8918 948.856 19.4791 948.856 22.7995V22.8178Z" fill="url(#paint9_linear_50483_12949)"/>
<path fill-rule="evenodd" clip-rule="evenodd" d="M913.106 12C911.12 12 909.511 13.6093 909.511 15.5946V30.1248C909.511 32.11 911.12 33.7194 913.106 33.7194H952.07C954.055 33.7194 955.665 32.11 955.665 30.1248V15.5946C955.665 13.6093 954.055 12 952.07 12H913.106ZM915.106 16.3775V29.2398H917.295V24.4415H919.904C922.221 24.4415 924.411 23.1097 924.411 20.3913C924.411 17.6911 922.221 16.3775 919.904 16.3775H915.106ZM926.491 16.3775V29.2398H928.68V24.1131H930.888C932.219 24.1131 932.84 24.551 933.15 25.8281L933.643 27.8532C933.807 28.5282 933.953 29.0208 934.026 29.2398H936.379C936.215 28.8749 936.051 28.2728 935.923 27.7985L935.303 25.3537C935.047 24.3503 934.536 23.5475 933.059 23.3104V23.1279C934.938 22.6718 935.795 21.3582 935.795 19.8987C935.795 17.6364 934.117 16.3775 931.435 16.3775H926.491ZM938.092 22.8178C938.092 26.6856 940.829 29.5134 944.605 29.5134C948.364 29.5134 951.119 26.7038 951.119 22.836V22.8178C951.119 18.9317 948.364 16.1039 944.605 16.1039C940.829 16.1039 938.092 18.9135 938.092 22.7995V22.8178Z" fill="#F0EFFF"/>
<path fill-rule="evenodd" clip-rule="evenodd" d="M913.106 12C911.12 12 909.511 13.6093 909.511 15.5946V30.1248C909.511 32.11 911.12 33.7194 913.106 33.7194H952.07C954.055 33.7194 955.665 32.11 955.665 30.1248V15.5946C955.665 13.6093 954.055 12 952.07 12H913.106ZM915.106 16.3775V29.2398H917.295V24.4415H919.904C922.221 24.4415 924.411 23.1097 924.411 20.3913C924.411 17.6911 922.221 16.3775 919.904 16.3775H915.106ZM926.491 16.3775V29.2398H928.68V24.1131H930.888C932.219 24.1131 932.84 24.551 933.15 25.8281L933.643 27.8532C933.807 28.5282 933.953 29.0208 934.026 29.2398H936.379C936.215 28.8749 936.051 28.2728 935.923 27.7985L935.303 25.3537C935.047 24.3503 934.536 23.5475 933.059 23.3104V23.1279C934.938 22.6718 935.795 21.3582 935.795 19.8987C935.795 17.6364 934.117 16.3775 931.435 16.3775H926.491ZM938.092 22.8178C938.092 26.6856 940.829 29.5134 944.605 29.5134C948.364 29.5134 951.119 26.7038 951.119 22.836V22.8178C951.119 18.9317 948.364 16.1039 944.605 16.1039C940.829 16.1039 938.092 18.9135 938.092 22.7995V22.8178Z" fill="url(#paint10_linear_50483_12949)"/>
</g>
<defs>
<filter id="filter0_d_50483_12949" x="753.991" y="2.99137" width="210.682" height="39.7368" filterUnits="userSpaceOnUse" color-interpolation-filters="sRGB">
<feFlood flood-opacity="0" result="BackgroundImageFix"/>
<feColorMatrix in="SourceAlpha" type="matrix" values="0 0 0 0 0 0 0 0 0 0 0 0 0 0 0 0 0 0 127 0" result="hardAlpha"/>
<feOffset/>
<feGaussianBlur stdDeviation="4.50432"/>
<feComposite in2="hardAlpha" operator="out"/>
<feColorMatrix type="matrix" values="0 0 0 0 0.458824 0 0 0 0 0.219608 0 0 0 0 0.960784 0 0 0 0.3 0"/>
<feBlend mode="normal" in2="BackgroundImageFix" result="effect1_dropShadow_50483_12949"/>
<feBlend mode="normal" in="SourceGraphic" in2="effect1_dropShadow_50483_12949" result="shape"/>
</filter>
<linearGradient id="paint0_linear_50483_12949" x1="763" y1="33.7194" x2="765.263" y2="-0.56642" gradientUnits="userSpaceOnUse">
<stop offset="0.22" stop-color="#F0EFFF"/>
<stop offset="1" stop-color="#7132F5"/>
</linearGradient>
<linearGradient id="paint1_linear_50483_12949" x1="763" y1="33.7194" x2="765.263" y2="-0.56642" gradientUnits="userSpaceOnUse">
<stop offset="0.22" stop-color="#F0EFFF"/>
<stop offset="1" stop-color="#7132F5"/>
</linearGradient>
<linearGradient id="paint2_linear_50483_12949" x1="763" y1="33.7194" x2="765.263" y2="-0.56642" gradientUnits="userSpaceOnUse">
<stop offset="0.22" stop-color="#F0EFFF"/>
<stop offset="1" stop-color="#7132F5"/>
</linearGradient>
<linearGradient id="paint3_linear_50483_12949" x1="763" y1="33.7194" x2="765.263" y2="-0.56642" gradientUnits="userSpaceOnUse">
<stop offset="0.22" stop-color="#F0EFFF"/>
<stop offset="1" stop-color="#7132F5"/>
</linearGradient>
<linearGradient id="paint4_linear_50483_12949" x1="763" y1="33.7194" x2="765.263" y2="-0.56642" gradientUnits="userSpaceOnUse">
<stop offset="0.22" stop-color="#F0EFFF"/>
<stop offset="1" stop-color="#7132F5"/>
</linearGradient>
<linearGradient id="paint5_linear_50483_12949" x1="763" y1="33.7194" x2="765.263" y2="-0.56642" gradientUnits="userSpaceOnUse">
<stop offset="0.22" stop-color="#F0EFFF"/>
<stop offset="1" stop-color="#7132F5"/>
</linearGradient>
<linearGradient id="paint6_linear_50483_12949" x1="763" y1="33.7194" x2="765.263" y2="-0.56642" gradientUnits="userSpaceOnUse">
<stop offset="0.22" stop-color="#F0EFFF"/>
<stop offset="1" stop-color="#7132F5"/>
</linearGradient>
<linearGradient id="paint7_linear_50483_12949" x1="763" y1="33.7194" x2="765.263" y2="-0.56642" gradientUnits="userSpaceOnUse">
<stop offset="0.22" stop-color="#F0EFFF"/>
<stop offset="1" stop-color="#7132F5"/>
</linearGradient>
<linearGradient id="paint8_linear_50483_12949" x1="763" y1="33.7194" x2="765.263" y2="-0.56642" gradientUnits="userSpaceOnUse">
<stop offset="0.22" stop-color="#F0EFFF"/>
<stop offset="1" stop-color="#7132F5"/>
</linearGradient>
<linearGradient id="paint9_linear_50483_12949" x1="763" y1="33.7194" x2="765.263" y2="-0.56642" gradientUnits="userSpaceOnUse">
<stop offset="0.22" stop-color="#F0EFFF"/>
<stop offset="1" stop-color="#7132F5"/>
</linearGradient>
<linearGradient id="paint10_linear_50483_12949" x1="763" y1="33.7194" x2="765.263" y2="-0.56642" gradientUnits="userSpaceOnUse">
<stop offset="0.22" stop-color="#F0EFFF"/>
<stop offset="1" stop-color="#7132F5"/>
</linearGradient>
</defs>
</svg>
