<svg width="728" height="91" viewBox="0 0 728 91" fill="none" xmlns="http://www.w3.org/2000/svg">
<g filter="url(#filter0_d_50486_8959)">
<path d="M642.63 37.1216V16.5978H646.088V19.228C647.228 17.2354 649.625 16 652.337 16C656.778 16 660.001 18.3911 660.001 24.5682V37.1216H656.464V25.0863C656.464 21.2605 654.617 19.3874 651.551 19.3874C648.093 19.3874 646.167 21.7786 646.167 25.2058V37.1216H642.63Z" fill="#F0EFFF"/>
<path d="M642.63 37.1216V16.5978H646.088V19.228C647.228 17.2354 649.625 16 652.337 16C656.778 16 660.001 18.3911 660.001 24.5682V37.1216H656.464V25.0863C656.464 21.2605 654.617 19.3874 651.551 19.3874C648.093 19.3874 646.167 21.7786 646.167 25.2058V37.1216H642.63Z" fill="url(#paint0_linear_50486_8959)"/>
<path d="M630.215 37.7194C624.438 37.7194 619.997 33.9335 619.997 26.7601C619.997 20.0649 624.281 16 629.901 16C636.307 16 639.805 20.5431 639.805 25.6841C639.805 26.521 639.765 27.3977 639.648 28.0353H623.691C623.927 32.0205 626.521 34.4914 630.255 34.4914C633.202 34.4914 634.735 33.5349 635.757 31.1438H639.451C638.351 35.2884 634.931 37.7194 630.215 37.7194ZM623.691 25.0464H636.071C635.914 21.2206 633.359 19.1483 629.901 19.1483C626.246 19.1483 624.006 21.38 623.691 25.0464Z" fill="#F0EFFF"/>
<path d="M630.215 37.7194C624.438 37.7194 619.997 33.9335 619.997 26.7601C619.997 20.0649 624.281 16 629.901 16C636.307 16 639.805 20.5431 639.805 25.6841C639.805 26.521 639.765 27.3977 639.648 28.0353H623.691C623.927 32.0205 626.521 34.4914 630.255 34.4914C633.202 34.4914 634.735 33.5349 635.757 31.1438H639.451C638.351 35.2884 634.931 37.7194 630.215 37.7194ZM623.691 25.0464H636.071C635.914 21.2206 633.359 19.1483 629.901 19.1483C626.246 19.1483 624.006 21.38 623.691 25.0464Z" fill="url(#paint1_linear_50486_8959)"/>
<path d="M602.739 16.5978V37.1218H606.277V30.4665L609.657 27.1986L616.691 37.1218H620.818L612.054 24.7278L620.346 16.5979H615.788L606.277 26.003V16.5978H602.739Z" fill="#F0EFFF"/>
<path d="M602.739 16.5978V37.1218H606.277V30.4665L609.657 27.1986L616.691 37.1218H620.818L612.054 24.7278L620.346 16.5979H615.788L606.277 26.003V16.5978H602.739Z" fill="url(#paint2_linear_50486_8959)"/>
<path d="M588.254 37.7194C584.285 37.7194 581.219 35.4877 581.219 31.6619C581.219 27.7165 583.931 26.0029 587.115 25.4051L592.145 24.4486C593.757 24.1298 594.739 23.6118 594.739 22.0177C594.739 20.304 593.285 19.1483 590.416 19.1483C587.822 19.1483 585.7 20.2243 585.503 22.735H581.77C581.848 18.5107 585.621 16 590.455 16C596.036 16 598.276 18.8694 598.276 22.1372V32.8176C598.276 33.7342 598.708 34.2124 599.495 34.2124C600.163 34.2124 600.556 34.053 600.909 33.8139V36.7231C600.359 37.2013 599.416 37.5201 598.276 37.5201C596.586 37.5201 595.211 36.6035 594.857 34.85C593.953 36.1253 592.067 37.7194 588.254 37.7194ZM584.874 31.5423C584.874 33.5349 586.643 34.5711 588.922 34.5711C592.263 34.5711 594.739 32.6582 594.739 29.7888V26.4811C594.346 26.9593 593.049 27.318 591.713 27.5571L588.372 28.1947C585.975 28.673 584.874 29.7091 584.874 31.5423Z" fill="#F0EFFF"/>
<path d="M588.254 37.7194C584.285 37.7194 581.219 35.4877 581.219 31.6619C581.219 27.7165 583.931 26.0029 587.115 25.4051L592.145 24.4486C593.757 24.1298 594.739 23.6118 594.739 22.0177C594.739 20.304 593.285 19.1483 590.416 19.1483C587.822 19.1483 585.7 20.2243 585.503 22.735H581.77C581.848 18.5107 585.621 16 590.455 16C596.036 16 598.276 18.8694 598.276 22.1372V32.8176C598.276 33.7342 598.708 34.2124 599.495 34.2124C600.163 34.2124 600.556 34.053 600.909 33.8139V36.7231C600.359 37.2013 599.416 37.5201 598.276 37.5201C596.586 37.5201 595.211 36.6035 594.857 34.85C593.953 36.1253 592.067 37.7194 588.254 37.7194ZM584.874 31.5423C584.874 33.5349 586.643 34.5711 588.922 34.5711C592.263 34.5711 594.739 32.6582 594.739 29.7888V26.4811C594.346 26.9593 593.049 27.318 591.713 27.5571L588.372 28.1947C585.975 28.673 584.874 29.7091 584.874 31.5423Z" fill="url(#paint3_linear_50486_8959)"/>
<path d="M570.362 37.1214V16.5976H573.821V20.0249C574.803 17.5939 576.572 16.1592 579.362 16.1592C579.952 16.1592 580.541 16.2788 580.855 16.3585V20.0249C580.541 19.9452 579.873 19.8256 579.205 19.8256C575.746 19.8256 573.899 22.5754 573.899 26.9591V37.1214H570.362Z" fill="#F0EFFF"/>
<path d="M570.362 37.1214V16.5976H573.821V20.0249C574.803 17.5939 576.572 16.1592 579.362 16.1592C579.952 16.1592 580.541 16.2788 580.855 16.3585V20.0249C580.541 19.9452 579.873 19.8256 579.205 19.8256C575.746 19.8256 573.899 22.5754 573.899 26.9591V37.1214H570.362Z" fill="url(#paint4_linear_50486_8959)"/>
<path d="M550.729 16.5978V37.1215H554.266V30.4662L557.646 27.1983L564.681 37.1215H568.807L560.043 24.7275L568.336 16.5976H563.777L554.266 26.0027V16.5978H550.729Z" fill="#F0EFFF"/>
<path d="M550.729 16.5978V37.1215H554.266V30.4662L557.646 27.1983L564.681 37.1215H568.807L560.043 24.7275L568.336 16.5976H563.777L554.266 26.0027V16.5978H550.729Z" fill="url(#paint5_linear_50486_8959)"/>
<path d="M532.645 16C525.109 16 519 22.1889 519 29.8232V35.747C519 36.8366 519.872 37.7194 520.948 37.7194C522.024 37.7194 522.902 36.8366 522.902 35.747V29.8232C522.902 28.7303 523.771 27.8475 524.85 27.8475C525.926 27.8475 526.798 28.7303 526.798 29.8232V35.747C526.798 36.8366 527.67 37.7194 528.746 37.7194C529.825 37.7194 530.697 36.8366 530.697 35.747V29.8232C530.697 28.7303 531.569 27.8475 532.645 27.8475C533.724 27.8475 534.599 28.7303 534.599 29.8232V35.747C534.599 36.8366 535.471 37.7194 536.547 37.7194C537.623 37.7194 538.495 36.8366 538.495 35.747V29.8232C538.495 28.7303 539.367 27.8475 540.449 27.8475C541.526 27.8475 542.397 28.7303 542.397 29.8232V35.747C542.397 36.8366 543.269 37.7194 544.349 37.7194C545.425 37.7194 546.296 36.8366 546.296 35.747V29.8232C546.296 22.1889 540.184 16 532.645 16Z" fill="#F0EFFF"/>
<path d="M532.645 16C525.109 16 519 22.1889 519 29.8232V35.747C519 36.8366 519.872 37.7194 520.948 37.7194C522.024 37.7194 522.902 36.8366 522.902 35.747V29.8232C522.902 28.7303 523.771 27.8475 524.85 27.8475C525.926 27.8475 526.798 28.7303 526.798 29.8232V35.747C526.798 36.8366 527.67 37.7194 528.746 37.7194C529.825 37.7194 530.697 36.8366 530.697 35.747V29.8232C530.697 28.7303 531.569 27.8475 532.645 27.8475C533.724 27.8475 534.599 28.7303 534.599 29.8232V35.747C534.599 36.8366 535.471 37.7194 536.547 37.7194C537.623 37.7194 538.495 36.8366 538.495 35.747V29.8232C538.495 28.7303 539.367 27.8475 540.449 27.8475C541.526 27.8475 542.397 28.7303 542.397 29.8232V35.747C542.397 36.8366 543.269 37.7194 544.349 37.7194C545.425 37.7194 546.296 36.8366 546.296 35.747V29.8232C546.296 22.1889 540.184 16 532.645 16Z" fill="url(#paint6_linear_50486_8959)"/>
<path d="M678.148 24.4095C678.148 26.015 676.999 26.6171 675.722 26.6171H673.295V22.2202H675.722C676.999 22.2202 678.148 22.804 678.148 24.4095Z" fill="#F0EFFF"/>
<path d="M678.148 24.4095C678.148 26.015 676.999 26.6171 675.722 26.6171H673.295V22.2202H675.722C676.999 22.2202 678.148 22.804 678.148 24.4095Z" fill="url(#paint7_linear_50486_8959)"/>
<path d="M689.533 24.2818C689.533 25.6136 688.657 26.4164 687.216 26.4164H684.68V22.2202H687.216C688.657 22.2202 689.533 22.9317 689.533 24.2818Z" fill="#F0EFFF"/>
<path d="M689.533 24.2818C689.533 25.6136 688.657 26.4164 687.216 26.4164H684.68V22.2202H687.216C688.657 22.2202 689.533 22.9317 689.533 24.2818Z" fill="url(#paint8_linear_50486_8959)"/>
<path d="M704.856 26.8178C704.856 30.1382 702.904 31.7255 700.605 31.7255C698.288 31.7255 696.355 30.1565 696.355 26.836V26.8178C696.355 23.4791 698.288 21.8918 700.605 21.8918C702.904 21.8918 704.856 23.4791 704.856 26.7995V26.8178Z" fill="#F0EFFF"/>
<path d="M704.856 26.8178C704.856 30.1382 702.904 31.7255 700.605 31.7255C698.288 31.7255 696.355 30.1565 696.355 26.836V26.8178C696.355 23.4791 698.288 21.8918 700.605 21.8918C702.904 21.8918 704.856 23.4791 704.856 26.7995V26.8178Z" fill="url(#paint9_linear_50486_8959)"/>
<path fill-rule="evenodd" clip-rule="evenodd" d="M669.106 16C667.12 16 665.511 17.6093 665.511 19.5946V34.1248C665.511 36.11 667.12 37.7194 669.106 37.7194H708.07C710.055 37.7194 711.665 36.11 711.665 34.1248V19.5946C711.665 17.6093 710.055 16 708.07 16H669.106ZM671.106 20.3775V33.2398H673.295V28.4415H675.904C678.221 28.4415 680.411 27.1097 680.411 24.3913C680.411 21.6911 678.221 20.3775 675.904 20.3775H671.106ZM682.491 20.3775V33.2398H684.68V28.1131H686.888C688.219 28.1131 688.84 28.551 689.15 29.8281L689.643 31.8532C689.807 32.5282 689.953 33.0208 690.026 33.2398H692.379C692.215 32.8749 692.051 32.2728 691.923 31.7985L691.303 29.3537C691.047 28.3503 690.536 27.5475 689.059 27.3104V27.1279C690.938 26.6718 691.795 25.3582 691.795 23.8987C691.795 21.6364 690.117 20.3775 687.435 20.3775H682.491ZM694.092 26.8178C694.092 30.6856 696.829 33.5134 700.605 33.5134C704.364 33.5134 707.119 30.7038 707.119 26.836V26.8178C707.119 22.9317 704.364 20.1039 700.605 20.1039C696.829 20.1039 694.092 22.9135 694.092 26.7995V26.8178Z" fill="#F0EFFF"/>
<path fill-rule="evenodd" clip-rule="evenodd" d="M669.106 16C667.12 16 665.511 17.6093 665.511 19.5946V34.1248C665.511 36.11 667.12 37.7194 669.106 37.7194H708.07C710.055 37.7194 711.665 36.11 711.665 34.1248V19.5946C711.665 17.6093 710.055 16 708.07 16H669.106ZM671.106 20.3775V33.2398H673.295V28.4415H675.904C678.221 28.4415 680.411 27.1097 680.411 24.3913C680.411 21.6911 678.221 20.3775 675.904 20.3775H671.106ZM682.491 20.3775V33.2398H684.68V28.1131H686.888C688.219 28.1131 688.84 28.551 689.15 29.8281L689.643 31.8532C689.807 32.5282 689.953 33.0208 690.026 33.2398H692.379C692.215 32.8749 692.051 32.2728 691.923 31.7985L691.303 29.3537C691.047 28.3503 690.536 27.5475 689.059 27.3104V27.1279C690.938 26.6718 691.795 25.3582 691.795 23.8987C691.795 21.6364 690.117 20.3775 687.435 20.3775H682.491ZM694.092 26.8178C694.092 30.6856 696.829 33.5134 700.605 33.5134C704.364 33.5134 707.119 30.7038 707.119 26.836V26.8178C707.119 22.9317 704.364 20.1039 700.605 20.1039C696.829 20.1039 694.092 22.9135 694.092 26.7995V26.8178Z" fill="url(#paint10_linear_50486_8959)"/>
</g>
<defs>
<filter id="filter0_d_50486_8959" x="509.991" y="6.99137" width="210.682" height="39.7368" filterUnits="userSpaceOnUse" color-interpolation-filters="sRGB">
<feFlood flood-opacity="0" result="BackgroundImageFix"/>
<feColorMatrix in="SourceAlpha" type="matrix" values="0 0 0 0 0 0 0 0 0 0 0 0 0 0 0 0 0 0 127 0" result="hardAlpha"/>
<feOffset/>
<feGaussianBlur stdDeviation="4.50432"/>
<feComposite in2="hardAlpha" operator="out"/>
<feColorMatrix type="matrix" values="0 0 0 0 0.458824 0 0 0 0 0.219608 0 0 0 0 0.960784 0 0 0 0.3 0"/>
<feBlend mode="normal" in2="BackgroundImageFix" result="effect1_dropShadow_50486_8959"/>
<feBlend mode="normal" in="SourceGraphic" in2="effect1_dropShadow_50486_8959" result="shape"/>
</filter>
<linearGradient id="paint0_linear_50486_8959" x1="519" y1="37.7194" x2="521.263" y2="3.43358" gradientUnits="userSpaceOnUse">
<stop offset="0.22" stop-color="#F0EFFF"/>
<stop offset="1" stop-color="#7132F5"/>
</linearGradient>
<linearGradient id="paint1_linear_50486_8959" x1="519" y1="37.7194" x2="521.263" y2="3.43358" gradientUnits="userSpaceOnUse">
<stop offset="0.22" stop-color="#F0EFFF"/>
<stop offset="1" stop-color="#7132F5"/>
</linearGradient>
<linearGradient id="paint2_linear_50486_8959" x1="519" y1="37.7194" x2="521.263" y2="3.43358" gradientUnits="userSpaceOnUse">
<stop offset="0.22" stop-color="#F0EFFF"/>
<stop offset="1" stop-color="#7132F5"/>
</linearGradient>
<linearGradient id="paint3_linear_50486_8959" x1="519" y1="37.7194" x2="521.263" y2="3.43358" gradientUnits="userSpaceOnUse">
<stop offset="0.22" stop-color="#F0EFFF"/>
<stop offset="1" stop-color="#7132F5"/>
</linearGradient>
<linearGradient id="paint4_linear_50486_8959" x1="519" y1="37.7194" x2="521.263" y2="3.43358" gradientUnits="userSpaceOnUse">
<stop offset="0.22" stop-color="#F0EFFF"/>
<stop offset="1" stop-color="#7132F5"/>
</linearGradient>
<linearGradient id="paint5_linear_50486_8959" x1="519" y1="37.7194" x2="521.263" y2="3.43358" gradientUnits="userSpaceOnUse">
<stop offset="0.22" stop-color="#F0EFFF"/>
<stop offset="1" stop-color="#7132F5"/>
</linearGradient>
<linearGradient id="paint6_linear_50486_8959" x1="519" y1="37.7194" x2="521.263" y2="3.43358" gradientUnits="userSpaceOnUse">
<stop offset="0.22" stop-color="#F0EFFF"/>
<stop offset="1" stop-color="#7132F5"/>
</linearGradient>
<linearGradient id="paint7_linear_50486_8959" x1="519" y1="37.7194" x2="521.263" y2="3.43358" gradientUnits="userSpaceOnUse">
<stop offset="0.22" stop-color="#F0EFFF"/>
<stop offset="1" stop-color="#7132F5"/>
</linearGradient>
<linearGradient id="paint8_linear_50486_8959" x1="519" y1="37.7194" x2="521.263" y2="3.43358" gradientUnits="userSpaceOnUse">
<stop offset="0.22" stop-color="#F0EFFF"/>
<stop offset="1" stop-color="#7132F5"/>
</linearGradient>
<linearGradient id="paint9_linear_50486_8959" x1="519" y1="37.7194" x2="521.263" y2="3.43358" gradientUnits="userSpaceOnUse">
<stop offset="0.22" stop-color="#F0EFFF"/>
<stop offset="1" stop-color="#7132F5"/>
</linearGradient>
<linearGradient id="paint10_linear_50486_8959" x1="519" y1="37.7194" x2="521.263" y2="3.43358" gradientUnits="userSpaceOnUse">
<stop offset="0.22" stop-color="#F0EFFF"/>
<stop offset="1" stop-color="#7132F5"/>
</linearGradient>
</defs>
</svg>
