<svg width="320" height="51" viewBox="0 0 320 51" fill="none" xmlns="http://www.w3.org/2000/svg">
<mask id="mask0_50483_13715" style="mask-type:alpha" maskUnits="userSpaceOnUse" x="236" y="-145" width="337" height="367">
<rect x="236.098" y="-100.117" width="290.462" height="325.729" transform="rotate(-8.72859 236.098 -100.117)" fill="#D9D9D9"/>
</mask>
<g mask="url(#mask0_50483_13715)">
<g filter="url(#filter0_f_50483_13715)">
<path d="M236.035 118.961L209.642 -52.9395C263.376 22.1165 354.741 60.5909 445.98 46.5829L538.512 32.3761L546.383 83.6384L236.035 118.961Z" fill="#7132F5"/>
</g>
<g filter="url(#filter1_f_50483_13715)">
<path d="M271.223 123.504L263.205 71.2789C278.606 94.4659 304.021 109.053 331.81 110.657L348.594 111.625L271.223 123.504Z" fill="#F0EFFF"/>
</g>
<g filter="url(#filter2_f_50483_13715)">
<path d="M258.82 146.157L233.407 -19.3676C279.55 57.2324 369.723 95.4662 456.862 75.3777L528.909 58.7683L258.82 146.157Z" fill="#F9E0FE"/>
</g>
</g>
<mask id="mask1_50483_13715" style="mask-type:alpha" maskUnits="userSpaceOnUse" x="-51" y="-101" width="337" height="367">
<rect width="290.462" height="325.729" transform="matrix(-0.988418 0.151754 0.151754 0.988418 236.098 -100.117)" fill="#D9D9D9"/>
</mask>
<g mask="url(#mask1_50483_13715)">
<g filter="url(#filter3_f_50483_13715)">
<path d="M301.878 108.851L275.486 -63.0493C246.744 24.6694 171.128 88.7807 79.89 102.789L-12.6429 116.995L-4.77245 168.258L301.878 108.851Z" fill="#7132F5"/>
</g>
<g filter="url(#filter4_f_50483_13715)">
<path d="M269.673 123.741L261.655 71.5163C253.919 98.2555 234.051 119.795 208.023 129.662L192.303 135.62L269.673 123.741Z" fill="#F0EFFF"/>
</g>
<g filter="url(#filter5_f_50483_13715)">
<path d="M288.301 141.631L262.887 -23.894C241.85 63.0203 167.299 126.545 78.1473 133.522L4.43615 139.291L288.301 141.631Z" fill="#F9E0FE"/>
</g>
</g>
<g filter="url(#filter6_f_50483_13715)">
<ellipse cx="264.996" cy="90.9382" rx="18.9577" ry="96.7276" transform="rotate(-8.72859 264.996 90.9382)" fill="#F9E0FE"/>
</g>
<g filter="url(#filter7_f_50483_13715)">
<ellipse cx="245.865" cy="-25.9963" rx="20.1155" ry="28.7948" transform="rotate(-8.72859 245.865 -25.9963)" fill="#0C0713"/>
</g>
<defs>
<filter id="filter0_f_50483_13715" x="186.16" y="-76.4225" width="383.706" height="218.866" filterUnits="userSpaceOnUse" color-interpolation-filters="sRGB">
<feFlood flood-opacity="0" result="BackgroundImageFix"/>
<feBlend mode="normal" in="SourceGraphic" in2="BackgroundImageFix" result="shape"/>
<feGaussianBlur stdDeviation="11.7415" result="effect1_foregroundBlur_50483_13715"/>
</filter>
<filter id="filter1_f_50483_13715" x="239.722" y="47.7957" width="132.355" height="99.1912" filterUnits="userSpaceOnUse" color-interpolation-filters="sRGB">
<feFlood flood-opacity="0" result="BackgroundImageFix"/>
<feBlend mode="normal" in="SourceGraphic" in2="BackgroundImageFix" result="shape"/>
<feGaussianBlur stdDeviation="11.7415" result="effect1_foregroundBlur_50483_13715"/>
</filter>
<filter id="filter2_f_50483_13715" x="199.12" y="-53.6549" width="364.076" height="234.099" filterUnits="userSpaceOnUse" color-interpolation-filters="sRGB">
<feFlood flood-opacity="0" result="BackgroundImageFix"/>
<feBlend mode="normal" in="SourceGraphic" in2="BackgroundImageFix" result="shape"/>
<feGaussianBlur stdDeviation="17.1436" result="effect1_foregroundBlur_50483_13715"/>
</filter>
<filter id="filter3_f_50483_13715" x="-36.1257" y="-86.5324" width="361.487" height="278.273" filterUnits="userSpaceOnUse" color-interpolation-filters="sRGB">
<feFlood flood-opacity="0" result="BackgroundImageFix"/>
<feBlend mode="normal" in="SourceGraphic" in2="BackgroundImageFix" result="shape"/>
<feGaussianBlur stdDeviation="11.7415" result="effect1_foregroundBlur_50483_13715"/>
</filter>
<filter id="filter4_f_50483_13715" x="168.82" y="48.0333" width="124.336" height="111.07" filterUnits="userSpaceOnUse" color-interpolation-filters="sRGB">
<feFlood flood-opacity="0" result="BackgroundImageFix"/>
<feBlend mode="normal" in="SourceGraphic" in2="BackgroundImageFix" result="shape"/>
<feGaussianBlur stdDeviation="11.7415" result="effect1_foregroundBlur_50483_13715"/>
</filter>
<filter id="filter5_f_50483_13715" x="-29.8507" y="-58.1813" width="352.439" height="234.099" filterUnits="userSpaceOnUse" color-interpolation-filters="sRGB">
<feFlood flood-opacity="0" result="BackgroundImageFix"/>
<feBlend mode="normal" in="SourceGraphic" in2="BackgroundImageFix" result="shape"/>
<feGaussianBlur stdDeviation="17.1436" result="effect1_foregroundBlur_50483_13715"/>
</filter>
<filter id="filter6_f_50483_13715" x="206.905" y="-39.0006" width="116.182" height="259.877" filterUnits="userSpaceOnUse" color-interpolation-filters="sRGB">
<feFlood flood-opacity="0" result="BackgroundImageFix"/>
<feBlend mode="normal" in="SourceGraphic" in2="BackgroundImageFix" result="shape"/>
<feGaussianBlur stdDeviation="17.1436" result="effect1_foregroundBlur_50483_13715"/>
</filter>
<filter id="filter7_f_50483_13715" x="199.976" y="-80.1506" width="91.7773" height="108.309" filterUnits="userSpaceOnUse" color-interpolation-filters="sRGB">
<feFlood flood-opacity="0" result="BackgroundImageFix"/>
<feBlend mode="normal" in="SourceGraphic" in2="BackgroundImageFix" result="shape"/>
<feGaussianBlur stdDeviation="12.7637" result="effect1_foregroundBlur_50483_13715"/>
</filter>
</defs>
</svg>
