<svg width="971" height="250" viewBox="0 0 971 250" fill="none" xmlns="http://www.w3.org/2000/svg">
<g filter="url(#filter0_d_50483_12697)">
<path d="M871.56 54.8061V35.5605H874.803V38.027C875.872 36.1585 878.12 35 880.663 35C884.828 35 887.85 37.2422 887.85 43.0345V54.8061H884.533V43.5203C884.533 39.9328 882.801 38.1764 879.926 38.1764C876.683 38.1764 874.877 40.4186 874.877 43.6325V54.8061H871.56Z" fill="#F0EFFF"/>
<path d="M871.56 54.8061V35.5605H874.803V38.027C875.872 36.1585 878.12 35 880.663 35C884.828 35 887.85 37.2422 887.85 43.0345V54.8061H884.533V43.5203C884.533 39.9328 882.801 38.1764 879.926 38.1764C876.683 38.1764 874.877 40.4186 874.877 43.6325V54.8061H871.56Z" fill="url(#paint0_linear_50483_12697)"/>
<path d="M859.919 55.3666C854.502 55.3666 850.337 51.8165 850.337 45.0899C850.337 38.8117 854.354 35 859.624 35C865.631 35 868.911 39.2602 868.911 44.0809C868.911 44.8657 868.875 45.6878 868.764 46.2857H853.801C854.023 50.0227 856.455 52.3397 859.956 52.3397C862.72 52.3397 864.157 51.4428 865.115 49.2006H868.58C867.548 53.0871 864.342 55.3666 859.919 55.3666ZM853.801 43.483H865.41C865.263 39.8955 862.867 37.9522 859.624 37.9522C856.197 37.9522 854.096 40.0449 853.801 43.483Z" fill="#F0EFFF"/>
<path d="M859.919 55.3666C854.502 55.3666 850.337 51.8165 850.337 45.0899C850.337 38.8117 854.354 35 859.624 35C865.631 35 868.911 39.2602 868.911 44.0809C868.911 44.8657 868.875 45.6878 868.764 46.2857H853.801C854.023 50.0227 856.455 52.3397 859.956 52.3397C862.72 52.3397 864.157 51.4428 865.115 49.2006H868.58C867.548 53.0871 864.342 55.3666 859.919 55.3666ZM853.801 43.483H865.41C865.263 39.8955 862.867 37.9522 859.624 37.9522C856.197 37.9522 854.096 40.0449 853.801 43.483Z" fill="url(#paint1_linear_50483_12697)"/>
<path d="M834.155 35.5606V54.8062H837.471V48.5654L840.641 45.5011L847.238 54.8062H851.107L842.889 43.1842L850.665 35.5607H846.39L837.471 44.38V35.5606H834.155Z" fill="#F0EFFF"/>
<path d="M834.155 35.5606V54.8062H837.471V48.5654L840.641 45.5011L847.238 54.8062H851.107L842.889 43.1842L850.665 35.5607H846.39L837.471 44.38V35.5606H834.155Z" fill="url(#paint2_linear_50483_12697)"/>
<path d="M820.572 55.3666C816.85 55.3666 813.975 53.2739 813.975 49.6864C813.975 45.9868 816.518 44.3799 819.503 43.8193L824.22 42.9224C825.731 42.6235 826.653 42.1377 826.653 40.6429C826.653 39.036 825.289 37.9522 822.599 37.9522C820.166 37.9522 818.176 38.9612 817.992 41.3155H814.491C814.565 37.3543 818.103 35 822.636 35C827.869 35 829.969 37.6906 829.969 40.755V50.7701C829.969 51.6296 830.375 52.0781 831.112 52.0781C831.738 52.0781 832.107 51.9286 832.439 51.7044V54.4324C831.923 54.8808 831.038 55.1798 829.969 55.1798C828.385 55.1798 827.095 54.3203 826.763 52.676C825.915 53.8718 824.147 55.3666 820.572 55.3666ZM817.402 49.5743C817.402 51.4428 819.061 52.4144 821.198 52.4144C824.331 52.4144 826.653 50.6206 826.653 47.93V44.8283C826.284 45.2767 825.068 45.6131 823.815 45.8373L820.682 46.4352C818.434 46.8836 817.402 47.8553 817.402 49.5743Z" fill="#F0EFFF"/>
<path d="M820.572 55.3666C816.85 55.3666 813.975 53.2739 813.975 49.6864C813.975 45.9868 816.518 44.3799 819.503 43.8193L824.22 42.9224C825.731 42.6235 826.653 42.1377 826.653 40.6429C826.653 39.036 825.289 37.9522 822.599 37.9522C820.166 37.9522 818.176 38.9612 817.992 41.3155H814.491C814.565 37.3543 818.103 35 822.636 35C827.869 35 829.969 37.6906 829.969 40.755V50.7701C829.969 51.6296 830.375 52.0781 831.112 52.0781C831.738 52.0781 832.107 51.9286 832.439 51.7044V54.4324C831.923 54.8808 831.038 55.1798 829.969 55.1798C828.385 55.1798 827.095 54.3203 826.763 52.676C825.915 53.8718 824.147 55.3666 820.572 55.3666ZM817.402 49.5743C817.402 51.4428 819.061 52.4144 821.198 52.4144C824.331 52.4144 826.653 50.6206 826.653 47.93V44.8283C826.284 45.2767 825.068 45.6131 823.815 45.8373L820.682 46.4352C818.434 46.8836 817.402 47.8553 817.402 49.5743Z" fill="url(#paint3_linear_50483_12697)"/>
<path d="M803.794 54.8059V35.5604H807.037V38.7742C807.958 36.4946 809.617 35.1493 812.233 35.1493C812.786 35.1493 813.339 35.2614 813.634 35.3361V38.7742C813.339 38.6994 812.712 38.5873 812.086 38.5873C808.843 38.5873 807.111 41.1659 807.111 45.2765V54.8059H803.794Z" fill="#F0EFFF"/>
<path d="M803.794 54.8059V35.5604H807.037V38.7742C807.958 36.4946 809.617 35.1493 812.233 35.1493C812.786 35.1493 813.339 35.2614 813.634 35.3361V38.7742C813.339 38.6994 812.712 38.5873 812.086 38.5873C808.843 38.5873 807.111 41.1659 807.111 45.2765V54.8059H803.794Z" fill="url(#paint4_linear_50483_12697)"/>
<path d="M785.383 35.5606V54.8059H788.7V48.5652L791.869 45.5008L798.466 54.8059H802.336L794.117 43.1839L801.894 35.5604H797.619L788.7 44.3797V35.5606H785.383Z" fill="#F0EFFF"/>
<path d="M785.383 35.5606V54.8059H788.7V48.5652L791.869 45.5008L798.466 54.8059H802.336L794.117 43.1839L801.894 35.5604H797.619L788.7 44.3797V35.5606H785.383Z" fill="url(#paint5_linear_50483_12697)"/>
<path d="M768.426 35C761.359 35 755.631 40.8034 755.631 47.9622V53.517C755.631 54.5388 756.448 55.3666 757.457 55.3666C758.467 55.3666 759.29 54.5388 759.29 53.517V47.9622C759.29 46.9374 760.105 46.1096 761.117 46.1096C762.126 46.1096 762.943 46.9374 762.943 47.9622V53.517C762.943 54.5388 763.761 55.3666 764.77 55.3666C765.782 55.3666 766.599 54.5388 766.599 53.517V47.9622C766.599 46.9374 767.417 46.1096 768.426 46.1096C769.438 46.1096 770.259 46.9374 770.259 47.9622V53.517C770.259 54.5388 771.076 55.3666 772.085 55.3666C773.094 55.3666 773.912 54.5388 773.912 53.517V47.9622C773.912 46.9374 774.729 46.1096 775.744 46.1096C776.753 46.1096 777.571 46.9374 777.571 47.9622V53.517C777.571 54.5388 778.388 55.3666 779.401 55.3666C780.41 55.3666 781.227 54.5388 781.227 53.517V47.9622C781.227 40.8034 775.496 35 768.426 35Z" fill="#F0EFFF"/>
<path d="M768.426 35C761.359 35 755.631 40.8034 755.631 47.9622V53.517C755.631 54.5388 756.448 55.3666 757.457 55.3666C758.467 55.3666 759.29 54.5388 759.29 53.517V47.9622C759.29 46.9374 760.105 46.1096 761.117 46.1096C762.126 46.1096 762.943 46.9374 762.943 47.9622V53.517C762.943 54.5388 763.761 55.3666 764.77 55.3666C765.782 55.3666 766.599 54.5388 766.599 53.517V47.9622C766.599 46.9374 767.417 46.1096 768.426 46.1096C769.438 46.1096 770.259 46.9374 770.259 47.9622V53.517C770.259 54.5388 771.076 55.3666 772.085 55.3666C773.094 55.3666 773.912 54.5388 773.912 53.517V47.9622C773.912 46.9374 774.729 46.1096 775.744 46.1096C776.753 46.1096 777.571 46.9374 777.571 47.9622V53.517C777.571 54.5388 778.388 55.3666 779.401 55.3666C780.41 55.3666 781.227 54.5388 781.227 53.517V47.9622C781.227 40.8034 775.496 35 768.426 35Z" fill="url(#paint6_linear_50483_12697)"/>
<path d="M904.867 42.8857C904.867 44.3912 903.789 44.9558 902.591 44.9558H900.316V40.8328H902.591C903.789 40.8328 904.867 41.3802 904.867 42.8857Z" fill="#F0EFFF"/>
<path d="M904.867 42.8857C904.867 44.3912 903.789 44.9558 902.591 44.9558H900.316V40.8328H902.591C903.789 40.8328 904.867 41.3802 904.867 42.8857Z" fill="url(#paint7_linear_50483_12697)"/>
<path d="M915.542 42.766C915.542 44.0149 914.721 44.7676 913.37 44.7676H910.992V40.8328H913.37C914.721 40.8328 915.542 41.5 915.542 42.766Z" fill="#F0EFFF"/>
<path d="M915.542 42.766C915.542 44.0149 914.721 44.7676 913.37 44.7676H910.992V40.8328H913.37C914.721 40.8328 915.542 41.5 915.542 42.766Z" fill="url(#paint8_linear_50483_12697)"/>
<path d="M929.911 45.144C929.911 48.2576 928.081 49.746 925.925 49.746C923.752 49.746 921.939 48.2747 921.939 45.1611V45.144C921.939 42.0132 923.752 40.5248 925.925 40.5248C928.081 40.5248 929.911 42.0132 929.911 45.1269V45.144Z" fill="#F0EFFF"/>
<path d="M929.911 45.144C929.911 48.2576 928.081 49.746 925.925 49.746C923.752 49.746 921.939 48.2747 921.939 45.1611V45.144C921.939 42.0132 923.752 40.5248 925.925 40.5248C928.081 40.5248 929.911 42.0132 929.911 45.1269V45.144Z" fill="url(#paint9_linear_50483_12697)"/>
<path fill-rule="evenodd" clip-rule="evenodd" d="M896.387 35C894.526 35 893.016 36.5091 893.016 38.3707V51.9959C893.016 53.8575 894.526 55.3666 896.387 55.3666H932.925C934.786 55.3666 936.295 53.8575 936.295 51.9959V38.3707C936.295 36.5091 934.786 35 932.925 35H896.387ZM898.263 39.1049V51.166H900.316V46.6666H902.762C904.935 46.6666 906.988 45.4177 906.988 42.8686C906.988 40.3367 904.935 39.1049 902.762 39.1049H898.263ZM908.939 39.1049V51.166H910.992V46.3587H913.062C914.311 46.3587 914.892 46.7692 915.183 47.9668L915.645 49.8658C915.799 50.4988 915.936 50.9607 916.004 51.166H918.211C918.057 50.8238 917.903 50.2593 917.784 49.8145L917.202 47.522C916.962 46.5811 916.483 45.8283 915.098 45.6059V45.4348C916.86 45.0071 917.664 43.7754 917.664 42.4067C917.664 40.2853 916.09 39.1049 913.575 39.1049H908.939ZM919.818 45.144C919.818 48.7709 922.384 51.4226 925.925 51.4226C929.449 51.4226 932.033 48.788 932.033 45.1611V45.144C932.033 41.5 929.449 38.8483 925.925 38.8483C922.384 38.8483 919.818 41.4829 919.818 45.1269V45.144Z" fill="#F0EFFF"/>
<path fill-rule="evenodd" clip-rule="evenodd" d="M896.387 35C894.526 35 893.016 36.5091 893.016 38.3707V51.9959C893.016 53.8575 894.526 55.3666 896.387 55.3666H932.925C934.786 55.3666 936.295 53.8575 936.295 51.9959V38.3707C936.295 36.5091 934.786 35 932.925 35H896.387ZM898.263 39.1049V51.166H900.316V46.6666H902.762C904.935 46.6666 906.988 45.4177 906.988 42.8686C906.988 40.3367 904.935 39.1049 902.762 39.1049H898.263ZM908.939 39.1049V51.166H910.992V46.3587H913.062C914.311 46.3587 914.892 46.7692 915.183 47.9668L915.645 49.8658C915.799 50.4988 915.936 50.9607 916.004 51.166H918.211C918.057 50.8238 917.903 50.2593 917.784 49.8145L917.202 47.522C916.962 46.5811 916.483 45.8283 915.098 45.6059V45.4348C916.86 45.0071 917.664 43.7754 917.664 42.4067C917.664 40.2853 916.09 39.1049 913.575 39.1049H908.939ZM919.818 45.144C919.818 48.7709 922.384 51.4226 925.925 51.4226C929.449 51.4226 932.033 48.788 932.033 45.1611V45.144C932.033 41.5 929.449 38.8483 925.925 38.8483C922.384 38.8483 919.818 41.4829 919.818 45.1269V45.144Z" fill="url(#paint10_linear_50483_12697)"/>
</g>
<defs>
<filter id="filter0_d_50483_12697" x="747.183" y="26.5525" width="197.56" height="37.2617" filterUnits="userSpaceOnUse" color-interpolation-filters="sRGB">
<feFlood flood-opacity="0" result="BackgroundImageFix"/>
<feColorMatrix in="SourceAlpha" type="matrix" values="0 0 0 0 0 0 0 0 0 0 0 0 0 0 0 0 0 0 127 0" result="hardAlpha"/>
<feOffset/>
<feGaussianBlur stdDeviation="4.22377"/>
<feComposite in2="hardAlpha" operator="out"/>
<feColorMatrix type="matrix" values="0 0 0 0 0.458824 0 0 0 0 0.219608 0 0 0 0 0.960784 0 0 0 0.3 0"/>
<feBlend mode="normal" in2="BackgroundImageFix" result="effect1_dropShadow_50483_12697"/>
<feBlend mode="normal" in="SourceGraphic" in2="effect1_dropShadow_50483_12697" result="shape"/>
</filter>
<linearGradient id="paint0_linear_50483_12697" x1="755.631" y1="55.3666" x2="757.753" y2="23.2163" gradientUnits="userSpaceOnUse">
<stop offset="0.22" stop-color="#F0EFFF"/>
<stop offset="1" stop-color="#7132F5"/>
</linearGradient>
<linearGradient id="paint1_linear_50483_12697" x1="755.631" y1="55.3666" x2="757.753" y2="23.2163" gradientUnits="userSpaceOnUse">
<stop offset="0.22" stop-color="#F0EFFF"/>
<stop offset="1" stop-color="#7132F5"/>
</linearGradient>
<linearGradient id="paint2_linear_50483_12697" x1="755.631" y1="55.3666" x2="757.753" y2="23.2163" gradientUnits="userSpaceOnUse">
<stop offset="0.22" stop-color="#F0EFFF"/>
<stop offset="1" stop-color="#7132F5"/>
</linearGradient>
<linearGradient id="paint3_linear_50483_12697" x1="755.631" y1="55.3666" x2="757.753" y2="23.2163" gradientUnits="userSpaceOnUse">
<stop offset="0.22" stop-color="#F0EFFF"/>
<stop offset="1" stop-color="#7132F5"/>
</linearGradient>
<linearGradient id="paint4_linear_50483_12697" x1="755.631" y1="55.3666" x2="757.753" y2="23.2163" gradientUnits="userSpaceOnUse">
<stop offset="0.22" stop-color="#F0EFFF"/>
<stop offset="1" stop-color="#7132F5"/>
</linearGradient>
<linearGradient id="paint5_linear_50483_12697" x1="755.631" y1="55.3666" x2="757.753" y2="23.2163" gradientUnits="userSpaceOnUse">
<stop offset="0.22" stop-color="#F0EFFF"/>
<stop offset="1" stop-color="#7132F5"/>
</linearGradient>
<linearGradient id="paint6_linear_50483_12697" x1="755.631" y1="55.3666" x2="757.753" y2="23.2163" gradientUnits="userSpaceOnUse">
<stop offset="0.22" stop-color="#F0EFFF"/>
<stop offset="1" stop-color="#7132F5"/>
</linearGradient>
<linearGradient id="paint7_linear_50483_12697" x1="755.631" y1="55.3666" x2="757.753" y2="23.2163" gradientUnits="userSpaceOnUse">
<stop offset="0.22" stop-color="#F0EFFF"/>
<stop offset="1" stop-color="#7132F5"/>
</linearGradient>
<linearGradient id="paint8_linear_50483_12697" x1="755.631" y1="55.3666" x2="757.753" y2="23.2163" gradientUnits="userSpaceOnUse">
<stop offset="0.22" stop-color="#F0EFFF"/>
<stop offset="1" stop-color="#7132F5"/>
</linearGradient>
<linearGradient id="paint9_linear_50483_12697" x1="755.631" y1="55.3666" x2="757.753" y2="23.2163" gradientUnits="userSpaceOnUse">
<stop offset="0.22" stop-color="#F0EFFF"/>
<stop offset="1" stop-color="#7132F5"/>
</linearGradient>
<linearGradient id="paint10_linear_50483_12697" x1="755.631" y1="55.3666" x2="757.753" y2="23.2163" gradientUnits="userSpaceOnUse">
<stop offset="0.22" stop-color="#F0EFFF"/>
<stop offset="1" stop-color="#7132F5"/>
</linearGradient>
</defs>
</svg>
