<svg width="320" height="51" viewBox="0 0 320 51" fill="none" xmlns="http://www.w3.org/2000/svg">
<g filter="url(#filter0_d_50483_13705)">
<path d="M70.1004 21.7293V11.586H71.8096V12.8859C72.3729 11.9011 73.5577 11.2905 74.898 11.2905C77.0928 11.2905 78.6856 12.4723 78.6856 15.5251V21.7293H76.9374V15.7812C76.9374 13.8904 76.0245 12.9647 74.5095 12.9647C72.8002 12.9647 71.8485 14.1464 71.8485 15.8402V21.7293H70.1004Z" fill="#F0EFFF"/>
<path d="M70.1004 21.7293V11.586H71.8096V12.8859C72.3729 11.9011 73.5577 11.2905 74.898 11.2905C77.0928 11.2905 78.6856 12.4723 78.6856 15.5251V21.7293H76.9374V15.7812C76.9374 13.8904 76.0245 12.9647 74.5095 12.9647C72.8002 12.9647 71.8485 14.1464 71.8485 15.8402V21.7293H70.1004Z" fill="url(#paint0_linear_50483_13705)"/>
<path d="M63.9649 22.0247C61.1096 22.0247 58.9148 20.1536 58.9148 16.6084C58.9148 13.2995 61.0319 11.2905 63.8095 11.2905C66.9755 11.2905 68.7042 13.5358 68.7042 16.0766C68.7042 16.4902 68.6848 16.9235 68.6265 17.2386H60.7406C60.8571 19.2082 62.1391 20.4294 63.9843 20.4294C65.4411 20.4294 66.1986 19.9567 66.7036 18.7749H68.5294C67.9856 20.8233 66.2957 22.0247 63.9649 22.0247ZM60.7406 15.7615H66.859C66.7813 13.8707 65.5188 12.8465 63.8095 12.8465C62.0031 12.8465 60.896 13.9495 60.7406 15.7615Z" fill="#F0EFFF"/>
<path d="M63.9649 22.0247C61.1096 22.0247 58.9148 20.1536 58.9148 16.6084C58.9148 13.2995 61.0319 11.2905 63.8095 11.2905C66.9755 11.2905 68.7042 13.5358 68.7042 16.0766C68.7042 16.4902 68.6848 16.9235 68.6265 17.2386H60.7406C60.8571 19.2082 62.1391 20.4294 63.9843 20.4294C65.4411 20.4294 66.1986 19.9567 66.7036 18.7749H68.5294C67.9856 20.8233 66.2957 22.0247 63.9649 22.0247ZM60.7406 15.7615H66.859C66.7813 13.8707 65.5188 12.8465 63.8095 12.8465C62.0031 12.8465 60.896 13.9495 60.7406 15.7615Z" fill="url(#paint1_linear_50483_13705)"/>
<path d="M50.3858 11.586V21.7294H52.1339V18.4402L53.8043 16.8251L57.2811 21.7294H59.3206L54.9892 15.604L59.0875 11.586H56.8344L52.1339 16.2342V11.586H50.3858Z" fill="#F0EFFF"/>
<path d="M50.3858 11.586V21.7294H52.1339V18.4402L53.8043 16.8251L57.2811 21.7294H59.3206L54.9892 15.604L59.0875 11.586H56.8344L52.1339 16.2342V11.586H50.3858Z" fill="url(#paint2_linear_50483_13705)"/>
<path d="M43.2269 22.0247C41.2651 22.0247 39.7501 20.9217 39.7501 19.031C39.7501 17.0811 41.0903 16.2342 42.6636 15.9387L45.1499 15.466C45.9462 15.3085 46.4318 15.0524 46.4318 14.2646C46.4318 13.4177 45.7131 12.8465 44.2952 12.8465C43.0133 12.8465 41.9644 13.3783 41.8673 14.6191H40.022C40.0609 12.5314 41.9255 11.2905 44.3146 11.2905C47.0728 11.2905 48.1799 12.7086 48.1799 14.3237V19.6021C48.1799 20.0551 48.3936 20.2915 48.7821 20.2915C49.1123 20.2915 49.3065 20.2127 49.4813 20.0945V21.5323C49.2094 21.7687 48.7432 21.9262 48.1799 21.9262C47.3447 21.9262 46.6649 21.4732 46.4901 20.6066C46.0433 21.2369 45.111 22.0247 43.2269 22.0247ZM41.5565 18.9719C41.5565 19.9567 42.4306 20.4687 43.5571 20.4687C45.2081 20.4687 46.4318 19.5233 46.4318 18.1053V16.4705C46.2376 16.7069 45.5966 16.8841 44.9362 17.0023L43.2852 17.3174C42.1004 17.5538 41.5565 18.0659 41.5565 18.9719Z" fill="#F0EFFF"/>
<path d="M43.2269 22.0247C41.2651 22.0247 39.7501 20.9217 39.7501 19.031C39.7501 17.0811 41.0903 16.2342 42.6636 15.9387L45.1499 15.466C45.9462 15.3085 46.4318 15.0524 46.4318 14.2646C46.4318 13.4177 45.7131 12.8465 44.2952 12.8465C43.0133 12.8465 41.9644 13.3783 41.8673 14.6191H40.022C40.0609 12.5314 41.9255 11.2905 44.3146 11.2905C47.0728 11.2905 48.1799 12.7086 48.1799 14.3237V19.6021C48.1799 20.0551 48.3936 20.2915 48.7821 20.2915C49.1123 20.2915 49.3065 20.2127 49.4813 20.0945V21.5323C49.2094 21.7687 48.7432 21.9262 48.1799 21.9262C47.3447 21.9262 46.6649 21.4732 46.4901 20.6066C46.0433 21.2369 45.111 22.0247 43.2269 22.0247ZM41.5565 18.9719C41.5565 19.9567 42.4306 20.4687 43.5571 20.4687C45.2081 20.4687 46.4318 19.5233 46.4318 18.1053V16.4705C46.2376 16.7069 45.5966 16.8841 44.9362 17.0023L43.2852 17.3174C42.1004 17.5538 41.5565 18.0659 41.5565 18.9719Z" fill="url(#paint3_linear_50483_13705)"/>
<path d="M34.3842 21.7292V11.5859H36.0934V13.2797C36.579 12.0783 37.4531 11.3692 38.8322 11.3692C39.1235 11.3692 39.4149 11.4283 39.5702 11.4677V13.2797C39.4149 13.2403 39.0847 13.1812 38.7545 13.1812C37.0452 13.1812 36.1323 14.5402 36.1323 16.7068V21.7292H34.3842Z" fill="#F0EFFF"/>
<path d="M34.3842 21.7292V11.5859H36.0934V13.2797C36.579 12.0783 37.4531 11.3692 38.8322 11.3692C39.1235 11.3692 39.4149 11.4283 39.5702 11.4677V13.2797C39.4149 13.2403 39.0847 13.1812 38.7545 13.1812C37.0452 13.1812 36.1323 14.5402 36.1323 16.7068V21.7292H34.3842Z" fill="url(#paint4_linear_50483_13705)"/>
<path d="M24.6809 11.586V21.7292H26.429V18.44L28.0994 16.825L31.5763 21.7292H33.6157L29.2843 15.6038L33.3826 11.5859H31.1295L26.429 16.2341V11.586H24.6809Z" fill="#F0EFFF"/>
<path d="M24.6809 11.586V21.7292H26.429V18.44L28.0994 16.825L31.5763 21.7292H33.6157L29.2843 15.6038L33.3826 11.5859H31.1295L26.429 16.2341V11.586H24.6809Z" fill="url(#paint5_linear_50483_13705)"/>
<path d="M15.7437 11.2905C12.0191 11.2905 9 14.3492 9 18.1222V21.0499C9 21.5884 9.43085 22.0247 9.9627 22.0247C10.4946 22.0247 10.9286 21.5884 10.9286 21.0499V18.1222C10.9286 17.5821 11.3578 17.1458 11.8913 17.1458C12.4231 17.1458 12.854 17.5821 12.854 18.1222V21.0499C12.854 21.5884 13.2848 22.0247 13.8167 22.0247C14.3501 22.0247 14.781 21.5884 14.781 21.0499V18.1222C14.781 17.5821 15.2118 17.1458 15.7437 17.1458C16.2771 17.1458 16.7095 17.5821 16.7095 18.1222V21.0499C16.7095 21.5884 17.1404 22.0247 17.6722 22.0247C18.2041 22.0247 18.6349 21.5884 18.6349 21.0499V18.1222C18.6349 17.5821 19.0658 17.1458 19.6008 17.1458C20.1326 17.1458 20.5635 17.5821 20.5635 18.1222V21.0499C20.5635 21.5884 20.9943 22.0247 21.5278 22.0247C22.0596 22.0247 22.4905 21.5884 22.4905 21.0499V18.1222C22.4905 14.3492 19.4698 11.2905 15.7437 11.2905Z" fill="#F0EFFF"/>
<path d="M15.7437 11.2905C12.0191 11.2905 9 14.3492 9 18.1222V21.0499C9 21.5884 9.43085 22.0247 9.9627 22.0247C10.4946 22.0247 10.9286 21.5884 10.9286 21.0499V18.1222C10.9286 17.5821 11.3578 17.1458 11.8913 17.1458C12.4231 17.1458 12.854 17.5821 12.854 18.1222V21.0499C12.854 21.5884 13.2848 22.0247 13.8167 22.0247C14.3501 22.0247 14.781 21.5884 14.781 21.0499V18.1222C14.781 17.5821 15.2118 17.1458 15.7437 17.1458C16.2771 17.1458 16.7095 17.5821 16.7095 18.1222V21.0499C16.7095 21.5884 17.1404 22.0247 17.6722 22.0247C18.2041 22.0247 18.6349 21.5884 18.6349 21.0499V18.1222C18.6349 17.5821 19.0658 17.1458 19.6008 17.1458C20.1326 17.1458 20.5635 17.5821 20.5635 18.1222V21.0499C20.5635 21.5884 20.9943 22.0247 21.5278 22.0247C22.0596 22.0247 22.4905 21.5884 22.4905 21.0499V18.1222C22.4905 14.3492 19.4698 11.2905 15.7437 11.2905Z" fill="url(#paint6_linear_50483_13705)"/>
<path d="M87.6543 15.4467C87.6543 16.2402 87.0863 16.5377 86.4551 16.5377H85.2559V14.3647H86.4551C87.0863 14.3647 87.6543 14.6532 87.6543 15.4467Z" fill="#F0EFFF"/>
<path d="M87.6543 15.4467C87.6543 16.2402 87.0863 16.5377 86.4551 16.5377H85.2559V14.3647H86.4551C87.0863 14.3647 87.6543 14.6532 87.6543 15.4467Z" fill="url(#paint7_linear_50483_13705)"/>
<path d="M93.281 15.3836C93.281 16.0418 92.8482 16.4385 92.1358 16.4385H90.8825V14.3647H92.1358C92.8482 14.3647 93.281 14.7163 93.281 15.3836Z" fill="#F0EFFF"/>
<path d="M93.281 15.3836C93.281 16.0418 92.8482 16.4385 92.1358 16.4385H90.8825V14.3647H92.1358C92.8482 14.3647 93.281 14.7163 93.281 15.3836Z" fill="url(#paint8_linear_50483_13705)"/>
<path d="M100.854 16.6369C100.854 18.2779 99.8893 19.0624 98.7532 19.0624C97.6081 19.0624 96.6523 18.2869 96.6523 16.6459V16.6369C96.6523 14.9868 97.6081 14.2024 98.7532 14.2024C99.8893 14.2024 100.854 14.9868 100.854 16.6279V16.6369Z" fill="#F0EFFF"/>
<path d="M100.854 16.6369C100.854 18.2779 99.8893 19.0624 98.7532 19.0624C97.6081 19.0624 96.6523 18.2869 96.6523 16.6459V16.6369C96.6523 14.9868 97.6081 14.2024 98.7532 14.2024C99.8893 14.2024 100.854 14.9868 100.854 16.6279V16.6369Z" fill="url(#paint9_linear_50483_13705)"/>
<path fill-rule="evenodd" clip-rule="evenodd" d="M83.1853 11.2905C82.2041 11.2905 81.4088 12.0859 81.4088 13.067V20.2482C81.4088 21.2293 82.2041 22.0247 83.1853 22.0247H102.442C103.423 22.0247 104.219 21.2293 104.219 20.2482V13.067C104.219 12.0859 103.423 11.2905 102.442 11.2905H83.1853ZM84.1739 13.454V19.8108H85.2559V17.4394H86.5453C87.6904 17.4394 88.7724 16.7812 88.7724 15.4377C88.7724 14.1032 87.6904 13.454 86.5453 13.454H84.1739ZM89.8005 13.454V19.8108H90.8825V17.2771H91.9736C92.6318 17.2771 92.9383 17.4935 93.0916 18.1246L93.3351 19.1255C93.4162 19.4591 93.4884 19.7026 93.5244 19.8108H94.6876C94.6064 19.6304 94.5253 19.3329 94.4622 19.0985L94.1556 17.8902C94.0294 17.3943 93.7769 16.9976 93.0465 16.8803V16.7902C93.9753 16.5648 94.399 15.9156 94.399 15.1942C94.399 14.0762 93.5695 13.454 92.244 13.454H89.8005ZM95.5342 16.6369C95.5342 18.5484 96.8867 19.946 98.7532 19.946C100.611 19.946 101.972 18.5574 101.972 16.6459V16.6369C101.972 14.7163 100.611 13.3187 98.7532 13.3187C96.8867 13.3187 95.5342 14.7073 95.5342 16.6279V16.6369Z" fill="#F0EFFF"/>
<path fill-rule="evenodd" clip-rule="evenodd" d="M83.1853 11.2905C82.2041 11.2905 81.4088 12.0859 81.4088 13.067V20.2482C81.4088 21.2293 82.2041 22.0247 83.1853 22.0247H102.442C103.423 22.0247 104.219 21.2293 104.219 20.2482V13.067C104.219 12.0859 103.423 11.2905 102.442 11.2905H83.1853ZM84.1739 13.454V19.8108H85.2559V17.4394H86.5453C87.6904 17.4394 88.7724 16.7812 88.7724 15.4377C88.7724 14.1032 87.6904 13.454 86.5453 13.454H84.1739ZM89.8005 13.454V19.8108H90.8825V17.2771H91.9736C92.6318 17.2771 92.9383 17.4935 93.0916 18.1246L93.3351 19.1255C93.4162 19.4591 93.4884 19.7026 93.5244 19.8108H94.6876C94.6064 19.6304 94.5253 19.3329 94.4622 19.0985L94.1556 17.8902C94.0294 17.3943 93.7769 16.9976 93.0465 16.8803V16.7902C93.9753 16.5648 94.399 15.9156 94.399 15.1942C94.399 14.0762 93.5695 13.454 92.244 13.454H89.8005ZM95.5342 16.6369C95.5342 18.5484 96.8867 19.946 98.7532 19.946C100.611 19.946 101.972 18.5574 101.972 16.6459V16.6369C101.972 14.7163 100.611 13.3187 98.7532 13.3187C96.8867 13.3187 95.5342 14.7073 95.5342 16.6279V16.6369Z" fill="url(#paint10_linear_50483_13705)"/>
</g>
<defs>
<filter id="filter0_d_50483_13705" x="4.54775" y="6.83827" width="104.123" height="19.6386" filterUnits="userSpaceOnUse" color-interpolation-filters="sRGB">
<feFlood flood-opacity="0" result="BackgroundImageFix"/>
<feColorMatrix in="SourceAlpha" type="matrix" values="0 0 0 0 0 0 0 0 0 0 0 0 0 0 0 0 0 0 127 0" result="hardAlpha"/>
<feOffset/>
<feGaussianBlur stdDeviation="2.22613"/>
<feComposite in2="hardAlpha" operator="out"/>
<feColorMatrix type="matrix" values="0 0 0 0 0.458824 0 0 0 0 0.219608 0 0 0 0 0.960784 0 0 0 0.3 0"/>
<feBlend mode="normal" in2="BackgroundImageFix" result="effect1_dropShadow_50483_13705"/>
<feBlend mode="normal" in="SourceGraphic" in2="effect1_dropShadow_50483_13705" result="shape"/>
</filter>
<linearGradient id="paint0_linear_50483_13705" x1="9.00001" y1="22.0247" x2="10.1184" y2="5.07994" gradientUnits="userSpaceOnUse">
<stop offset="0.22" stop-color="#F0EFFF"/>
<stop offset="1" stop-color="#7132F5"/>
</linearGradient>
<linearGradient id="paint1_linear_50483_13705" x1="9.00001" y1="22.0247" x2="10.1184" y2="5.07994" gradientUnits="userSpaceOnUse">
<stop offset="0.22" stop-color="#F0EFFF"/>
<stop offset="1" stop-color="#7132F5"/>
</linearGradient>
<linearGradient id="paint2_linear_50483_13705" x1="9.00001" y1="22.0247" x2="10.1184" y2="5.07994" gradientUnits="userSpaceOnUse">
<stop offset="0.22" stop-color="#F0EFFF"/>
<stop offset="1" stop-color="#7132F5"/>
</linearGradient>
<linearGradient id="paint3_linear_50483_13705" x1="9.00001" y1="22.0247" x2="10.1184" y2="5.07994" gradientUnits="userSpaceOnUse">
<stop offset="0.22" stop-color="#F0EFFF"/>
<stop offset="1" stop-color="#7132F5"/>
</linearGradient>
<linearGradient id="paint4_linear_50483_13705" x1="9.00001" y1="22.0247" x2="10.1184" y2="5.07994" gradientUnits="userSpaceOnUse">
<stop offset="0.22" stop-color="#F0EFFF"/>
<stop offset="1" stop-color="#7132F5"/>
</linearGradient>
<linearGradient id="paint5_linear_50483_13705" x1="9.00001" y1="22.0247" x2="10.1184" y2="5.07994" gradientUnits="userSpaceOnUse">
<stop offset="0.22" stop-color="#F0EFFF"/>
<stop offset="1" stop-color="#7132F5"/>
</linearGradient>
<linearGradient id="paint6_linear_50483_13705" x1="9.00001" y1="22.0247" x2="10.1184" y2="5.07994" gradientUnits="userSpaceOnUse">
<stop offset="0.22" stop-color="#F0EFFF"/>
<stop offset="1" stop-color="#7132F5"/>
</linearGradient>
<linearGradient id="paint7_linear_50483_13705" x1="9.00001" y1="22.0247" x2="10.1184" y2="5.07994" gradientUnits="userSpaceOnUse">
<stop offset="0.22" stop-color="#F0EFFF"/>
<stop offset="1" stop-color="#7132F5"/>
</linearGradient>
<linearGradient id="paint8_linear_50483_13705" x1="9.00001" y1="22.0247" x2="10.1184" y2="5.07994" gradientUnits="userSpaceOnUse">
<stop offset="0.22" stop-color="#F0EFFF"/>
<stop offset="1" stop-color="#7132F5"/>
</linearGradient>
<linearGradient id="paint9_linear_50483_13705" x1="9.00001" y1="22.0247" x2="10.1184" y2="5.07994" gradientUnits="userSpaceOnUse">
<stop offset="0.22" stop-color="#F0EFFF"/>
<stop offset="1" stop-color="#7132F5"/>
</linearGradient>
<linearGradient id="paint10_linear_50483_13705" x1="9.00001" y1="22.0247" x2="10.1184" y2="5.07994" gradientUnits="userSpaceOnUse">
<stop offset="0.22" stop-color="#F0EFFF"/>
<stop offset="1" stop-color="#7132F5"/>
</linearGradient>
</defs>
</svg>
