<svg width="320" height="51" viewBox="0 0 320 51" fill="none" xmlns="http://www.w3.org/2000/svg">
<g clip-path="url(#clip0_50486_9337)">
<mask id="mask0_50486_9337" style="mask-type:alpha" maskUnits="userSpaceOnUse" x="244" y="-149" width="337" height="367">
<rect x="244.098" y="-104.126" width="290.462" height="325.729" transform="rotate(-8.72859 244.098 -104.126)" fill="#D9D9D9"/>
</mask>
<g mask="url(#mask0_50486_9337)">
<g filter="url(#filter0_f_50486_9337)">
<path d="M244.034 114.951L217.642 -56.9493C271.375 18.1068 362.741 56.5812 453.979 42.5731L546.512 28.3663L554.382 79.6287L244.034 114.951Z" fill="#7132F5"/>
</g>
<g filter="url(#filter1_f_50486_9337)">
<path d="M279.223 119.494L271.204 67.2691C286.605 90.4561 312.02 105.044 339.81 106.647L356.593 107.615L279.223 119.494Z" fill="#F0EFFF"/>
</g>
<g filter="url(#filter2_f_50486_9337)">
<path d="M266.82 142.147L241.407 -23.3773C287.549 53.2226 377.723 91.4565 464.861 71.3679L536.908 54.7585L266.82 142.147Z" fill="#F9E0FE"/>
</g>
</g>
<mask id="mask1_50486_9337" style="mask-type:alpha" maskUnits="userSpaceOnUse" x="-43" y="-105" width="337" height="367">
<rect width="290.462" height="325.729" transform="matrix(-0.988418 0.151754 0.151754 0.988418 244.098 -104.126)" fill="#D9D9D9"/>
</mask>
<g mask="url(#mask1_50486_9337)">
<g filter="url(#filter3_f_50486_9337)">
<path d="M309.877 104.841L283.485 -67.0588C254.743 20.6599 179.128 84.7712 87.8895 98.7792L-4.64335 112.986L3.22706 164.248L309.877 104.841Z" fill="#7132F5"/>
</g>
<g filter="url(#filter4_f_50486_9337)">
<path d="M277.673 119.732L269.655 67.5065C261.919 94.2457 242.051 115.786 216.023 125.652L200.303 131.61L277.673 119.732Z" fill="#F0EFFF"/>
</g>
<g filter="url(#filter5_f_50486_9337)">
<path d="M296.3 137.621L270.887 -27.9038C249.849 59.0105 175.298 122.535 86.1465 129.513L12.4354 135.282L296.3 137.621Z" fill="#F9E0FE"/>
</g>
</g>
<g filter="url(#filter6_f_50486_9337)">
<ellipse cx="272.997" cy="86.9382" rx="18.9577" ry="96.7276" transform="rotate(-8.72859 272.997 86.9382)" fill="#F9E0FE"/>
</g>
<g filter="url(#filter7_f_50486_9337)">
<ellipse cx="253.865" cy="-30.0058" rx="20.1155" ry="28.7948" transform="rotate(-8.72859 253.865 -30.0058)" fill="#0C0713"/>
</g>
</g>
<defs>
<filter id="filter0_f_50486_9337" x="194.159" y="-80.4323" width="383.707" height="218.866" filterUnits="userSpaceOnUse" color-interpolation-filters="sRGB">
<feFlood flood-opacity="0" result="BackgroundImageFix"/>
<feBlend mode="normal" in="SourceGraphic" in2="BackgroundImageFix" result="shape"/>
<feGaussianBlur stdDeviation="11.7415" result="effect1_foregroundBlur_50486_9337"/>
</filter>
<filter id="filter1_f_50486_9337" x="247.721" y="43.786" width="132.355" height="99.1912" filterUnits="userSpaceOnUse" color-interpolation-filters="sRGB">
<feFlood flood-opacity="0" result="BackgroundImageFix"/>
<feBlend mode="normal" in="SourceGraphic" in2="BackgroundImageFix" result="shape"/>
<feGaussianBlur stdDeviation="11.7415" result="effect1_foregroundBlur_50486_9337"/>
</filter>
<filter id="filter2_f_50486_9337" x="207.119" y="-57.6646" width="364.076" height="234.099" filterUnits="userSpaceOnUse" color-interpolation-filters="sRGB">
<feFlood flood-opacity="0" result="BackgroundImageFix"/>
<feBlend mode="normal" in="SourceGraphic" in2="BackgroundImageFix" result="shape"/>
<feGaussianBlur stdDeviation="17.1436" result="effect1_foregroundBlur_50486_9337"/>
</filter>
<filter id="filter3_f_50486_9337" x="-28.1264" y="-90.5419" width="361.487" height="278.273" filterUnits="userSpaceOnUse" color-interpolation-filters="sRGB">
<feFlood flood-opacity="0" result="BackgroundImageFix"/>
<feBlend mode="normal" in="SourceGraphic" in2="BackgroundImageFix" result="shape"/>
<feGaussianBlur stdDeviation="11.7415" result="effect1_foregroundBlur_50486_9337"/>
</filter>
<filter id="filter4_f_50486_9337" x="176.82" y="44.0235" width="124.337" height="111.07" filterUnits="userSpaceOnUse" color-interpolation-filters="sRGB">
<feFlood flood-opacity="0" result="BackgroundImageFix"/>
<feBlend mode="normal" in="SourceGraphic" in2="BackgroundImageFix" result="shape"/>
<feGaussianBlur stdDeviation="11.7415" result="effect1_foregroundBlur_50486_9337"/>
</filter>
<filter id="filter5_f_50486_9337" x="-21.8519" y="-62.191" width="352.439" height="234.099" filterUnits="userSpaceOnUse" color-interpolation-filters="sRGB">
<feFlood flood-opacity="0" result="BackgroundImageFix"/>
<feBlend mode="normal" in="SourceGraphic" in2="BackgroundImageFix" result="shape"/>
<feGaussianBlur stdDeviation="17.1436" result="effect1_foregroundBlur_50486_9337"/>
</filter>
<filter id="filter6_f_50486_9337" x="214.905" y="-43.0006" width="116.183" height="259.877" filterUnits="userSpaceOnUse" color-interpolation-filters="sRGB">
<feFlood flood-opacity="0" result="BackgroundImageFix"/>
<feBlend mode="normal" in="SourceGraphic" in2="BackgroundImageFix" result="shape"/>
<feGaussianBlur stdDeviation="17.1436" result="effect1_foregroundBlur_50486_9337"/>
</filter>
<filter id="filter7_f_50486_9337" x="207.976" y="-84.1601" width="91.7775" height="108.309" filterUnits="userSpaceOnUse" color-interpolation-filters="sRGB">
<feFlood flood-opacity="0" result="BackgroundImageFix"/>
<feBlend mode="normal" in="SourceGraphic" in2="BackgroundImageFix" result="shape"/>
<feGaussianBlur stdDeviation="12.7637" result="effect1_foregroundBlur_50486_9337"/>
</filter>
<clipPath id="clip0_50486_9337">
<rect width="320" height="50" fill="white" transform="translate(0 0.848877)"/>
</clipPath>
</defs>
</svg>
