<svg width="320" height="51" viewBox="0 0 320 51" fill="none" xmlns="http://www.w3.org/2000/svg">
<g filter="url(#filter0_d_50486_9337)">
<path d="M69.1004 18.7293V8.58596H70.8096V9.88588C71.3729 8.9011 72.5577 8.29053 73.898 8.29053C76.0928 8.29053 77.6856 9.47227 77.6856 12.5251V18.7293H75.9374V12.7812C75.9374 10.8904 75.0245 9.96467 73.5095 9.96467C71.8002 9.96467 70.8485 11.1464 70.8485 12.8402V18.7293H69.1004Z" fill="#F0EFFF"/>
<path d="M69.1004 18.7293V8.58596H70.8096V9.88588C71.3729 8.9011 72.5577 8.29053 73.898 8.29053C76.0928 8.29053 77.6856 9.47227 77.6856 12.5251V18.7293H75.9374V12.7812C75.9374 10.8904 75.0245 9.96467 73.5095 9.96467C71.8002 9.96467 70.8485 11.1464 70.8485 12.8402V18.7293H69.1004Z" fill="url(#paint0_linear_50486_9337)"/>
<path d="M62.9649 19.0247C60.1096 19.0247 57.9148 17.1536 57.9148 13.6084C57.9148 10.2995 60.0319 8.29053 62.8095 8.29053C65.9755 8.29053 67.7042 10.5358 67.7042 13.0766C67.7042 13.4902 67.6848 13.9235 67.6265 14.2386H59.7406C59.8571 16.2082 61.1391 17.4294 62.9843 17.4294C64.4411 17.4294 65.1986 16.9567 65.7036 15.7749H67.5294C66.9856 17.8233 65.2957 19.0247 62.9649 19.0247ZM59.7406 12.7615H65.859C65.7813 10.8707 64.5188 9.84649 62.8095 9.84649C61.0031 9.84649 59.896 10.9495 59.7406 12.7615Z" fill="#F0EFFF"/>
<path d="M62.9649 19.0247C60.1096 19.0247 57.9148 17.1536 57.9148 13.6084C57.9148 10.2995 60.0319 8.29053 62.8095 8.29053C65.9755 8.29053 67.7042 10.5358 67.7042 13.0766C67.7042 13.4902 67.6848 13.9235 67.6265 14.2386H59.7406C59.8571 16.2082 61.1391 17.4294 62.9843 17.4294C64.4411 17.4294 65.1986 16.9567 65.7036 15.7749H67.5294C66.9856 17.8233 65.2957 19.0247 62.9649 19.0247ZM59.7406 12.7615H65.859C65.7813 10.8707 64.5188 9.84649 62.8095 9.84649C61.0031 9.84649 59.896 10.9495 59.7406 12.7615Z" fill="url(#paint1_linear_50486_9337)"/>
<path d="M49.3858 8.58597V18.7294H51.1339V15.4402L52.8043 13.8251L56.2811 18.7294H58.3206L53.9892 12.604L58.0875 8.58605H55.8344L51.1339 13.2342V8.58597H49.3858Z" fill="#F0EFFF"/>
<path d="M49.3858 8.58597V18.7294H51.1339V15.4402L52.8043 13.8251L56.2811 18.7294H58.3206L53.9892 12.604L58.0875 8.58605H55.8344L51.1339 13.2342V8.58597H49.3858Z" fill="url(#paint2_linear_50486_9337)"/>
<path d="M42.2269 19.0247C40.2651 19.0247 38.7501 17.9217 38.7501 16.031C38.7501 14.0811 40.0903 13.2342 41.6636 12.9387L44.1499 12.466C44.9462 12.3085 45.4318 12.0524 45.4318 11.2646C45.4318 10.4177 44.7131 9.84649 43.2952 9.84649C42.0133 9.84649 40.9644 10.3783 40.8673 11.6191H39.022C39.0609 9.53136 40.9255 8.29053 43.3146 8.29053C46.0728 8.29053 47.1799 9.70862 47.1799 11.3237V16.6021C47.1799 17.0551 47.3936 17.2915 47.7821 17.2915C48.1123 17.2915 48.3065 17.2127 48.4813 17.0945V18.5323C48.2094 18.7687 47.7432 18.9262 47.1799 18.9262C46.3447 18.9262 45.6649 18.4732 45.4901 17.6066C45.0433 18.2369 44.111 19.0247 42.2269 19.0247ZM40.5565 15.9719C40.5565 16.9567 41.4306 17.4687 42.5571 17.4687C44.2081 17.4687 45.4318 16.5233 45.4318 15.1053V13.4705C45.2376 13.7069 44.5966 13.8841 43.9362 14.0023L42.2852 14.3174C41.1004 14.5538 40.5565 15.0659 40.5565 15.9719Z" fill="#F0EFFF"/>
<path d="M42.2269 19.0247C40.2651 19.0247 38.7501 17.9217 38.7501 16.031C38.7501 14.0811 40.0903 13.2342 41.6636 12.9387L44.1499 12.466C44.9462 12.3085 45.4318 12.0524 45.4318 11.2646C45.4318 10.4177 44.7131 9.84649 43.2952 9.84649C42.0133 9.84649 40.9644 10.3783 40.8673 11.6191H39.022C39.0609 9.53136 40.9255 8.29053 43.3146 8.29053C46.0728 8.29053 47.1799 9.70862 47.1799 11.3237V16.6021C47.1799 17.0551 47.3936 17.2915 47.7821 17.2915C48.1123 17.2915 48.3065 17.2127 48.4813 17.0945V18.5323C48.2094 18.7687 47.7432 18.9262 47.1799 18.9262C46.3447 18.9262 45.6649 18.4732 45.4901 17.6066C45.0433 18.2369 44.111 19.0247 42.2269 19.0247ZM40.5565 15.9719C40.5565 16.9567 41.4306 17.4687 42.5571 17.4687C44.2081 17.4687 45.4318 16.5233 45.4318 15.1053V13.4705C45.2376 13.7069 44.5966 13.8841 43.9362 14.0023L42.2852 14.3174C41.1004 14.5538 40.5565 15.0659 40.5565 15.9719Z" fill="url(#paint3_linear_50486_9337)"/>
<path d="M33.3842 18.7292V8.58586H35.0934V10.2797C35.579 9.07826 36.4531 8.36921 37.8322 8.36921C38.1235 8.36921 38.4149 8.4283 38.5702 8.46769V10.2797C38.4149 10.2403 38.0847 10.1812 37.7545 10.1812C36.0452 10.1812 35.1323 11.5402 35.1323 13.7068V18.7292H33.3842Z" fill="#F0EFFF"/>
<path d="M33.3842 18.7292V8.58586H35.0934V10.2797C35.579 9.07826 36.4531 8.36921 37.8322 8.36921C38.1235 8.36921 38.4149 8.4283 38.5702 8.46769V10.2797C38.4149 10.2403 38.0847 10.1812 37.7545 10.1812C36.0452 10.1812 35.1323 11.5402 35.1323 13.7068V18.7292H33.3842Z" fill="url(#paint4_linear_50486_9337)"/>
<path d="M23.6809 8.58597V18.7292H25.429V15.44L27.0994 13.825L30.5763 18.7292H32.6157L28.2843 12.6038L32.3826 8.58589H30.1295L25.429 13.2341V8.58597H23.6809Z" fill="#F0EFFF"/>
<path d="M23.6809 8.58597V18.7292H25.429V15.44L27.0994 13.825L30.5763 18.7292H32.6157L28.2843 12.6038L32.3826 8.58589H30.1295L25.429 13.2341V8.58597H23.6809Z" fill="url(#paint5_linear_50486_9337)"/>
<path d="M14.7437 8.29053C11.0191 8.29053 8 11.3492 8 15.1222V18.0499C8 18.5884 8.43085 19.0247 8.9627 19.0247C9.49456 19.0247 9.92856 18.5884 9.92856 18.0499V15.1222C9.92856 14.5821 10.3578 14.1458 10.8913 14.1458C11.4231 14.1458 11.854 14.5821 11.854 15.1222V18.0499C11.854 18.5884 12.2848 19.0247 12.8167 19.0247C13.3501 19.0247 13.781 18.5884 13.781 18.0499V15.1222C13.781 14.5821 14.2118 14.1458 14.7437 14.1458C15.2771 14.1458 15.7095 14.5821 15.7095 15.1222V18.0499C15.7095 18.5884 16.1404 19.0247 16.6722 19.0247C17.2041 19.0247 17.6349 18.5884 17.6349 18.0499V15.1222C17.6349 14.5821 18.0658 14.1458 18.6008 14.1458C19.1326 14.1458 19.5635 14.5821 19.5635 15.1222V18.0499C19.5635 18.5884 19.9943 19.0247 20.5278 19.0247C21.0596 19.0247 21.4905 18.5884 21.4905 18.0499V15.1222C21.4905 11.3492 18.4698 8.29053 14.7437 8.29053Z" fill="#F0EFFF"/>
<path d="M14.7437 8.29053C11.0191 8.29053 8 11.3492 8 15.1222V18.0499C8 18.5884 8.43085 19.0247 8.9627 19.0247C9.49456 19.0247 9.92856 18.5884 9.92856 18.0499V15.1222C9.92856 14.5821 10.3578 14.1458 10.8913 14.1458C11.4231 14.1458 11.854 14.5821 11.854 15.1222V18.0499C11.854 18.5884 12.2848 19.0247 12.8167 19.0247C13.3501 19.0247 13.781 18.5884 13.781 18.0499V15.1222C13.781 14.5821 14.2118 14.1458 14.7437 14.1458C15.2771 14.1458 15.7095 14.5821 15.7095 15.1222V18.0499C15.7095 18.5884 16.1404 19.0247 16.6722 19.0247C17.2041 19.0247 17.6349 18.5884 17.6349 18.0499V15.1222C17.6349 14.5821 18.0658 14.1458 18.6008 14.1458C19.1326 14.1458 19.5635 14.5821 19.5635 15.1222V18.0499C19.5635 18.5884 19.9943 19.0247 20.5278 19.0247C21.0596 19.0247 21.4905 18.5884 21.4905 18.0499V15.1222C21.4905 11.3492 18.4698 8.29053 14.7437 8.29053Z" fill="url(#paint6_linear_50486_9337)"/>
<path d="M86.6543 12.4467C86.6543 13.2402 86.0863 13.5377 85.4551 13.5377H84.2559V11.3647H85.4551C86.0863 11.3647 86.6543 11.6532 86.6543 12.4467Z" fill="#F0EFFF"/>
<path d="M86.6543 12.4467C86.6543 13.2402 86.0863 13.5377 85.4551 13.5377H84.2559V11.3647H85.4551C86.0863 11.3647 86.6543 11.6532 86.6543 12.4467Z" fill="url(#paint7_linear_50486_9337)"/>
<path d="M92.281 12.3836C92.281 13.0418 91.8482 13.4385 91.1358 13.4385H89.8825V11.3647H91.1358C91.8482 11.3647 92.281 11.7163 92.281 12.3836Z" fill="#F0EFFF"/>
<path d="M92.281 12.3836C92.281 13.0418 91.8482 13.4385 91.1358 13.4385H89.8825V11.3647H91.1358C91.8482 11.3647 92.281 11.7163 92.281 12.3836Z" fill="url(#paint8_linear_50486_9337)"/>
<path d="M99.8541 13.6369C99.8541 15.2779 98.8893 16.0624 97.7532 16.0624C96.6081 16.0624 95.6523 15.2869 95.6523 13.6459V13.6369C95.6523 11.9868 96.6081 11.2024 97.7532 11.2024C98.8893 11.2024 99.8541 11.9868 99.8541 13.6279V13.6369Z" fill="#F0EFFF"/>
<path d="M99.8541 13.6369C99.8541 15.2779 98.8893 16.0624 97.7532 16.0624C96.6081 16.0624 95.6523 15.2869 95.6523 13.6459V13.6369C95.6523 11.9868 96.6081 11.2024 97.7532 11.2024C98.8893 11.2024 99.8541 11.9868 99.8541 13.6279V13.6369Z" fill="url(#paint9_linear_50486_9337)"/>
<path fill-rule="evenodd" clip-rule="evenodd" d="M82.1853 8.29053C81.2041 8.29053 80.4088 9.0859 80.4088 10.067V17.2482C80.4088 18.2293 81.2041 19.0247 82.1853 19.0247H101.442C102.423 19.0247 103.219 18.2293 103.219 17.2482V10.067C103.219 9.0859 102.423 8.29053 101.442 8.29053H82.1853ZM83.1739 10.454V16.8108H84.2559V14.4394H85.5453C86.6904 14.4394 87.7724 13.7812 87.7724 12.4377C87.7724 11.1032 86.6904 10.454 85.5453 10.454H83.1739ZM88.8005 10.454V16.8108H89.8825V14.2771H90.9736C91.6318 14.2771 91.9383 14.4935 92.0916 15.1246L92.3351 16.1255C92.4162 16.4591 92.4884 16.7026 92.5244 16.8108H93.6876C93.6064 16.6304 93.5253 16.3329 93.4622 16.0985L93.1556 14.8902C93.0294 14.3943 92.7769 13.9976 92.0465 13.8803V13.7902C92.9753 13.5648 93.399 12.9156 93.399 12.1942C93.399 11.0762 92.5695 10.454 91.244 10.454H88.8005ZM94.5342 13.6369C94.5342 15.5484 95.8867 16.946 97.7532 16.946C99.6106 16.946 100.972 15.5574 100.972 13.6459V13.6369C100.972 11.7163 99.6106 10.3187 97.7532 10.3187C95.8867 10.3187 94.5342 11.7073 94.5342 13.6279V13.6369Z" fill="#F0EFFF"/>
<path fill-rule="evenodd" clip-rule="evenodd" d="M82.1853 8.29053C81.2041 8.29053 80.4088 9.0859 80.4088 10.067V17.2482C80.4088 18.2293 81.2041 19.0247 82.1853 19.0247H101.442C102.423 19.0247 103.219 18.2293 103.219 17.2482V10.067C103.219 9.0859 102.423 8.29053 101.442 8.29053H82.1853ZM83.1739 10.454V16.8108H84.2559V14.4394H85.5453C86.6904 14.4394 87.7724 13.7812 87.7724 12.4377C87.7724 11.1032 86.6904 10.454 85.5453 10.454H83.1739ZM88.8005 10.454V16.8108H89.8825V14.2771H90.9736C91.6318 14.2771 91.9383 14.4935 92.0916 15.1246L92.3351 16.1255C92.4162 16.4591 92.4884 16.7026 92.5244 16.8108H93.6876C93.6064 16.6304 93.5253 16.3329 93.4622 16.0985L93.1556 14.8902C93.0294 14.3943 92.7769 13.9976 92.0465 13.8803V13.7902C92.9753 13.5648 93.399 12.9156 93.399 12.1942C93.399 11.0762 92.5695 10.454 91.244 10.454H88.8005ZM94.5342 13.6369C94.5342 15.5484 95.8867 16.946 97.7532 16.946C99.6106 16.946 100.972 15.5574 100.972 13.6459V13.6369C100.972 11.7163 99.6106 10.3187 97.7532 10.3187C95.8867 10.3187 94.5342 11.7073 94.5342 13.6279V13.6369Z" fill="url(#paint10_linear_50486_9337)"/>
</g>
<defs>
<filter id="filter0_d_50486_9337" x="3.54775" y="3.83827" width="104.123" height="19.6386" filterUnits="userSpaceOnUse" color-interpolation-filters="sRGB">
<feFlood flood-opacity="0" result="BackgroundImageFix"/>
<feColorMatrix in="SourceAlpha" type="matrix" values="0 0 0 0 0 0 0 0 0 0 0 0 0 0 0 0 0 0 127 0" result="hardAlpha"/>
<feOffset/>
<feGaussianBlur stdDeviation="2.22613"/>
<feComposite in2="hardAlpha" operator="out"/>
<feColorMatrix type="matrix" values="0 0 0 0 0.458824 0 0 0 0 0.219608 0 0 0 0 0.960784 0 0 0 0.3 0"/>
<feBlend mode="normal" in2="BackgroundImageFix" result="effect1_dropShadow_50486_9337"/>
<feBlend mode="normal" in="SourceGraphic" in2="effect1_dropShadow_50486_9337" result="shape"/>
</filter>
<linearGradient id="paint0_linear_50486_9337" x1="8.00001" y1="19.0247" x2="9.11836" y2="2.07994" gradientUnits="userSpaceOnUse">
<stop offset="0.22" stop-color="#F0EFFF"/>
<stop offset="1" stop-color="#7132F5"/>
</linearGradient>
<linearGradient id="paint1_linear_50486_9337" x1="8.00001" y1="19.0247" x2="9.11836" y2="2.07994" gradientUnits="userSpaceOnUse">
<stop offset="0.22" stop-color="#F0EFFF"/>
<stop offset="1" stop-color="#7132F5"/>
</linearGradient>
<linearGradient id="paint2_linear_50486_9337" x1="8.00001" y1="19.0247" x2="9.11836" y2="2.07994" gradientUnits="userSpaceOnUse">
<stop offset="0.22" stop-color="#F0EFFF"/>
<stop offset="1" stop-color="#7132F5"/>
</linearGradient>
<linearGradient id="paint3_linear_50486_9337" x1="8.00001" y1="19.0247" x2="9.11836" y2="2.07994" gradientUnits="userSpaceOnUse">
<stop offset="0.22" stop-color="#F0EFFF"/>
<stop offset="1" stop-color="#7132F5"/>
</linearGradient>
<linearGradient id="paint4_linear_50486_9337" x1="8.00001" y1="19.0247" x2="9.11836" y2="2.07994" gradientUnits="userSpaceOnUse">
<stop offset="0.22" stop-color="#F0EFFF"/>
<stop offset="1" stop-color="#7132F5"/>
</linearGradient>
<linearGradient id="paint5_linear_50486_9337" x1="8.00001" y1="19.0247" x2="9.11836" y2="2.07994" gradientUnits="userSpaceOnUse">
<stop offset="0.22" stop-color="#F0EFFF"/>
<stop offset="1" stop-color="#7132F5"/>
</linearGradient>
<linearGradient id="paint6_linear_50486_9337" x1="8.00001" y1="19.0247" x2="9.11836" y2="2.07994" gradientUnits="userSpaceOnUse">
<stop offset="0.22" stop-color="#F0EFFF"/>
<stop offset="1" stop-color="#7132F5"/>
</linearGradient>
<linearGradient id="paint7_linear_50486_9337" x1="8.00001" y1="19.0247" x2="9.11836" y2="2.07994" gradientUnits="userSpaceOnUse">
<stop offset="0.22" stop-color="#F0EFFF"/>
<stop offset="1" stop-color="#7132F5"/>
</linearGradient>
<linearGradient id="paint8_linear_50486_9337" x1="8.00001" y1="19.0247" x2="9.11836" y2="2.07994" gradientUnits="userSpaceOnUse">
<stop offset="0.22" stop-color="#F0EFFF"/>
<stop offset="1" stop-color="#7132F5"/>
</linearGradient>
<linearGradient id="paint9_linear_50486_9337" x1="8.00001" y1="19.0247" x2="9.11836" y2="2.07994" gradientUnits="userSpaceOnUse">
<stop offset="0.22" stop-color="#F0EFFF"/>
<stop offset="1" stop-color="#7132F5"/>
</linearGradient>
<linearGradient id="paint10_linear_50486_9337" x1="8.00001" y1="19.0247" x2="9.11836" y2="2.07994" gradientUnits="userSpaceOnUse">
<stop offset="0.22" stop-color="#F0EFFF"/>
<stop offset="1" stop-color="#7132F5"/>
</linearGradient>
</defs>
</svg>
