<svg width="729" height="91" viewBox="0 0 729 91" fill="none" xmlns="http://www.w3.org/2000/svg">
<g filter="url(#filter0_d_50483_13327)">
<path d="M649.63 34.1216V13.5978H653.088V16.228C654.228 14.2354 656.625 13 659.337 13C663.778 13 667.001 15.3911 667.001 21.5682V34.1216H663.464V22.0863C663.464 18.2605 661.617 16.3874 658.551 16.3874C655.093 16.3874 653.167 18.7786 653.167 22.2058V34.1216H649.63Z" fill="#F0EFFF"/>
<path d="M649.63 34.1216V13.5978H653.088V16.228C654.228 14.2354 656.625 13 659.337 13C663.778 13 667.001 15.3911 667.001 21.5682V34.1216H663.464V22.0863C663.464 18.2605 661.617 16.3874 658.551 16.3874C655.093 16.3874 653.167 18.7786 653.167 22.2058V34.1216H649.63Z" fill="url(#paint0_linear_50483_13327)"/>
<path d="M637.215 34.7194C631.438 34.7194 626.997 30.9335 626.997 23.7601C626.997 17.0649 631.281 13 636.901 13C643.307 13 646.805 17.5431 646.805 22.6841C646.805 23.521 646.765 24.3977 646.648 25.0353H630.691C630.927 29.0205 633.521 31.4914 637.255 31.4914C640.202 31.4914 641.735 30.5349 642.757 28.1438H646.451C645.351 32.2884 641.931 34.7194 637.215 34.7194ZM630.691 22.0464H643.071C642.914 18.2206 640.359 16.1483 636.901 16.1483C633.246 16.1483 631.006 18.38 630.691 22.0464Z" fill="#F0EFFF"/>
<path d="M637.215 34.7194C631.438 34.7194 626.997 30.9335 626.997 23.7601C626.997 17.0649 631.281 13 636.901 13C643.307 13 646.805 17.5431 646.805 22.6841C646.805 23.521 646.765 24.3977 646.648 25.0353H630.691C630.927 29.0205 633.521 31.4914 637.255 31.4914C640.202 31.4914 641.735 30.5349 642.757 28.1438H646.451C645.351 32.2884 641.931 34.7194 637.215 34.7194ZM630.691 22.0464H643.071C642.914 18.2206 640.359 16.1483 636.901 16.1483C633.246 16.1483 631.006 18.38 630.691 22.0464Z" fill="url(#paint1_linear_50483_13327)"/>
<path d="M609.739 13.5978V34.1218H613.277V27.4665L616.657 24.1986L623.691 34.1218H627.818L619.054 21.7278L627.346 13.5979H622.788L613.277 23.003V13.5978H609.739Z" fill="#F0EFFF"/>
<path d="M609.739 13.5978V34.1218H613.277V27.4665L616.657 24.1986L623.691 34.1218H627.818L619.054 21.7278L627.346 13.5979H622.788L613.277 23.003V13.5978H609.739Z" fill="url(#paint2_linear_50483_13327)"/>
<path d="M595.254 34.7194C591.285 34.7194 588.219 32.4877 588.219 28.6619C588.219 24.7165 590.931 23.0029 594.115 22.4051L599.145 21.4486C600.757 21.1298 601.739 20.6118 601.739 19.0177C601.739 17.304 600.285 16.1483 597.416 16.1483C594.822 16.1483 592.7 17.2243 592.503 19.735H588.77C588.848 15.5107 592.621 13 597.455 13C603.036 13 605.276 15.8694 605.276 19.1372V29.8176C605.276 30.7342 605.708 31.2124 606.495 31.2124C607.163 31.2124 607.556 31.053 607.909 30.8139V33.7231C607.359 34.2013 606.416 34.5201 605.276 34.5201C603.586 34.5201 602.211 33.6035 601.857 31.85C600.953 33.1253 599.067 34.7194 595.254 34.7194ZM591.874 28.5423C591.874 30.5349 593.643 31.5711 595.922 31.5711C599.263 31.5711 601.739 29.6582 601.739 26.7888V23.4811C601.346 23.9593 600.049 24.318 598.713 24.5571L595.372 25.1947C592.975 25.673 591.874 26.7091 591.874 28.5423Z" fill="#F0EFFF"/>
<path d="M595.254 34.7194C591.285 34.7194 588.219 32.4877 588.219 28.6619C588.219 24.7165 590.931 23.0029 594.115 22.4051L599.145 21.4486C600.757 21.1298 601.739 20.6118 601.739 19.0177C601.739 17.304 600.285 16.1483 597.416 16.1483C594.822 16.1483 592.7 17.2243 592.503 19.735H588.77C588.848 15.5107 592.621 13 597.455 13C603.036 13 605.276 15.8694 605.276 19.1372V29.8176C605.276 30.7342 605.708 31.2124 606.495 31.2124C607.163 31.2124 607.556 31.053 607.909 30.8139V33.7231C607.359 34.2013 606.416 34.5201 605.276 34.5201C603.586 34.5201 602.211 33.6035 601.857 31.85C600.953 33.1253 599.067 34.7194 595.254 34.7194ZM591.874 28.5423C591.874 30.5349 593.643 31.5711 595.922 31.5711C599.263 31.5711 601.739 29.6582 601.739 26.7888V23.4811C601.346 23.9593 600.049 24.318 598.713 24.5571L595.372 25.1947C592.975 25.673 591.874 26.7091 591.874 28.5423Z" fill="url(#paint3_linear_50483_13327)"/>
<path d="M577.362 34.1214V13.5976H580.821V17.0249C581.803 14.5939 583.572 13.1592 586.362 13.1592C586.952 13.1592 587.541 13.2788 587.855 13.3585V17.0249C587.541 16.9452 586.873 16.8256 586.205 16.8256C582.746 16.8256 580.899 19.5754 580.899 23.9591V34.1214H577.362Z" fill="#F0EFFF"/>
<path d="M577.362 34.1214V13.5976H580.821V17.0249C581.803 14.5939 583.572 13.1592 586.362 13.1592C586.952 13.1592 587.541 13.2788 587.855 13.3585V17.0249C587.541 16.9452 586.873 16.8256 586.205 16.8256C582.746 16.8256 580.899 19.5754 580.899 23.9591V34.1214H577.362Z" fill="url(#paint4_linear_50483_13327)"/>
<path d="M557.729 13.5978V34.1215H561.266V27.4662L564.646 24.1983L571.681 34.1215H575.807L567.043 21.7275L575.336 13.5976H570.777L561.266 23.0027V13.5978H557.729Z" fill="#F0EFFF"/>
<path d="M557.729 13.5978V34.1215H561.266V27.4662L564.646 24.1983L571.681 34.1215H575.807L567.043 21.7275L575.336 13.5976H570.777L561.266 23.0027V13.5978H557.729Z" fill="url(#paint5_linear_50483_13327)"/>
<path d="M539.645 13C532.109 13 526 19.1889 526 26.8232V32.747C526 33.8366 526.872 34.7194 527.948 34.7194C529.024 34.7194 529.902 33.8366 529.902 32.747V26.8232C529.902 25.7303 530.771 24.8475 531.85 24.8475C532.926 24.8475 533.798 25.7303 533.798 26.8232V32.747C533.798 33.8366 534.67 34.7194 535.746 34.7194C536.825 34.7194 537.697 33.8366 537.697 32.747V26.8232C537.697 25.7303 538.569 24.8475 539.645 24.8475C540.724 24.8475 541.599 25.7303 541.599 26.8232V32.747C541.599 33.8366 542.471 34.7194 543.547 34.7194C544.623 34.7194 545.495 33.8366 545.495 32.747V26.8232C545.495 25.7303 546.367 24.8475 547.449 24.8475C548.526 24.8475 549.397 25.7303 549.397 26.8232V32.747C549.397 33.8366 550.269 34.7194 551.349 34.7194C552.425 34.7194 553.296 33.8366 553.296 32.747V26.8232C553.296 19.1889 547.184 13 539.645 13Z" fill="#F0EFFF"/>
<path d="M539.645 13C532.109 13 526 19.1889 526 26.8232V32.747C526 33.8366 526.872 34.7194 527.948 34.7194C529.024 34.7194 529.902 33.8366 529.902 32.747V26.8232C529.902 25.7303 530.771 24.8475 531.85 24.8475C532.926 24.8475 533.798 25.7303 533.798 26.8232V32.747C533.798 33.8366 534.67 34.7194 535.746 34.7194C536.825 34.7194 537.697 33.8366 537.697 32.747V26.8232C537.697 25.7303 538.569 24.8475 539.645 24.8475C540.724 24.8475 541.599 25.7303 541.599 26.8232V32.747C541.599 33.8366 542.471 34.7194 543.547 34.7194C544.623 34.7194 545.495 33.8366 545.495 32.747V26.8232C545.495 25.7303 546.367 24.8475 547.449 24.8475C548.526 24.8475 549.397 25.7303 549.397 26.8232V32.747C549.397 33.8366 550.269 34.7194 551.349 34.7194C552.425 34.7194 553.296 33.8366 553.296 32.747V26.8232C553.296 19.1889 547.184 13 539.645 13Z" fill="url(#paint6_linear_50483_13327)"/>
<path d="M685.148 21.4095C685.148 23.015 683.999 23.6171 682.722 23.6171H680.295V19.2202H682.722C683.999 19.2202 685.148 19.804 685.148 21.4095Z" fill="#F0EFFF"/>
<path d="M685.148 21.4095C685.148 23.015 683.999 23.6171 682.722 23.6171H680.295V19.2202H682.722C683.999 19.2202 685.148 19.804 685.148 21.4095Z" fill="url(#paint7_linear_50483_13327)"/>
<path d="M696.533 21.2818C696.533 22.6136 695.657 23.4164 694.216 23.4164H691.68V19.2202H694.216C695.657 19.2202 696.533 19.9317 696.533 21.2818Z" fill="#F0EFFF"/>
<path d="M696.533 21.2818C696.533 22.6136 695.657 23.4164 694.216 23.4164H691.68V19.2202H694.216C695.657 19.2202 696.533 19.9317 696.533 21.2818Z" fill="url(#paint8_linear_50483_13327)"/>
<path d="M711.856 23.8178C711.856 27.1382 709.904 28.7255 707.605 28.7255C705.288 28.7255 703.355 27.1565 703.355 23.836V23.8178C703.355 20.4791 705.288 18.8918 707.605 18.8918C709.904 18.8918 711.856 20.4791 711.856 23.7995V23.8178Z" fill="#F0EFFF"/>
<path d="M711.856 23.8178C711.856 27.1382 709.904 28.7255 707.605 28.7255C705.288 28.7255 703.355 27.1565 703.355 23.836V23.8178C703.355 20.4791 705.288 18.8918 707.605 18.8918C709.904 18.8918 711.856 20.4791 711.856 23.7995V23.8178Z" fill="url(#paint9_linear_50483_13327)"/>
<path fill-rule="evenodd" clip-rule="evenodd" d="M676.106 13C674.12 13 672.511 14.6093 672.511 16.5946V31.1248C672.511 33.11 674.12 34.7194 676.106 34.7194H715.07C717.055 34.7194 718.665 33.11 718.665 31.1248V16.5946C718.665 14.6093 717.055 13 715.07 13H676.106ZM678.106 17.3775V30.2398H680.295V25.4415H682.904C685.221 25.4415 687.411 24.1097 687.411 21.3913C687.411 18.6911 685.221 17.3775 682.904 17.3775H678.106ZM689.491 17.3775V30.2398H691.68V25.1131H693.888C695.219 25.1131 695.84 25.551 696.15 26.8281L696.643 28.8532C696.807 29.5282 696.953 30.0208 697.026 30.2398H699.379C699.215 29.8749 699.051 29.2728 698.923 28.7985L698.303 26.3537C698.047 25.3503 697.536 24.5475 696.059 24.3104V24.1279C697.938 23.6718 698.795 22.3582 698.795 20.8987C698.795 18.6364 697.117 17.3775 694.435 17.3775H689.491ZM701.092 23.8178C701.092 27.6856 703.829 30.5134 707.605 30.5134C711.364 30.5134 714.119 27.7038 714.119 23.836V23.8178C714.119 19.9317 711.364 17.1039 707.605 17.1039C703.829 17.1039 701.092 19.9135 701.092 23.7995V23.8178Z" fill="#F0EFFF"/>
<path fill-rule="evenodd" clip-rule="evenodd" d="M676.106 13C674.12 13 672.511 14.6093 672.511 16.5946V31.1248C672.511 33.11 674.12 34.7194 676.106 34.7194H715.07C717.055 34.7194 718.665 33.11 718.665 31.1248V16.5946C718.665 14.6093 717.055 13 715.07 13H676.106ZM678.106 17.3775V30.2398H680.295V25.4415H682.904C685.221 25.4415 687.411 24.1097 687.411 21.3913C687.411 18.6911 685.221 17.3775 682.904 17.3775H678.106ZM689.491 17.3775V30.2398H691.68V25.1131H693.888C695.219 25.1131 695.84 25.551 696.15 26.8281L696.643 28.8532C696.807 29.5282 696.953 30.0208 697.026 30.2398H699.379C699.215 29.8749 699.051 29.2728 698.923 28.7985L698.303 26.3537C698.047 25.3503 697.536 24.5475 696.059 24.3104V24.1279C697.938 23.6718 698.795 22.3582 698.795 20.8987C698.795 18.6364 697.117 17.3775 694.435 17.3775H689.491ZM701.092 23.8178C701.092 27.6856 703.829 30.5134 707.605 30.5134C711.364 30.5134 714.119 27.7038 714.119 23.836V23.8178C714.119 19.9317 711.364 17.1039 707.605 17.1039C703.829 17.1039 701.092 19.9135 701.092 23.7995V23.8178Z" fill="url(#paint10_linear_50483_13327)"/>
</g>
<defs>
<filter id="filter0_d_50483_13327" x="516.991" y="3.99137" width="210.682" height="39.7368" filterUnits="userSpaceOnUse" color-interpolation-filters="sRGB">
<feFlood flood-opacity="0" result="BackgroundImageFix"/>
<feColorMatrix in="SourceAlpha" type="matrix" values="0 0 0 0 0 0 0 0 0 0 0 0 0 0 0 0 0 0 127 0" result="hardAlpha"/>
<feOffset/>
<feGaussianBlur stdDeviation="4.50432"/>
<feComposite in2="hardAlpha" operator="out"/>
<feColorMatrix type="matrix" values="0 0 0 0 0.458824 0 0 0 0 0.219608 0 0 0 0 0.960784 0 0 0 0.3 0"/>
<feBlend mode="normal" in2="BackgroundImageFix" result="effect1_dropShadow_50483_13327"/>
<feBlend mode="normal" in="SourceGraphic" in2="effect1_dropShadow_50483_13327" result="shape"/>
</filter>
<linearGradient id="paint0_linear_50483_13327" x1="526" y1="34.7194" x2="528.263" y2="0.43358" gradientUnits="userSpaceOnUse">
<stop offset="0.22" stop-color="#F0EFFF"/>
<stop offset="1" stop-color="#7132F5"/>
</linearGradient>
<linearGradient id="paint1_linear_50483_13327" x1="526" y1="34.7194" x2="528.263" y2="0.43358" gradientUnits="userSpaceOnUse">
<stop offset="0.22" stop-color="#F0EFFF"/>
<stop offset="1" stop-color="#7132F5"/>
</linearGradient>
<linearGradient id="paint2_linear_50483_13327" x1="526" y1="34.7194" x2="528.263" y2="0.43358" gradientUnits="userSpaceOnUse">
<stop offset="0.22" stop-color="#F0EFFF"/>
<stop offset="1" stop-color="#7132F5"/>
</linearGradient>
<linearGradient id="paint3_linear_50483_13327" x1="526" y1="34.7194" x2="528.263" y2="0.43358" gradientUnits="userSpaceOnUse">
<stop offset="0.22" stop-color="#F0EFFF"/>
<stop offset="1" stop-color="#7132F5"/>
</linearGradient>
<linearGradient id="paint4_linear_50483_13327" x1="526" y1="34.7194" x2="528.263" y2="0.43358" gradientUnits="userSpaceOnUse">
<stop offset="0.22" stop-color="#F0EFFF"/>
<stop offset="1" stop-color="#7132F5"/>
</linearGradient>
<linearGradient id="paint5_linear_50483_13327" x1="526" y1="34.7194" x2="528.263" y2="0.43358" gradientUnits="userSpaceOnUse">
<stop offset="0.22" stop-color="#F0EFFF"/>
<stop offset="1" stop-color="#7132F5"/>
</linearGradient>
<linearGradient id="paint6_linear_50483_13327" x1="526" y1="34.7194" x2="528.263" y2="0.43358" gradientUnits="userSpaceOnUse">
<stop offset="0.22" stop-color="#F0EFFF"/>
<stop offset="1" stop-color="#7132F5"/>
</linearGradient>
<linearGradient id="paint7_linear_50483_13327" x1="526" y1="34.7194" x2="528.263" y2="0.43358" gradientUnits="userSpaceOnUse">
<stop offset="0.22" stop-color="#F0EFFF"/>
<stop offset="1" stop-color="#7132F5"/>
</linearGradient>
<linearGradient id="paint8_linear_50483_13327" x1="526" y1="34.7194" x2="528.263" y2="0.43358" gradientUnits="userSpaceOnUse">
<stop offset="0.22" stop-color="#F0EFFF"/>
<stop offset="1" stop-color="#7132F5"/>
</linearGradient>
<linearGradient id="paint9_linear_50483_13327" x1="526" y1="34.7194" x2="528.263" y2="0.43358" gradientUnits="userSpaceOnUse">
<stop offset="0.22" stop-color="#F0EFFF"/>
<stop offset="1" stop-color="#7132F5"/>
</linearGradient>
<linearGradient id="paint10_linear_50483_13327" x1="526" y1="34.7194" x2="528.263" y2="0.43358" gradientUnits="userSpaceOnUse">
<stop offset="0.22" stop-color="#F0EFFF"/>
<stop offset="1" stop-color="#7132F5"/>
</linearGradient>
</defs>
</svg>
