<svg width="970" height="90" viewBox="0 0 970 90" fill="none" xmlns="http://www.w3.org/2000/svg">
<g filter="url(#filter0_d_50486_8203)">
<path d="M880.63 36.1216V15.5978H884.088V18.228C885.228 16.2354 887.625 15 890.337 15C894.778 15 898.001 17.3911 898.001 23.5682V36.1216H894.464V24.0863C894.464 20.2605 892.617 18.3874 889.551 18.3874C886.093 18.3874 884.167 20.7786 884.167 24.2058V36.1216H880.63Z" fill="#F0EFFF"/>
<path d="M880.63 36.1216V15.5978H884.088V18.228C885.228 16.2354 887.625 15 890.337 15C894.778 15 898.001 17.3911 898.001 23.5682V36.1216H894.464V24.0863C894.464 20.2605 892.617 18.3874 889.551 18.3874C886.093 18.3874 884.167 20.7786 884.167 24.2058V36.1216H880.63Z" fill="url(#paint0_linear_50486_8203)"/>
<path d="M868.215 36.7194C862.438 36.7194 857.997 32.9335 857.997 25.7601C857.997 19.0649 862.281 15 867.901 15C874.307 15 877.805 19.5431 877.805 24.6841C877.805 25.521 877.765 26.3977 877.648 27.0353H861.691C861.927 31.0205 864.521 33.4914 868.255 33.4914C871.202 33.4914 872.735 32.5349 873.757 30.1438H877.451C876.351 34.2884 872.931 36.7194 868.215 36.7194ZM861.691 24.0464H874.071C873.914 20.2206 871.359 18.1483 867.901 18.1483C864.246 18.1483 862.006 20.38 861.691 24.0464Z" fill="#F0EFFF"/>
<path d="M868.215 36.7194C862.438 36.7194 857.997 32.9335 857.997 25.7601C857.997 19.0649 862.281 15 867.901 15C874.307 15 877.805 19.5431 877.805 24.6841C877.805 25.521 877.765 26.3977 877.648 27.0353H861.691C861.927 31.0205 864.521 33.4914 868.255 33.4914C871.202 33.4914 872.735 32.5349 873.757 30.1438H877.451C876.351 34.2884 872.931 36.7194 868.215 36.7194ZM861.691 24.0464H874.071C873.914 20.2206 871.359 18.1483 867.901 18.1483C864.246 18.1483 862.006 20.38 861.691 24.0464Z" fill="url(#paint1_linear_50486_8203)"/>
<path d="M840.739 15.5978V36.1218H844.277V29.4665L847.657 26.1986L854.691 36.1218H858.818L850.054 23.7278L858.346 15.5979H853.788L844.277 25.003V15.5978H840.739Z" fill="#F0EFFF"/>
<path d="M840.739 15.5978V36.1218H844.277V29.4665L847.657 26.1986L854.691 36.1218H858.818L850.054 23.7278L858.346 15.5979H853.788L844.277 25.003V15.5978H840.739Z" fill="url(#paint2_linear_50486_8203)"/>
<path d="M826.254 36.7194C822.285 36.7194 819.219 34.4877 819.219 30.6619C819.219 26.7165 821.931 25.0029 825.115 24.4051L830.145 23.4486C831.757 23.1298 832.739 22.6118 832.739 21.0177C832.739 19.304 831.285 18.1483 828.416 18.1483C825.822 18.1483 823.7 19.2243 823.503 21.735H819.77C819.848 17.5107 823.621 15 828.455 15C834.036 15 836.276 17.8694 836.276 21.1372V31.8176C836.276 32.7342 836.708 33.2124 837.495 33.2124C838.163 33.2124 838.556 33.053 838.909 32.8139V35.7231C838.359 36.2013 837.416 36.5201 836.276 36.5201C834.586 36.5201 833.211 35.6035 832.857 33.85C831.953 35.1253 830.067 36.7194 826.254 36.7194ZM822.874 30.5423C822.874 32.5349 824.643 33.5711 826.922 33.5711C830.263 33.5711 832.739 31.6582 832.739 28.7888V25.4811C832.346 25.9593 831.049 26.318 829.713 26.5571L826.372 27.1947C823.975 27.673 822.874 28.7091 822.874 30.5423Z" fill="#F0EFFF"/>
<path d="M826.254 36.7194C822.285 36.7194 819.219 34.4877 819.219 30.6619C819.219 26.7165 821.931 25.0029 825.115 24.4051L830.145 23.4486C831.757 23.1298 832.739 22.6118 832.739 21.0177C832.739 19.304 831.285 18.1483 828.416 18.1483C825.822 18.1483 823.7 19.2243 823.503 21.735H819.77C819.848 17.5107 823.621 15 828.455 15C834.036 15 836.276 17.8694 836.276 21.1372V31.8176C836.276 32.7342 836.708 33.2124 837.495 33.2124C838.163 33.2124 838.556 33.053 838.909 32.8139V35.7231C838.359 36.2013 837.416 36.5201 836.276 36.5201C834.586 36.5201 833.211 35.6035 832.857 33.85C831.953 35.1253 830.067 36.7194 826.254 36.7194ZM822.874 30.5423C822.874 32.5349 824.643 33.5711 826.922 33.5711C830.263 33.5711 832.739 31.6582 832.739 28.7888V25.4811C832.346 25.9593 831.049 26.318 829.713 26.5571L826.372 27.1947C823.975 27.673 822.874 28.7091 822.874 30.5423Z" fill="url(#paint3_linear_50486_8203)"/>
<path d="M808.362 36.1214V15.5976H811.821V19.0249C812.803 16.5939 814.572 15.1592 817.362 15.1592C817.952 15.1592 818.541 15.2788 818.855 15.3585V19.0249C818.541 18.9452 817.873 18.8256 817.205 18.8256C813.746 18.8256 811.899 21.5754 811.899 25.9591V36.1214H808.362Z" fill="#F0EFFF"/>
<path d="M808.362 36.1214V15.5976H811.821V19.0249C812.803 16.5939 814.572 15.1592 817.362 15.1592C817.952 15.1592 818.541 15.2788 818.855 15.3585V19.0249C818.541 18.9452 817.873 18.8256 817.205 18.8256C813.746 18.8256 811.899 21.5754 811.899 25.9591V36.1214H808.362Z" fill="url(#paint4_linear_50486_8203)"/>
<path d="M788.729 15.5978V36.1215H792.266V29.4662L795.646 26.1983L802.681 36.1215H806.807L798.043 23.7275L806.336 15.5976H801.777L792.266 25.0027V15.5978H788.729Z" fill="#F0EFFF"/>
<path d="M788.729 15.5978V36.1215H792.266V29.4662L795.646 26.1983L802.681 36.1215H806.807L798.043 23.7275L806.336 15.5976H801.777L792.266 25.0027V15.5978H788.729Z" fill="url(#paint5_linear_50486_8203)"/>
<path d="M770.645 15C763.109 15 757 21.1889 757 28.8232V34.747C757 35.8366 757.872 36.7194 758.948 36.7194C760.024 36.7194 760.902 35.8366 760.902 34.747V28.8232C760.902 27.7303 761.771 26.8475 762.85 26.8475C763.926 26.8475 764.798 27.7303 764.798 28.8232V34.747C764.798 35.8366 765.67 36.7194 766.746 36.7194C767.825 36.7194 768.697 35.8366 768.697 34.747V28.8232C768.697 27.7303 769.569 26.8475 770.645 26.8475C771.724 26.8475 772.599 27.7303 772.599 28.8232V34.747C772.599 35.8366 773.471 36.7194 774.547 36.7194C775.623 36.7194 776.495 35.8366 776.495 34.747V28.8232C776.495 27.7303 777.367 26.8475 778.449 26.8475C779.526 26.8475 780.397 27.7303 780.397 28.8232V34.747C780.397 35.8366 781.269 36.7194 782.349 36.7194C783.425 36.7194 784.296 35.8366 784.296 34.747V28.8232C784.296 21.1889 778.184 15 770.645 15Z" fill="#F0EFFF"/>
<path d="M770.645 15C763.109 15 757 21.1889 757 28.8232V34.747C757 35.8366 757.872 36.7194 758.948 36.7194C760.024 36.7194 760.902 35.8366 760.902 34.747V28.8232C760.902 27.7303 761.771 26.8475 762.85 26.8475C763.926 26.8475 764.798 27.7303 764.798 28.8232V34.747C764.798 35.8366 765.67 36.7194 766.746 36.7194C767.825 36.7194 768.697 35.8366 768.697 34.747V28.8232C768.697 27.7303 769.569 26.8475 770.645 26.8475C771.724 26.8475 772.599 27.7303 772.599 28.8232V34.747C772.599 35.8366 773.471 36.7194 774.547 36.7194C775.623 36.7194 776.495 35.8366 776.495 34.747V28.8232C776.495 27.7303 777.367 26.8475 778.449 26.8475C779.526 26.8475 780.397 27.7303 780.397 28.8232V34.747C780.397 35.8366 781.269 36.7194 782.349 36.7194C783.425 36.7194 784.296 35.8366 784.296 34.747V28.8232C784.296 21.1889 778.184 15 770.645 15Z" fill="url(#paint6_linear_50486_8203)"/>
<path d="M916.148 23.4095C916.148 25.015 914.999 25.6171 913.722 25.6171H911.295V21.2202H913.722C914.999 21.2202 916.148 21.804 916.148 23.4095Z" fill="#F0EFFF"/>
<path d="M916.148 23.4095C916.148 25.015 914.999 25.6171 913.722 25.6171H911.295V21.2202H913.722C914.999 21.2202 916.148 21.804 916.148 23.4095Z" fill="url(#paint7_linear_50486_8203)"/>
<path d="M927.533 23.2818C927.533 24.6136 926.657 25.4164 925.216 25.4164H922.68V21.2202H925.216C926.657 21.2202 927.533 21.9317 927.533 23.2818Z" fill="#F0EFFF"/>
<path d="M927.533 23.2818C927.533 24.6136 926.657 25.4164 925.216 25.4164H922.68V21.2202H925.216C926.657 21.2202 927.533 21.9317 927.533 23.2818Z" fill="url(#paint8_linear_50486_8203)"/>
<path d="M942.856 25.8178C942.856 29.1382 940.904 30.7255 938.605 30.7255C936.288 30.7255 934.355 29.1565 934.355 25.836V25.8178C934.355 22.4791 936.288 20.8918 938.605 20.8918C940.904 20.8918 942.856 22.4791 942.856 25.7995V25.8178Z" fill="#F0EFFF"/>
<path d="M942.856 25.8178C942.856 29.1382 940.904 30.7255 938.605 30.7255C936.288 30.7255 934.355 29.1565 934.355 25.836V25.8178C934.355 22.4791 936.288 20.8918 938.605 20.8918C940.904 20.8918 942.856 22.4791 942.856 25.7995V25.8178Z" fill="url(#paint9_linear_50486_8203)"/>
<path fill-rule="evenodd" clip-rule="evenodd" d="M907.106 15C905.12 15 903.511 16.6093 903.511 18.5946V33.1248C903.511 35.11 905.12 36.7194 907.106 36.7194H946.07C948.055 36.7194 949.665 35.11 949.665 33.1248V18.5946C949.665 16.6093 948.055 15 946.07 15H907.106ZM909.106 19.3775V32.2398H911.295V27.4415H913.904C916.221 27.4415 918.411 26.1097 918.411 23.3913C918.411 20.6911 916.221 19.3775 913.904 19.3775H909.106ZM920.491 19.3775V32.2398H922.68V27.1131H924.888C926.219 27.1131 926.84 27.551 927.15 28.8281L927.643 30.8532C927.807 31.5282 927.953 32.0208 928.026 32.2398H930.379C930.215 31.8749 930.051 31.2728 929.923 30.7985L929.303 28.3537C929.047 27.3503 928.536 26.5475 927.059 26.3104V26.1279C928.938 25.6718 929.795 24.3582 929.795 22.8987C929.795 20.6364 928.117 19.3775 925.435 19.3775H920.491ZM932.092 25.8178C932.092 29.6856 934.829 32.5134 938.605 32.5134C942.364 32.5134 945.119 29.7038 945.119 25.836V25.8178C945.119 21.9317 942.364 19.1039 938.605 19.1039C934.829 19.1039 932.092 21.9135 932.092 25.7995V25.8178Z" fill="#F0EFFF"/>
<path fill-rule="evenodd" clip-rule="evenodd" d="M907.106 15C905.12 15 903.511 16.6093 903.511 18.5946V33.1248C903.511 35.11 905.12 36.7194 907.106 36.7194H946.07C948.055 36.7194 949.665 35.11 949.665 33.1248V18.5946C949.665 16.6093 948.055 15 946.07 15H907.106ZM909.106 19.3775V32.2398H911.295V27.4415H913.904C916.221 27.4415 918.411 26.1097 918.411 23.3913C918.411 20.6911 916.221 19.3775 913.904 19.3775H909.106ZM920.491 19.3775V32.2398H922.68V27.1131H924.888C926.219 27.1131 926.84 27.551 927.15 28.8281L927.643 30.8532C927.807 31.5282 927.953 32.0208 928.026 32.2398H930.379C930.215 31.8749 930.051 31.2728 929.923 30.7985L929.303 28.3537C929.047 27.3503 928.536 26.5475 927.059 26.3104V26.1279C928.938 25.6718 929.795 24.3582 929.795 22.8987C929.795 20.6364 928.117 19.3775 925.435 19.3775H920.491ZM932.092 25.8178C932.092 29.6856 934.829 32.5134 938.605 32.5134C942.364 32.5134 945.119 29.7038 945.119 25.836V25.8178C945.119 21.9317 942.364 19.1039 938.605 19.1039C934.829 19.1039 932.092 21.9135 932.092 25.7995V25.8178Z" fill="url(#paint10_linear_50486_8203)"/>
</g>
<defs>
<filter id="filter0_d_50486_8203" x="747.991" y="5.99137" width="210.682" height="39.7368" filterUnits="userSpaceOnUse" color-interpolation-filters="sRGB">
<feFlood flood-opacity="0" result="BackgroundImageFix"/>
<feColorMatrix in="SourceAlpha" type="matrix" values="0 0 0 0 0 0 0 0 0 0 0 0 0 0 0 0 0 0 127 0" result="hardAlpha"/>
<feOffset/>
<feGaussianBlur stdDeviation="4.50432"/>
<feComposite in2="hardAlpha" operator="out"/>
<feColorMatrix type="matrix" values="0 0 0 0 0.458824 0 0 0 0 0.219608 0 0 0 0 0.960784 0 0 0 0.3 0"/>
<feBlend mode="normal" in2="BackgroundImageFix" result="effect1_dropShadow_50486_8203"/>
<feBlend mode="normal" in="SourceGraphic" in2="effect1_dropShadow_50486_8203" result="shape"/>
</filter>
<linearGradient id="paint0_linear_50486_8203" x1="757" y1="36.7194" x2="759.263" y2="2.43358" gradientUnits="userSpaceOnUse">
<stop offset="0.22" stop-color="#F0EFFF"/>
<stop offset="1" stop-color="#7132F5"/>
</linearGradient>
<linearGradient id="paint1_linear_50486_8203" x1="757" y1="36.7194" x2="759.263" y2="2.43358" gradientUnits="userSpaceOnUse">
<stop offset="0.22" stop-color="#F0EFFF"/>
<stop offset="1" stop-color="#7132F5"/>
</linearGradient>
<linearGradient id="paint2_linear_50486_8203" x1="757" y1="36.7194" x2="759.263" y2="2.43358" gradientUnits="userSpaceOnUse">
<stop offset="0.22" stop-color="#F0EFFF"/>
<stop offset="1" stop-color="#7132F5"/>
</linearGradient>
<linearGradient id="paint3_linear_50486_8203" x1="757" y1="36.7194" x2="759.263" y2="2.43358" gradientUnits="userSpaceOnUse">
<stop offset="0.22" stop-color="#F0EFFF"/>
<stop offset="1" stop-color="#7132F5"/>
</linearGradient>
<linearGradient id="paint4_linear_50486_8203" x1="757" y1="36.7194" x2="759.263" y2="2.43358" gradientUnits="userSpaceOnUse">
<stop offset="0.22" stop-color="#F0EFFF"/>
<stop offset="1" stop-color="#7132F5"/>
</linearGradient>
<linearGradient id="paint5_linear_50486_8203" x1="757" y1="36.7194" x2="759.263" y2="2.43358" gradientUnits="userSpaceOnUse">
<stop offset="0.22" stop-color="#F0EFFF"/>
<stop offset="1" stop-color="#7132F5"/>
</linearGradient>
<linearGradient id="paint6_linear_50486_8203" x1="757" y1="36.7194" x2="759.263" y2="2.43358" gradientUnits="userSpaceOnUse">
<stop offset="0.22" stop-color="#F0EFFF"/>
<stop offset="1" stop-color="#7132F5"/>
</linearGradient>
<linearGradient id="paint7_linear_50486_8203" x1="757" y1="36.7194" x2="759.263" y2="2.43358" gradientUnits="userSpaceOnUse">
<stop offset="0.22" stop-color="#F0EFFF"/>
<stop offset="1" stop-color="#7132F5"/>
</linearGradient>
<linearGradient id="paint8_linear_50486_8203" x1="757" y1="36.7194" x2="759.263" y2="2.43358" gradientUnits="userSpaceOnUse">
<stop offset="0.22" stop-color="#F0EFFF"/>
<stop offset="1" stop-color="#7132F5"/>
</linearGradient>
<linearGradient id="paint9_linear_50486_8203" x1="757" y1="36.7194" x2="759.263" y2="2.43358" gradientUnits="userSpaceOnUse">
<stop offset="0.22" stop-color="#F0EFFF"/>
<stop offset="1" stop-color="#7132F5"/>
</linearGradient>
<linearGradient id="paint10_linear_50486_8203" x1="757" y1="36.7194" x2="759.263" y2="2.43358" gradientUnits="userSpaceOnUse">
<stop offset="0.22" stop-color="#F0EFFF"/>
<stop offset="1" stop-color="#7132F5"/>
</linearGradient>
</defs>
</svg>
