<svg width="301" height="600" viewBox="0 0 301 600" fill="none" xmlns="http://www.w3.org/2000/svg">
<g filter="url(#filter0_d_50483_12725)">
<path d="M157.261 47.1216V26.5978H160.719V29.228C161.859 27.2354 164.256 26 166.968 26C171.409 26 174.632 28.3911 174.632 34.5682V47.1216H171.095V35.0863C171.095 31.2605 169.247 29.3874 166.182 29.3874C162.723 29.3874 160.798 31.7786 160.798 35.2058V47.1216H157.261Z" fill="#F0EFFF"/>
<path d="M157.261 47.1216V26.5978H160.719V29.228C161.859 27.2354 164.256 26 166.968 26C171.409 26 174.632 28.3911 174.632 34.5682V47.1216H171.095V35.0863C171.095 31.2605 169.247 29.3874 166.182 29.3874C162.723 29.3874 160.798 31.7786 160.798 35.2058V47.1216H157.261Z" fill="url(#paint0_linear_50483_12725)"/>
<path d="M144.846 47.7194C139.069 47.7194 134.628 43.9335 134.628 36.7601C134.628 30.0649 138.912 26 144.532 26C150.938 26 154.436 30.5431 154.436 35.6841C154.436 36.521 154.396 37.3977 154.278 38.0353H138.322C138.558 42.0205 141.152 44.4914 144.885 44.4914C147.833 44.4914 149.366 43.5349 150.388 41.1438H154.082C152.981 45.2884 149.562 47.7194 144.846 47.7194ZM138.322 35.0464H150.702C150.545 31.2206 147.99 29.1483 144.532 29.1483C140.877 29.1483 138.637 31.38 138.322 35.0464Z" fill="#F0EFFF"/>
<path d="M144.846 47.7194C139.069 47.7194 134.628 43.9335 134.628 36.7601C134.628 30.0649 138.912 26 144.532 26C150.938 26 154.436 30.5431 154.436 35.6841C154.436 36.521 154.396 37.3977 154.278 38.0353H138.322C138.558 42.0205 141.152 44.4914 144.885 44.4914C147.833 44.4914 149.366 43.5349 150.388 41.1438H154.082C152.981 45.2884 149.562 47.7194 144.846 47.7194ZM138.322 35.0464H150.702C150.545 31.2206 147.99 29.1483 144.532 29.1483C140.877 29.1483 138.637 31.38 138.322 35.0464Z" fill="url(#paint1_linear_50483_12725)"/>
<path d="M117.37 26.5978V47.1218H120.907V40.4665L124.287 37.1986L131.322 47.1218H135.449L126.685 34.7278L134.977 26.5979H130.418L120.907 36.003V26.5978H117.37Z" fill="#F0EFFF"/>
<path d="M117.37 26.5978V47.1218H120.907V40.4665L124.287 37.1986L131.322 47.1218H135.449L126.685 34.7278L134.977 26.5979H130.418L120.907 36.003V26.5978H117.37Z" fill="url(#paint2_linear_50483_12725)"/>
<path d="M102.885 47.7194C98.9157 47.7194 95.8503 45.4877 95.8503 41.6619C95.8503 37.7165 98.562 36.0029 101.745 35.4051L106.776 34.4486C108.387 34.1298 109.37 33.6118 109.37 32.0177C109.37 30.304 107.916 29.1483 105.047 29.1483C102.453 29.1483 100.331 30.2243 100.134 32.735H96.4005C96.4791 28.5107 100.252 26 105.086 26C110.667 26 112.907 28.8694 112.907 32.1372V42.8176C112.907 43.7342 113.339 44.2124 114.125 44.2124C114.793 44.2124 115.186 44.053 115.54 43.8139V46.7231C114.99 47.2013 114.047 47.5201 112.907 47.5201C111.217 47.5201 109.842 46.6035 109.488 44.85C108.584 46.1253 106.697 47.7194 102.885 47.7194ZM99.5053 41.5423C99.5053 43.5349 101.274 44.5711 103.553 44.5711C106.894 44.5711 109.37 42.6582 109.37 39.7888V36.4811C108.977 36.9593 107.68 37.318 106.344 37.5571L103.003 38.1947C100.606 38.673 99.5053 39.7091 99.5053 41.5423Z" fill="#F0EFFF"/>
<path d="M102.885 47.7194C98.9157 47.7194 95.8503 45.4877 95.8503 41.6619C95.8503 37.7165 98.562 36.0029 101.745 35.4051L106.776 34.4486C108.387 34.1298 109.37 33.6118 109.37 32.0177C109.37 30.304 107.916 29.1483 105.047 29.1483C102.453 29.1483 100.331 30.2243 100.134 32.735H96.4005C96.4791 28.5107 100.252 26 105.086 26C110.667 26 112.907 28.8694 112.907 32.1372V42.8176C112.907 43.7342 113.339 44.2124 114.125 44.2124C114.793 44.2124 115.186 44.053 115.54 43.8139V46.7231C114.99 47.2013 114.047 47.5201 112.907 47.5201C111.217 47.5201 109.842 46.6035 109.488 44.85C108.584 46.1253 106.697 47.7194 102.885 47.7194ZM99.5053 41.5423C99.5053 43.5349 101.274 44.5711 103.553 44.5711C106.894 44.5711 109.37 42.6582 109.37 39.7888V36.4811C108.977 36.9593 107.68 37.318 106.344 37.5571L103.003 38.1947C100.606 38.673 99.5053 39.7091 99.5053 41.5423Z" fill="url(#paint3_linear_50483_12725)"/>
<path d="M84.9929 47.1214V26.5976H88.4514V30.0249C89.4339 27.5939 91.2025 26.1592 93.9929 26.1592C94.5824 26.1592 95.1719 26.2788 95.4863 26.3585V30.0249C95.1719 29.9452 94.5038 29.8256 93.8357 29.8256C90.3771 29.8256 88.53 32.5754 88.53 36.9591V47.1214H84.9929Z" fill="#F0EFFF"/>
<path d="M84.9929 47.1214V26.5976H88.4514V30.0249C89.4339 27.5939 91.2025 26.1592 93.9929 26.1592C94.5824 26.1592 95.1719 26.2788 95.4863 26.3585V30.0249C95.1719 29.9452 94.5038 29.8256 93.8357 29.8256C90.3771 29.8256 88.53 32.5754 88.53 36.9591V47.1214H84.9929Z" fill="url(#paint4_linear_50483_12725)"/>
<path d="M65.3594 26.5978V47.1215H68.8965V40.4662L72.2764 37.1983L79.3114 47.1215H83.438L74.6738 34.7275L82.9664 26.5976H78.4074L68.8965 36.0027V26.5978H65.3594Z" fill="#F0EFFF"/>
<path d="M65.3594 26.5978V47.1215H68.8965V40.4662L72.2764 37.1983L79.3114 47.1215H83.438L74.6738 34.7275L82.9664 26.5976H78.4074L68.8965 36.0027V26.5978H65.3594Z" fill="url(#paint5_linear_50483_12725)"/>
<path d="M47.2759 26C39.7397 26 33.6309 32.1889 33.6309 39.8232V45.747C33.6309 46.8366 34.5026 47.7194 35.5788 47.7194C36.6549 47.7194 37.5331 46.8366 37.5331 45.747V39.8232C37.5331 38.7303 38.4017 37.8475 39.481 37.8475C40.5572 37.8475 41.4289 38.7303 41.4289 39.8232V45.747C41.4289 46.8366 42.3007 47.7194 43.3768 47.7194C44.4562 47.7194 45.328 46.8366 45.328 45.747V39.8232C45.328 38.7303 46.1997 37.8475 47.2759 37.8475C48.3552 37.8475 49.2302 38.7303 49.2302 39.8232V45.747C49.2302 46.8366 50.102 47.7194 51.1781 47.7194C52.2543 47.7194 53.126 46.8366 53.126 45.747V39.8232C53.126 38.7303 53.9978 37.8475 55.0803 37.8475C56.1565 37.8475 57.0283 38.7303 57.0283 39.8232V45.747C57.0283 46.8366 57.9 47.7194 58.9794 47.7194C60.0555 47.7194 60.9273 46.8366 60.9273 45.747V39.8232C60.9273 32.1889 54.8153 26 47.2759 26Z" fill="#F0EFFF"/>
<path d="M47.2759 26C39.7397 26 33.6309 32.1889 33.6309 39.8232V45.747C33.6309 46.8366 34.5026 47.7194 35.5788 47.7194C36.6549 47.7194 37.5331 46.8366 37.5331 45.747V39.8232C37.5331 38.7303 38.4017 37.8475 39.481 37.8475C40.5572 37.8475 41.4289 38.7303 41.4289 39.8232V45.747C41.4289 46.8366 42.3007 47.7194 43.3768 47.7194C44.4562 47.7194 45.328 46.8366 45.328 45.747V39.8232C45.328 38.7303 46.1997 37.8475 47.2759 37.8475C48.3552 37.8475 49.2302 38.7303 49.2302 39.8232V45.747C49.2302 46.8366 50.102 47.7194 51.1781 47.7194C52.2543 47.7194 53.126 46.8366 53.126 45.747V39.8232C53.126 38.7303 53.9978 37.8475 55.0803 37.8475C56.1565 37.8475 57.0283 38.7303 57.0283 39.8232V45.747C57.0283 46.8366 57.9 47.7194 58.9794 47.7194C60.0555 47.7194 60.9273 46.8366 60.9273 45.747V39.8232C60.9273 32.1889 54.8153 26 47.2759 26Z" fill="url(#paint6_linear_50483_12725)"/>
<path d="M192.779 34.4095C192.779 36.015 191.63 36.6171 190.353 36.6171H187.926V32.2202H190.353C191.63 32.2202 192.779 32.804 192.779 34.4095Z" fill="#F0EFFF"/>
<path d="M192.779 34.4095C192.779 36.015 191.63 36.6171 190.353 36.6171H187.926V32.2202H190.353C191.63 32.2202 192.779 32.804 192.779 34.4095Z" fill="url(#paint7_linear_50483_12725)"/>
<path d="M204.164 34.2818C204.164 35.6136 203.288 36.4164 201.847 36.4164H199.311V32.2202H201.847C203.288 32.2202 204.164 32.9317 204.164 34.2818Z" fill="#F0EFFF"/>
<path d="M204.164 34.2818C204.164 35.6136 203.288 36.4164 201.847 36.4164H199.311V32.2202H201.847C203.288 32.2202 204.164 32.9317 204.164 34.2818Z" fill="url(#paint8_linear_50483_12725)"/>
<path d="M219.487 36.8178C219.487 40.1382 217.535 41.7255 215.236 41.7255C212.919 41.7255 210.985 40.1565 210.985 36.836V36.8178C210.985 33.4791 212.919 31.8918 215.236 31.8918C217.535 31.8918 219.487 33.4791 219.487 36.7995V36.8178Z" fill="#F0EFFF"/>
<path d="M219.487 36.8178C219.487 40.1382 217.535 41.7255 215.236 41.7255C212.919 41.7255 210.985 40.1565 210.985 36.836V36.8178C210.985 33.4791 212.919 31.8918 215.236 31.8918C217.535 31.8918 219.487 33.4791 219.487 36.7995V36.8178Z" fill="url(#paint9_linear_50483_12725)"/>
<path fill-rule="evenodd" clip-rule="evenodd" d="M183.736 26C181.751 26 180.142 27.6093 180.142 29.5946V44.1248C180.142 46.11 181.751 47.7194 183.736 47.7194H222.701C224.686 47.7194 226.295 46.11 226.295 44.1248V29.5946C226.295 27.6093 224.686 26 222.701 26H183.736ZM185.737 30.3775V43.2398H187.926V38.4415H190.535C192.852 38.4415 195.041 37.1097 195.041 34.3913C195.041 31.6911 192.852 30.3775 190.535 30.3775H185.737ZM197.122 30.3775V43.2398H199.311V38.1131H201.519C202.85 38.1131 203.471 38.551 203.781 39.8281L204.273 41.8532C204.438 42.5282 204.584 43.0208 204.657 43.2398H207.01C206.846 42.8749 206.682 42.2728 206.554 41.7985L205.934 39.3537C205.678 38.3503 205.167 37.5475 203.69 37.3104V37.1279C205.569 36.6718 206.426 35.3582 206.426 33.8987C206.426 31.6364 204.748 30.3775 202.066 30.3775H197.122ZM208.723 36.8178C208.723 40.6856 211.46 43.5134 215.236 43.5134C218.995 43.5134 221.75 40.7038 221.75 36.836V36.8178C221.75 32.9317 218.995 30.1039 215.236 30.1039C211.46 30.1039 208.723 32.9135 208.723 36.7995V36.8178Z" fill="#F0EFFF"/>
<path fill-rule="evenodd" clip-rule="evenodd" d="M183.736 26C181.751 26 180.142 27.6093 180.142 29.5946V44.1248C180.142 46.11 181.751 47.7194 183.736 47.7194H222.701C224.686 47.7194 226.295 46.11 226.295 44.1248V29.5946C226.295 27.6093 224.686 26 222.701 26H183.736ZM185.737 30.3775V43.2398H187.926V38.4415H190.535C192.852 38.4415 195.041 37.1097 195.041 34.3913C195.041 31.6911 192.852 30.3775 190.535 30.3775H185.737ZM197.122 30.3775V43.2398H199.311V38.1131H201.519C202.85 38.1131 203.471 38.551 203.781 39.8281L204.273 41.8532C204.438 42.5282 204.584 43.0208 204.657 43.2398H207.01C206.846 42.8749 206.682 42.2728 206.554 41.7985L205.934 39.3537C205.678 38.3503 205.167 37.5475 203.69 37.3104V37.1279C205.569 36.6718 206.426 35.3582 206.426 33.8987C206.426 31.6364 204.748 30.3775 202.066 30.3775H197.122ZM208.723 36.8178C208.723 40.6856 211.46 43.5134 215.236 43.5134C218.995 43.5134 221.75 40.7038 221.75 36.836V36.8178C221.75 32.9317 218.995 30.1039 215.236 30.1039C211.46 30.1039 208.723 32.9135 208.723 36.7995V36.8178Z" fill="url(#paint10_linear_50483_12725)"/>
</g>
<defs>
<filter id="filter0_d_50483_12725" x="24.6222" y="16.9914" width="210.682" height="39.7366" filterUnits="userSpaceOnUse" color-interpolation-filters="sRGB">
<feFlood flood-opacity="0" result="BackgroundImageFix"/>
<feColorMatrix in="SourceAlpha" type="matrix" values="0 0 0 0 0 0 0 0 0 0 0 0 0 0 0 0 0 0 127 0" result="hardAlpha"/>
<feOffset/>
<feGaussianBlur stdDeviation="4.50432"/>
<feComposite in2="hardAlpha" operator="out"/>
<feColorMatrix type="matrix" values="0 0 0 0 0.458824 0 0 0 0 0.219608 0 0 0 0 0.960784 0 0 0 0.3 0"/>
<feBlend mode="normal" in2="BackgroundImageFix" result="effect1_dropShadow_50483_12725"/>
<feBlend mode="normal" in="SourceGraphic" in2="effect1_dropShadow_50483_12725" result="shape"/>
</filter>
<linearGradient id="paint0_linear_50483_12725" x1="33.6309" y1="47.7194" x2="35.8937" y2="13.4336" gradientUnits="userSpaceOnUse">
<stop offset="0.22" stop-color="#F0EFFF"/>
<stop offset="1" stop-color="#7132F5"/>
</linearGradient>
<linearGradient id="paint1_linear_50483_12725" x1="33.6309" y1="47.7194" x2="35.8937" y2="13.4336" gradientUnits="userSpaceOnUse">
<stop offset="0.22" stop-color="#F0EFFF"/>
<stop offset="1" stop-color="#7132F5"/>
</linearGradient>
<linearGradient id="paint2_linear_50483_12725" x1="33.6309" y1="47.7194" x2="35.8937" y2="13.4336" gradientUnits="userSpaceOnUse">
<stop offset="0.22" stop-color="#F0EFFF"/>
<stop offset="1" stop-color="#7132F5"/>
</linearGradient>
<linearGradient id="paint3_linear_50483_12725" x1="33.6309" y1="47.7194" x2="35.8937" y2="13.4336" gradientUnits="userSpaceOnUse">
<stop offset="0.22" stop-color="#F0EFFF"/>
<stop offset="1" stop-color="#7132F5"/>
</linearGradient>
<linearGradient id="paint4_linear_50483_12725" x1="33.6309" y1="47.7194" x2="35.8937" y2="13.4336" gradientUnits="userSpaceOnUse">
<stop offset="0.22" stop-color="#F0EFFF"/>
<stop offset="1" stop-color="#7132F5"/>
</linearGradient>
<linearGradient id="paint5_linear_50483_12725" x1="33.6309" y1="47.7194" x2="35.8937" y2="13.4336" gradientUnits="userSpaceOnUse">
<stop offset="0.22" stop-color="#F0EFFF"/>
<stop offset="1" stop-color="#7132F5"/>
</linearGradient>
<linearGradient id="paint6_linear_50483_12725" x1="33.6309" y1="47.7194" x2="35.8937" y2="13.4336" gradientUnits="userSpaceOnUse">
<stop offset="0.22" stop-color="#F0EFFF"/>
<stop offset="1" stop-color="#7132F5"/>
</linearGradient>
<linearGradient id="paint7_linear_50483_12725" x1="33.6309" y1="47.7194" x2="35.8937" y2="13.4336" gradientUnits="userSpaceOnUse">
<stop offset="0.22" stop-color="#F0EFFF"/>
<stop offset="1" stop-color="#7132F5"/>
</linearGradient>
<linearGradient id="paint8_linear_50483_12725" x1="33.6309" y1="47.7194" x2="35.8937" y2="13.4336" gradientUnits="userSpaceOnUse">
<stop offset="0.22" stop-color="#F0EFFF"/>
<stop offset="1" stop-color="#7132F5"/>
</linearGradient>
<linearGradient id="paint9_linear_50483_12725" x1="33.6309" y1="47.7194" x2="35.8937" y2="13.4336" gradientUnits="userSpaceOnUse">
<stop offset="0.22" stop-color="#F0EFFF"/>
<stop offset="1" stop-color="#7132F5"/>
</linearGradient>
<linearGradient id="paint10_linear_50483_12725" x1="33.6309" y1="47.7194" x2="35.8937" y2="13.4336" gradientUnits="userSpaceOnUse">
<stop offset="0.22" stop-color="#F0EFFF"/>
<stop offset="1" stop-color="#7132F5"/>
</linearGradient>
</defs>
</svg>
