<svg width="300" height="250" viewBox="0 0 300 250" fill="none" xmlns="http://www.w3.org/2000/svg">
<rect x="12" y="175" width="61.748" height="17.9628" rx="8.98142" fill="#F0EFFF"/>
<path d="M21.3856 187.074C21.0842 187.074 20.8497 187.015 20.6739 186.914V186.194C20.8497 186.286 21.0339 186.328 21.2349 186.328C21.7541 186.328 22.1226 186.018 22.1226 185.374V181.078H22.9097V185.349C22.9097 186.496 22.2817 187.074 21.3856 187.074ZM25.8724 187.107C24.5409 187.107 23.6952 186.211 23.6952 184.804C23.6952 183.456 24.5577 182.543 25.8054 182.543C27.0448 182.543 27.9157 183.381 27.9157 184.578C27.9157 184.921 27.9157 184.997 27.8989 185.072H24.4823C24.5326 185.918 25.0601 186.437 25.8808 186.437C26.4586 186.437 26.8605 186.186 27.0615 185.725H27.8403C27.6142 186.588 26.8857 187.107 25.8724 187.107ZM24.4823 184.453H27.1201C27.0866 183.682 26.5842 183.205 25.8054 183.205C25.0601 183.205 24.5661 183.665 24.4823 184.453ZM29.988 187.065C29.4353 187.065 29.0083 186.747 29.0083 186.052V183.356H28.2462V182.719H28.4891C28.958 182.719 29.0669 182.577 29.0669 182.091V181.647H29.7703V182.669H30.7417V183.356H29.7703V185.826C29.7703 186.194 29.921 186.337 30.2225 186.337C30.3983 186.337 30.5575 186.303 30.7417 186.219V186.914C30.524 187.023 30.3397 187.065 29.988 187.065ZM31.6807 186.981V186.303L34.1427 183.356H31.731V182.669H35.089V183.356L32.6186 186.295H35.2313V186.981H31.6807ZM37.4052 187.065C36.8525 187.065 36.4255 186.747 36.4255 186.052V183.356H35.6634V182.719H35.9063C36.3752 182.719 36.4841 182.577 36.4841 182.091V181.647H37.1875V182.669H38.1589V183.356H37.1875V185.826C37.1875 186.194 37.3382 186.337 37.6397 186.337C37.8155 186.337 37.9747 186.303 38.1589 186.219V186.914C37.9412 187.023 37.7569 187.065 37.4052 187.065ZM42.1974 187.065C41.6447 187.065 41.2176 186.747 41.2176 186.052V183.356H40.4556V182.719H40.6984C41.1674 182.719 41.2762 182.577 41.2762 182.091V181.647H41.9796V182.669H42.951V183.356H41.9796V185.826C41.9796 186.194 42.1304 186.337 42.4318 186.337C42.6077 186.337 42.7668 186.303 42.951 186.219V186.914C42.7333 187.023 42.5491 187.065 42.1974 187.065ZM43.9409 186.981V182.669H44.6778V183.389C44.8872 182.878 45.264 182.577 45.8586 182.577C45.9842 182.577 46.1098 182.602 46.1768 182.619V183.389C46.1098 183.372 45.9674 183.347 45.8251 183.347C45.0882 183.347 44.6946 183.925 44.6946 184.846V186.981H43.9409ZM48.0193 187.107C47.1484 187.107 46.512 186.638 46.512 185.826C46.512 185.014 47.0898 184.645 47.7681 184.519L48.8232 184.319C49.1833 184.252 49.3926 184.159 49.3926 183.833C49.3926 183.456 49.0744 183.205 48.438 183.205C47.9188 183.205 47.4666 183.414 47.408 183.891H46.6292C46.6795 183.046 47.4499 182.543 48.4464 182.543C49.6522 182.543 50.1463 183.146 50.1463 183.858V186.069C50.1463 186.27 50.2384 186.37 50.4059 186.37C50.5483 186.37 50.632 186.337 50.7074 186.286V186.898C50.5901 186.998 50.3892 187.065 50.1463 187.065C49.7946 187.065 49.4931 186.839 49.4178 186.471C49.2168 186.755 48.7981 187.107 48.0193 187.107ZM47.2908 185.801C47.2908 186.236 47.6592 186.446 48.1533 186.446C48.8483 186.446 49.3926 186.052 49.3926 185.441V184.746C49.3089 184.838 49.0493 184.913 48.7395 184.972L48.0361 185.106C47.5336 185.198 47.2908 185.416 47.2908 185.801ZM53.068 187.107C51.8538 187.107 51.0415 186.178 51.0415 184.821C51.0415 183.473 51.8119 182.543 53.0931 182.543C53.5955 182.543 54.1985 182.786 54.4916 183.263V181.078H55.2452V186.981H54.5083V186.362C54.2068 186.856 53.629 187.107 53.068 187.107ZM51.8203 184.821C51.8203 185.809 52.3143 186.395 53.1685 186.395C53.9556 186.395 54.5334 185.809 54.5334 184.821C54.5334 183.841 53.9556 183.255 53.1685 183.255C52.3143 183.255 51.8203 183.841 51.8203 184.821ZM58.1908 187.107C56.8593 187.107 56.0135 186.211 56.0135 184.804C56.0135 183.456 56.8761 182.543 58.1238 182.543C59.3631 182.543 60.234 183.381 60.234 184.578C60.234 184.921 60.234 184.997 60.2173 185.072H56.8007C56.8509 185.918 57.3785 186.437 58.1991 186.437C58.7769 186.437 59.1789 186.186 59.3799 185.725H60.1587C59.9326 186.588 59.204 187.107 58.1908 187.107ZM56.8007 184.453H59.4385C59.405 183.682 58.9026 183.205 58.1238 183.205C57.3785 183.205 56.8844 183.665 56.8007 184.453ZM61.0078 186.981V182.669H61.7447V183.222C61.9876 182.803 62.4984 182.543 63.0762 182.543C64.0225 182.543 64.7091 183.046 64.7091 184.344V186.981H63.9555V184.453C63.9555 183.649 63.5619 183.255 62.9087 183.255C62.1718 183.255 61.7615 183.757 61.7615 184.478V186.981H61.0078Z" fill="#070512"/>
</svg>
