<svg width="300" height="250" viewBox="0 0 300 250" fill="none" xmlns="http://www.w3.org/2000/svg">
<path d="M14.1888 74.806V54.502H17.8464L22.9728 67.0876C23.5776 68.5564 24.1536 69.9964 24.7584 71.494H24.7872C25.3632 69.9964 25.9392 68.5564 26.544 67.0876L31.6704 54.502H35.328V74.806H32.7648V58.1884C32.304 59.3692 31.8144 60.55 31.3824 61.6732L27.8976 70.0252L25.9392 74.806H23.5776L21.648 70.0252L18.1632 61.6732C17.7024 60.55 17.2128 59.3692 16.752 58.1884V74.806H14.1888ZM43.1542 75.238C40.159 75.238 37.9702 73.6252 37.9702 70.8316C37.9702 68.038 39.9574 66.7708 42.2902 66.3388L45.919 65.6476C47.1574 65.4172 47.8774 65.1004 47.8774 63.9772C47.8774 62.6812 46.783 61.8172 44.5942 61.8172C42.8086 61.8172 41.2534 62.5372 41.0518 64.1788H38.3734C38.5462 61.27 41.1958 59.542 44.623 59.542C48.7702 59.542 50.4694 61.6156 50.4694 64.0636V71.6668C50.4694 72.358 50.7862 72.7036 51.3622 72.7036C51.8518 72.7036 52.1398 72.5884 52.399 72.4156V74.518C51.9958 74.8636 51.3046 75.094 50.4694 75.094C49.2598 75.094 48.223 74.3164 47.9638 73.0492C47.2726 74.0284 45.8326 75.238 43.1542 75.238ZM40.6486 70.7452C40.6486 72.2428 41.9158 72.9628 43.615 72.9628C46.0054 72.9628 47.8774 71.6092 47.8774 69.5068V67.1164C47.5894 67.4332 46.6966 67.6924 45.631 67.894L43.2118 68.3548C41.4838 68.6716 40.6486 69.4204 40.6486 70.7452ZM60.2879 75.238C55.7951 75.238 52.9439 72.0412 52.9439 67.3756C52.9439 62.7388 55.7663 59.542 60.3455 59.542C64.4639 59.542 66.9119 62.0476 67.1423 64.8412H64.4639C64.0319 62.854 62.3039 61.99 60.3167 61.99C57.3791 61.99 55.6223 63.9196 55.6223 67.3756C55.6223 70.8604 57.3791 72.79 60.2879 72.79C62.3039 72.79 64.0319 71.926 64.4639 69.7084H67.1423C66.9119 72.7324 64.4927 75.238 60.2879 75.238ZM69.4882 74.806V54.502H72.0802V61.7884C72.9154 60.406 74.6722 59.542 76.6018 59.542C79.8562 59.542 82.2178 61.27 82.2178 65.734V74.806H79.6258V66.1084C79.6258 63.3436 78.2722 61.99 76.0546 61.99C73.4914 61.99 72.0802 63.7468 72.0802 66.1948V74.806H69.4882ZM96.982 75.238C92.4028 75.238 89.494 72.1564 89.494 67.318C89.494 62.6812 92.4604 59.542 96.7517 59.542C101.014 59.542 104.009 62.422 104.009 66.5404C104.009 67.7212 104.009 67.9804 103.952 68.2396H92.2012C92.374 71.1484 94.1884 72.934 97.0109 72.934C98.9981 72.934 100.38 72.07 101.072 70.486H103.75C102.972 73.4524 100.467 75.238 96.982 75.238ZM92.2012 66.1084H101.273C101.158 63.4588 99.43 61.8172 96.7517 61.8172C94.1884 61.8172 92.4892 63.4012 92.2012 66.1084ZM111.706 75.238C108.106 75.238 105.658 73.366 105.427 70.486H108.106C108.25 72.0124 109.69 72.9916 111.706 72.9916C113.607 72.9916 114.816 72.0988 114.816 70.63C114.816 69.5068 114.183 68.902 112.714 68.614L109.776 68.0668C107.213 67.5772 105.946 66.166 105.946 63.9772C105.946 61.27 108.221 59.542 111.504 59.542C115.047 59.542 117.149 61.2124 117.437 64.1788H114.759C114.499 62.5948 113.376 61.7596 111.504 61.7596C109.69 61.7596 108.624 62.5372 108.624 63.862C108.624 64.8988 109.287 65.4748 110.755 65.7628L113.664 66.3388C116.141 66.7996 117.495 68.2396 117.495 70.5148C117.495 73.3084 115.133 75.238 111.706 75.238ZM19.8624 102.238C15.6864 102.238 12.8928 99.0412 12.8928 94.3756C12.8928 89.7388 15.5424 86.542 19.9488 86.542C21.6768 86.542 23.7504 87.3772 24.7584 89.0188V81.502H27.3504V101.806H24.816V99.6748C23.7792 101.374 21.792 102.238 19.8624 102.238ZM15.5712 94.3756C15.5712 97.774 17.2704 99.79 20.208 99.79C22.9152 99.79 24.9024 97.774 24.9024 94.3756C24.9024 91.006 22.9152 88.99 20.208 88.99C17.2704 88.99 15.5712 91.006 15.5712 94.3756ZM36.9048 102.238C32.3256 102.238 29.4168 99.1564 29.4168 94.318C29.4168 89.6812 32.3832 86.542 36.6744 86.542C40.9368 86.542 43.932 89.422 43.932 93.5404C43.932 94.7212 43.932 94.9804 43.8744 95.2396H32.124C32.2968 98.1484 34.1112 99.934 36.9336 99.934C38.9208 99.934 40.3032 99.07 40.9944 97.486H43.6728C42.8952 100.452 40.3896 102.238 36.9048 102.238ZM32.124 93.1084H41.196C41.0808 90.4588 39.3528 88.8172 36.6744 88.8172C34.1112 88.8172 32.412 90.4012 32.124 93.1084ZM46.0173 101.806V86.974H48.6093V101.806H46.0173ZM45.6141 83.086C45.6141 82.1932 46.3629 81.3868 47.3421 81.3868C48.2637 81.3868 49.0125 82.1932 49.0125 83.086C49.0125 84.0364 48.2637 84.814 47.3421 84.814C46.3629 84.814 45.6141 84.0364 45.6141 83.086ZM51.5444 101.806V86.974H54.0788V88.8748C54.914 87.4348 56.6708 86.542 58.658 86.542C61.9124 86.542 64.274 88.27 64.274 92.734V101.806H61.682V93.1084C61.682 90.3436 60.3284 88.99 58.082 88.99C55.5476 88.99 54.1364 90.718 54.1364 93.1948V101.806H51.5444ZM72.4703 102.238C68.8703 102.238 66.4223 100.366 66.1919 97.486H68.8703C69.0143 99.0124 70.4543 99.9916 72.4703 99.9916C74.3711 99.9916 75.5807 99.0988 75.5807 97.63C75.5807 96.5068 74.9471 95.902 73.4783 95.614L70.5407 95.0668C67.9775 94.5772 66.7103 93.166 66.7103 90.9772C66.7103 88.27 68.9855 86.542 72.2687 86.542C75.8111 86.542 77.9135 88.2124 78.2015 91.1788H75.5231C75.2639 89.5948 74.1407 88.7596 72.2687 88.7596C70.4543 88.7596 69.3887 89.5372 69.3887 90.862C69.3887 91.8988 70.0511 92.4748 71.5199 92.7628L74.4287 93.3388C76.9055 93.7996 78.2591 95.2396 78.2591 97.5148C78.2591 100.308 75.8975 102.238 72.4703 102.238ZM82.5222 102.123C81.3702 102.123 80.4774 101.259 80.4774 100.078C80.4774 98.9836 81.399 98.1196 82.5222 98.1196C83.6166 98.1196 84.5094 99.0124 84.5094 100.078C84.5094 101.259 83.6166 102.123 82.5222 102.123Z" fill="#F0EFFF"/>
<path d="M14.1888 74.806V54.502H17.8464L22.9728 67.0876C23.5776 68.5564 24.1536 69.9964 24.7584 71.494H24.7872C25.3632 69.9964 25.9392 68.5564 26.544 67.0876L31.6704 54.502H35.328V74.806H32.7648V58.1884C32.304 59.3692 31.8144 60.55 31.3824 61.6732L27.8976 70.0252L25.9392 74.806H23.5776L21.648 70.0252L18.1632 61.6732C17.7024 60.55 17.2128 59.3692 16.752 58.1884V74.806H14.1888ZM43.1542 75.238C40.159 75.238 37.9702 73.6252 37.9702 70.8316C37.9702 68.038 39.9574 66.7708 42.2902 66.3388L45.919 65.6476C47.1574 65.4172 47.8774 65.1004 47.8774 63.9772C47.8774 62.6812 46.783 61.8172 44.5942 61.8172C42.8086 61.8172 41.2534 62.5372 41.0518 64.1788H38.3734C38.5462 61.27 41.1958 59.542 44.623 59.542C48.7702 59.542 50.4694 61.6156 50.4694 64.0636V71.6668C50.4694 72.358 50.7862 72.7036 51.3622 72.7036C51.8518 72.7036 52.1398 72.5884 52.399 72.4156V74.518C51.9958 74.8636 51.3046 75.094 50.4694 75.094C49.2598 75.094 48.223 74.3164 47.9638 73.0492C47.2726 74.0284 45.8326 75.238 43.1542 75.238ZM40.6486 70.7452C40.6486 72.2428 41.9158 72.9628 43.615 72.9628C46.0054 72.9628 47.8774 71.6092 47.8774 69.5068V67.1164C47.5894 67.4332 46.6966 67.6924 45.631 67.894L43.2118 68.3548C41.4838 68.6716 40.6486 69.4204 40.6486 70.7452ZM60.2879 75.238C55.7951 75.238 52.9439 72.0412 52.9439 67.3756C52.9439 62.7388 55.7663 59.542 60.3455 59.542C64.4639 59.542 66.9119 62.0476 67.1423 64.8412H64.4639C64.0319 62.854 62.3039 61.99 60.3167 61.99C57.3791 61.99 55.6223 63.9196 55.6223 67.3756C55.6223 70.8604 57.3791 72.79 60.2879 72.79C62.3039 72.79 64.0319 71.926 64.4639 69.7084H67.1423C66.9119 72.7324 64.4927 75.238 60.2879 75.238ZM69.4882 74.806V54.502H72.0802V61.7884C72.9154 60.406 74.6722 59.542 76.6018 59.542C79.8562 59.542 82.2178 61.27 82.2178 65.734V74.806H79.6258V66.1084C79.6258 63.3436 78.2722 61.99 76.0546 61.99C73.4914 61.99 72.0802 63.7468 72.0802 66.1948V74.806H69.4882ZM96.982 75.238C92.4028 75.238 89.494 72.1564 89.494 67.318C89.494 62.6812 92.4604 59.542 96.7517 59.542C101.014 59.542 104.009 62.422 104.009 66.5404C104.009 67.7212 104.009 67.9804 103.952 68.2396H92.2012C92.374 71.1484 94.1884 72.934 97.0109 72.934C98.9981 72.934 100.38 72.07 101.072 70.486H103.75C102.972 73.4524 100.467 75.238 96.982 75.238ZM92.2012 66.1084H101.273C101.158 63.4588 99.43 61.8172 96.7517 61.8172C94.1884 61.8172 92.4892 63.4012 92.2012 66.1084ZM111.706 75.238C108.106 75.238 105.658 73.366 105.427 70.486H108.106C108.25 72.0124 109.69 72.9916 111.706 72.9916C113.607 72.9916 114.816 72.0988 114.816 70.63C114.816 69.5068 114.183 68.902 112.714 68.614L109.776 68.0668C107.213 67.5772 105.946 66.166 105.946 63.9772C105.946 61.27 108.221 59.542 111.504 59.542C115.047 59.542 117.149 61.2124 117.437 64.1788H114.759C114.499 62.5948 113.376 61.7596 111.504 61.7596C109.69 61.7596 108.624 62.5372 108.624 63.862C108.624 64.8988 109.287 65.4748 110.755 65.7628L113.664 66.3388C116.141 66.7996 117.495 68.2396 117.495 70.5148C117.495 73.3084 115.133 75.238 111.706 75.238ZM19.8624 102.238C15.6864 102.238 12.8928 99.0412 12.8928 94.3756C12.8928 89.7388 15.5424 86.542 19.9488 86.542C21.6768 86.542 23.7504 87.3772 24.7584 89.0188V81.502H27.3504V101.806H24.816V99.6748C23.7792 101.374 21.792 102.238 19.8624 102.238ZM15.5712 94.3756C15.5712 97.774 17.2704 99.79 20.208 99.79C22.9152 99.79 24.9024 97.774 24.9024 94.3756C24.9024 91.006 22.9152 88.99 20.208 88.99C17.2704 88.99 15.5712 91.006 15.5712 94.3756ZM36.9048 102.238C32.3256 102.238 29.4168 99.1564 29.4168 94.318C29.4168 89.6812 32.3832 86.542 36.6744 86.542C40.9368 86.542 43.932 89.422 43.932 93.5404C43.932 94.7212 43.932 94.9804 43.8744 95.2396H32.124C32.2968 98.1484 34.1112 99.934 36.9336 99.934C38.9208 99.934 40.3032 99.07 40.9944 97.486H43.6728C42.8952 100.452 40.3896 102.238 36.9048 102.238ZM32.124 93.1084H41.196C41.0808 90.4588 39.3528 88.8172 36.6744 88.8172C34.1112 88.8172 32.412 90.4012 32.124 93.1084ZM46.0173 101.806V86.974H48.6093V101.806H46.0173ZM45.6141 83.086C45.6141 82.1932 46.3629 81.3868 47.3421 81.3868C48.2637 81.3868 49.0125 82.1932 49.0125 83.086C49.0125 84.0364 48.2637 84.814 47.3421 84.814C46.3629 84.814 45.6141 84.0364 45.6141 83.086ZM51.5444 101.806V86.974H54.0788V88.8748C54.914 87.4348 56.6708 86.542 58.658 86.542C61.9124 86.542 64.274 88.27 64.274 92.734V101.806H61.682V93.1084C61.682 90.3436 60.3284 88.99 58.082 88.99C55.5476 88.99 54.1364 90.718 54.1364 93.1948V101.806H51.5444ZM72.4703 102.238C68.8703 102.238 66.4223 100.366 66.1919 97.486H68.8703C69.0143 99.0124 70.4543 99.9916 72.4703 99.9916C74.3711 99.9916 75.5807 99.0988 75.5807 97.63C75.5807 96.5068 74.9471 95.902 73.4783 95.614L70.5407 95.0668C67.9775 94.5772 66.7103 93.166 66.7103 90.9772C66.7103 88.27 68.9855 86.542 72.2687 86.542C75.8111 86.542 77.9135 88.2124 78.2015 91.1788H75.5231C75.2639 89.5948 74.1407 88.7596 72.2687 88.7596C70.4543 88.7596 69.3887 89.5372 69.3887 90.862C69.3887 91.8988 70.0511 92.4748 71.5199 92.7628L74.4287 93.3388C76.9055 93.7996 78.2591 95.2396 78.2591 97.5148C78.2591 100.308 75.8975 102.238 72.4703 102.238ZM82.5222 102.123C81.3702 102.123 80.4774 101.259 80.4774 100.078C80.4774 98.9836 81.399 98.1196 82.5222 98.1196C83.6166 98.1196 84.5094 99.0124 84.5094 100.078C84.5094 101.259 83.6166 102.123 82.5222 102.123Z" fill="url(#paint0_linear_50488_3689)"/>
<defs>
<linearGradient id="paint0_linear_50488_3689" x1="-10.6793" y1="122.291" x2="-0.604849" y2="36.4307" gradientUnits="userSpaceOnUse">
<stop offset="0.22" stop-color="#F0EFFF"/>
<stop offset="1" stop-color="#7132F5"/>
</linearGradient>
</defs>
</svg>
