<svg width="300" height="250" viewBox="0 0 300 250" fill="none" xmlns="http://www.w3.org/2000/svg">
<path d="M15.108 216L15.108 210.36L17.068 210.36C18.1 210.36 19.02 210.912 19.02 212.064C19.02 213.216 18.1 213.768 17.068 213.768L15.86 213.768L15.86 216L15.108 216ZM15.86 213.08L17.052 213.08C17.644 213.08 18.244 212.816 18.244 212.064C18.244 211.312 17.644 211.048 17.052 211.048L15.86 211.048L15.86 213.08ZM21.3987 216.12C20.1347 216.12 19.3027 215.24 19.3027 213.936C19.3027 212.64 20.1347 211.76 21.3987 211.76C22.6707 211.76 23.5027 212.64 23.5027 213.936C23.5027 215.24 22.6707 216.12 21.3987 216.12ZM20.0467 213.936C20.0467 214.88 20.5747 215.44 21.3987 215.44C22.2307 215.44 22.7587 214.88 22.7587 213.936C22.7587 213 22.2307 212.44 21.3987 212.44C20.5747 212.44 20.0467 213 20.0467 213.936ZM25.1037 216L23.7197 211.88L24.4877 211.88L25.1517 214.016C25.2717 214.384 25.3757 214.744 25.4957 215.136L25.8477 214.016L26.5357 211.88L27.2877 211.88L27.9757 214.016L28.3277 215.136C28.4477 214.744 28.5517 214.384 28.6717 214.016L29.3357 211.88L30.1037 211.88L28.7197 216L27.9677 216L27.2877 213.864L26.9117 212.72C26.7837 213.112 26.6637 213.48 26.5357 213.864L25.8557 216L25.1037 216ZM32.4061 216.12C31.1341 216.12 30.3261 215.264 30.3261 213.92C30.3261 212.632 31.1501 211.76 32.3421 211.76C33.5261 211.76 34.3581 212.56 34.3581 213.704C34.3581 214.032 34.3581 214.104 34.3421 214.176L31.0781 214.176C31.1261 214.984 31.6301 215.48 32.4141 215.48C32.9661 215.48 33.3501 215.24 33.5421 214.8L34.2861 214.8C34.0701 215.624 33.3741 216.12 32.4061 216.12ZM31.0781 213.584L33.5981 213.584C33.5661 212.848 33.0861 212.392 32.3421 212.392C31.6301 212.392 31.1581 212.832 31.0781 213.584ZM35.0974 216L35.0974 211.88L35.8014 211.88L35.8014 212.568C36.0014 212.08 36.3614 211.792 36.9294 211.792C37.0494 211.792 37.1694 211.816 37.2334 211.832L37.2334 212.568C37.1694 212.552 37.0334 212.528 36.8974 212.528C36.1934 212.528 35.8174 213.08 35.8174 213.96L35.8174 216L35.0974 216ZM39.5389 216.12C38.2669 216.12 37.4589 215.264 37.4589 213.92C37.4589 212.632 38.2829 211.76 39.4749 211.76C40.6589 211.76 41.4909 212.56 41.4909 213.704C41.4909 214.032 41.4909 214.104 41.4749 214.176L38.2109 214.176C38.2589 214.984 38.7629 215.48 39.5469 215.48C40.0989 215.48 40.4829 215.24 40.6749 214.8L41.4189 214.8C41.2029 215.624 40.5069 216.12 39.5389 216.12ZM38.2109 213.584L40.7309 213.584C40.6989 212.848 40.2189 212.392 39.4749 212.392C38.7629 212.392 38.2909 212.832 38.2109 213.584ZM43.9418 216.12C42.7818 216.12 42.0058 215.232 42.0058 213.936C42.0058 212.648 42.7418 211.76 43.9658 211.76C44.4458 211.76 45.0218 211.992 45.3018 212.448L45.3018 210.36L46.0218 210.36L46.0218 216L45.3178 216L45.3178 215.408C45.0298 215.88 44.4778 216.12 43.9418 216.12ZM42.7498 213.936C42.7498 214.88 43.2218 215.44 44.0378 215.44C44.7898 215.44 45.3418 214.88 45.3418 213.936C45.3418 213 44.7898 212.44 44.0378 212.44C43.2218 212.44 42.7498 213 42.7498 213.936ZM50.7243 216.12C50.1883 216.12 49.6362 215.88 49.3482 215.408L49.3482 216L48.6442 216L48.6443 210.36L49.3643 210.36L49.3643 212.448C49.6443 211.992 50.2203 211.76 50.7003 211.76C51.9243 211.76 52.6603 212.648 52.6603 213.936C52.6603 215.232 51.8843 216.12 50.7243 216.12ZM49.3243 213.936C49.3243 214.88 49.8762 215.44 50.6283 215.44C51.4443 215.44 51.9163 214.88 51.9163 213.936C51.9163 213 51.4443 212.44 50.6283 212.44C49.8763 212.44 49.3243 213 49.3243 213.936ZM53.694 217.32L54.502 215.568L52.79 211.88L53.606 211.88L54.582 214.032C54.686 214.28 54.798 214.528 54.902 214.768C55.006 214.52 55.118 214.272 55.222 214.032L56.158 211.88L56.974 211.88L54.502 217.32L53.694 217.32ZM59.2721 216L59.2721 210.36L61.2561 210.36C62.8081 210.36 63.8721 211.552 63.8721 213.184C63.8721 214.808 62.8081 216 61.2561 216L59.2721 216ZM60.0241 215.296L61.2161 215.296C62.2721 215.296 63.0881 214.576 63.0881 213.184C63.0881 211.784 62.2721 211.064 61.2161 211.064L60.0241 211.064L60.0241 215.296ZM64.8111 216L64.8111 210.36L65.5631 210.36L65.5631 215.296L68.0831 215.296L68.0831 216L64.8111 216ZM69.4591 216L69.4591 211.064L67.6351 211.064L67.6351 210.36L72.0351 210.36L72.0351 211.064L70.2111 211.064L70.2111 216L69.4591 216ZM74.3892 216L74.3893 210.36L77.7493 210.36L77.7493 211.064L75.1413 211.064L75.1412 212.856L77.5653 212.856L77.5653 213.56L75.1412 213.56L75.1412 216L74.3892 216ZM78.4489 216L78.4489 211.88L79.1689 211.88L79.1689 216L78.4489 216ZM78.3369 210.8C78.3369 210.552 78.5449 210.328 78.8169 210.328C79.0729 210.328 79.2809 210.552 79.2809 210.8C79.2809 211.064 79.0729 211.28 78.8169 211.28C78.5449 211.28 78.3369 211.064 78.3369 210.8ZM80.1442 216L80.1443 211.88L80.8483 211.88L80.8483 212.408C81.0803 212.008 81.5683 211.76 82.1203 211.76C83.0243 211.76 83.6803 212.24 83.6803 213.48L83.6803 216L82.9603 216L82.9603 213.584C82.9603 212.816 82.5843 212.44 81.9603 212.44C81.2563 212.44 80.8643 212.92 80.8643 213.608L80.8643 216L80.1442 216ZM85.853 216.12C85.021 216.12 84.413 215.672 84.413 214.896C84.413 214.12 84.965 213.768 85.613 213.648L86.621 213.456C86.965 213.392 87.165 213.304 87.165 212.992C87.165 212.632 86.861 212.392 86.253 212.392C85.757 212.392 85.325 212.592 85.269 213.048L84.525 213.048C84.573 212.24 85.309 211.76 86.261 211.76C87.413 211.76 87.885 212.336 87.885 213.016L87.885 215.128C87.885 215.32 87.973 215.416 88.133 215.416C88.269 215.416 88.349 215.384 88.421 215.336L88.421 215.92C88.309 216.016 88.117 216.08 87.885 216.08C87.549 216.08 87.261 215.864 87.189 215.512C86.997 215.784 86.597 216.12 85.853 216.12ZM85.157 214.872C85.157 215.288 85.509 215.488 85.981 215.488C86.645 215.488 87.165 215.112 87.165 214.528L87.165 213.864C87.085 213.952 86.837 214.024 86.541 214.08L85.869 214.208C85.389 214.296 85.157 214.504 85.157 214.872ZM88.9567 216L88.9568 211.88L89.6608 211.88L89.6608 212.408C89.8928 212.008 90.3808 211.76 90.9328 211.76C91.8368 211.76 92.4928 212.24 92.4928 213.48L92.4928 216L91.7728 216L91.7728 213.584C91.7728 212.816 91.3968 212.44 90.7728 212.44C90.0688 212.44 89.6768 212.92 89.6768 213.608L89.6768 216L88.9567 216ZM95.2489 216.12C94.0009 216.12 93.2089 215.232 93.2089 213.936C93.2089 212.648 93.9929 211.76 95.2649 211.76C96.4089 211.76 97.0889 212.456 97.1529 213.232L96.4089 213.232C96.2889 212.68 95.8089 212.44 95.2569 212.44C94.4409 212.44 93.9529 212.976 93.9529 213.936C93.9529 214.904 94.4409 215.44 95.2489 215.44C95.8089 215.44 96.2889 215.2 96.4089 214.584L97.1529 214.584C97.0889 215.424 96.4169 216.12 95.2489 216.12ZM99.8124 216.12C98.5404 216.12 97.7324 215.264 97.7324 213.92C97.7324 212.632 98.5564 211.76 99.7484 211.76C100.932 211.76 101.764 212.56 101.764 213.704C101.764 214.032 101.764 214.104 101.748 214.176L98.4844 214.176C98.5324 214.984 99.0364 215.48 99.8204 215.48C100.372 215.48 100.756 215.24 100.948 214.8L101.692 214.8C101.476 215.624 100.78 216.12 99.8124 216.12ZM98.4844 213.584L101.004 213.584C100.972 212.848 100.492 212.392 99.7484 212.392C99.0364 212.392 98.5644 212.832 98.4844 213.584ZM102.576 217.072C102.84 216.728 103.064 216.392 103.152 216.024C103.096 216.064 103.016 216.088 102.928 216.088C102.624 216.088 102.4 215.848 102.4 215.536C102.4 215.208 102.648 214.976 102.992 214.976C103.344 214.976 103.632 215.208 103.632 215.712C103.632 216.184 103.392 216.696 103.112 217.072L102.576 217.072ZM107.992 216.12C106.72 216.12 105.912 215.264 105.912 213.92C105.912 212.632 106.736 211.76 107.928 211.76C109.112 211.76 109.944 212.56 109.944 213.704C109.944 214.032 109.944 214.104 109.928 214.176L106.664 214.176C106.712 214.984 107.216 215.48 108 215.48C108.552 215.48 108.936 215.24 109.128 214.8L109.872 214.8C109.656 215.624 108.96 216.12 107.992 216.12ZM106.664 213.584L109.184 213.584C109.152 212.848 108.672 212.392 107.928 212.392C107.216 212.392 106.744 212.832 106.664 213.584ZM110.683 216L110.683 211.88L111.403 211.88L111.403 216L110.683 216ZM110.571 210.8C110.571 210.552 110.779 210.328 111.051 210.328C111.307 210.328 111.515 210.552 111.515 210.8C111.515 211.064 111.307 211.28 111.051 211.28C110.779 211.28 110.571 211.064 110.571 210.8ZM112.379 216L112.379 211.88L113.083 211.88L113.083 212.408C113.315 212.008 113.803 211.76 114.355 211.76C115.259 211.76 115.915 212.24 115.915 213.48L115.915 216L115.195 216L115.195 213.584C115.195 212.816 114.819 212.44 114.195 212.44C113.491 212.44 113.099 212.92 113.099 213.608L113.099 216L112.379 216ZM118.711 216.12C117.439 216.12 116.631 215.264 116.631 213.92C116.631 212.632 117.455 211.76 118.647 211.76C119.831 211.76 120.663 212.56 120.663 213.704C120.663 214.032 120.663 214.104 120.647 214.176L117.383 214.176C117.431 214.984 117.935 215.48 118.719 215.48C119.271 215.48 119.655 215.24 119.847 214.8L120.591 214.8C120.375 215.624 119.679 216.12 118.711 216.12ZM117.383 213.584L119.903 213.584C119.871 212.848 119.391 212.392 118.647 212.392C117.935 212.392 117.463 212.832 117.383 213.584ZM121.402 216L121.402 211.88L122.106 211.88L122.106 212.568C122.306 212.08 122.666 211.792 123.234 211.792C123.354 211.792 123.474 211.816 123.538 211.832L123.538 212.568C123.474 212.552 123.338 212.528 123.202 212.528C122.498 212.528 122.122 213.08 122.122 213.96L122.122 216L121.402 216ZM125.842 216L125.842 210.36L126.858 210.36L128.282 213.856C128.45 214.264 128.61 214.664 128.778 215.08L128.786 215.08C128.946 214.664 129.106 214.264 129.274 213.856L130.698 210.36L131.714 210.36L131.714 216L131.002 216L131.002 211.384C130.874 211.712 130.738 212.04 130.618 212.352L129.65 214.672L129.106 216L128.45 216L127.914 214.672L126.946 212.352C126.818 212.04 126.682 211.712 126.554 211.384L126.554 216L125.842 216ZM134.048 216.12C133.216 216.12 132.608 215.672 132.608 214.896C132.608 214.12 133.16 213.768 133.808 213.648L134.816 213.456C135.16 213.392 135.36 213.304 135.36 212.992C135.36 212.632 135.056 212.392 134.448 212.392C133.952 212.392 133.52 212.592 133.464 213.048L132.72 213.048C132.768 212.24 133.504 211.76 134.456 211.76C135.608 211.76 136.08 212.336 136.08 213.016L136.08 215.128C136.08 215.32 136.168 215.416 136.328 215.416C136.464 215.416 136.544 215.384 136.616 215.336L136.616 215.92C136.504 216.016 136.312 216.08 136.08 216.08C135.744 216.08 135.456 215.864 135.384 215.512C135.192 215.784 134.792 216.12 134.048 216.12ZM133.352 214.872C133.352 215.288 133.704 215.488 134.176 215.488C134.84 215.488 135.36 215.112 135.36 214.528L135.36 213.864C135.28 213.952 135.032 214.024 134.736 214.08L134.064 214.208C133.584 214.296 133.352 214.504 133.352 214.872ZM137.152 216L137.152 211.88L137.856 211.88L137.856 212.568C138.056 212.08 138.416 211.792 138.984 211.792C139.104 211.792 139.224 211.816 139.288 211.832L139.288 212.568C139.224 212.552 139.088 212.528 138.952 212.528C138.248 212.528 137.872 213.08 137.872 213.96L137.872 216L137.152 216ZM142.456 211.88L143.384 211.88L141.72 213.512L143.472 216L142.632 216L141.232 214.008L140.544 214.664L140.544 216L139.824 216L139.824 210.36L140.544 210.36L140.544 213.768L142.456 211.88ZM145.851 216.12C144.579 216.12 143.771 215.264 143.771 213.92C143.771 212.632 144.595 211.76 145.787 211.76C146.971 211.76 147.803 212.56 147.803 213.704C147.803 214.032 147.803 214.104 147.787 214.176L144.523 214.176C144.571 214.984 145.075 215.48 145.859 215.48C146.411 215.48 146.795 215.24 146.987 214.8L147.731 214.8C147.515 215.624 146.819 216.12 145.851 216.12ZM144.523 213.584L147.043 213.584C147.011 212.848 146.531 212.392 145.787 212.392C145.075 212.392 144.603 212.832 144.523 213.584ZM151.439 216L149.743 211.88L150.559 211.88L151.367 214C151.519 214.384 151.663 214.76 151.807 215.144L152.255 214L153.063 211.88L153.879 211.88L152.183 216L151.439 216ZM156.141 216.12C154.877 216.12 154.045 215.24 154.045 213.936C154.045 212.64 154.877 211.76 156.141 211.76C157.413 211.76 158.245 212.64 158.245 213.936C158.245 215.24 157.413 216.12 156.141 216.12ZM154.789 213.936C154.789 214.88 155.317 215.44 156.141 215.44C156.973 215.44 157.501 214.88 157.501 213.936C157.501 213 156.973 212.44 156.141 212.44C155.317 212.44 154.789 213 154.789 213.936ZM158.98 216L158.98 211.88L159.684 211.88L159.684 212.408C159.916 212.008 160.404 211.76 160.956 211.76C161.86 211.76 162.516 212.24 162.516 213.48L162.516 216L161.796 216L161.796 213.584C161.796 212.816 161.42 212.44 160.796 212.44C160.092 212.44 159.7 212.92 159.7 213.608L159.7 216L158.98 216ZM165.217 216L165.217 210.36L167.201 210.36C168.753 210.36 169.817 211.552 169.817 213.184C169.817 214.808 168.753 216 167.201 216L165.217 216ZM165.969 215.296L167.161 215.296C168.217 215.296 169.033 214.576 169.033 213.184C169.033 211.784 168.217 211.064 167.161 211.064L165.969 211.064L165.969 215.296ZM170.756 216L170.756 210.36L171.508 210.36L171.508 215.296L174.028 215.296L174.028 216L170.756 216ZM175.404 216L175.404 211.064L173.58 211.064L173.58 210.36L177.98 210.36L177.98 211.064L176.156 211.064L176.156 216L175.404 216ZM182.159 216.12C180.887 216.12 180.047 215.432 179.983 214.344L180.759 214.344C180.823 215.024 181.383 215.456 182.167 215.456C182.887 215.456 183.367 215.096 183.367 214.488C183.367 214 183.143 213.72 182.487 213.56L181.439 213.304C180.599 213.096 180.159 212.6 180.159 211.824C180.159 210.936 180.895 210.24 182.055 210.24C183.263 210.24 184.039 210.848 184.135 211.92L183.359 211.92C183.231 211.224 182.759 210.904 182.079 210.904C181.311 210.904 180.935 211.256 180.935 211.784C180.935 212.264 181.223 212.496 181.799 212.64L182.791 212.88C183.735 213.112 184.151 213.608 184.151 214.456C184.151 215.448 183.295 216.12 182.159 216.12ZM186.812 216.12C185.54 216.12 184.732 215.264 184.732 213.92C184.732 212.632 185.556 211.76 186.748 211.76C187.932 211.76 188.764 212.56 188.764 213.704C188.764 214.032 188.764 214.104 188.748 214.176L185.484 214.176C185.532 214.984 186.036 215.48 186.82 215.48C187.372 215.48 187.756 215.24 187.948 214.8L188.692 214.8C188.476 215.624 187.78 216.12 186.812 216.12ZM185.484 213.584L188.004 213.584C187.972 212.848 187.492 212.392 186.748 212.392C186.036 212.392 185.564 212.832 185.484 213.584ZM191.304 216.12C190.056 216.12 189.264 215.232 189.264 213.936C189.264 212.648 190.048 211.76 191.32 211.76C192.464 211.76 193.144 212.456 193.208 213.232L192.464 213.232C192.344 212.68 191.864 212.44 191.312 212.44C190.496 212.44 190.008 212.976 190.008 213.936C190.008 214.904 190.496 215.44 191.304 215.44C191.864 215.44 192.344 215.2 192.464 214.584L193.208 214.584C193.144 215.424 192.472 216.12 191.304 216.12ZM197.467 211.88L197.467 216L196.763 216L196.763 215.472C196.539 215.872 196.075 216.12 195.475 216.12C194.643 216.12 193.987 215.64 193.987 214.4L193.987 211.88L194.707 211.88L194.707 214.296C194.707 215.064 195.075 215.44 195.675 215.44C196.363 215.44 196.747 214.952 196.747 214.272L196.747 211.88L197.467 211.88ZM198.441 216L198.441 211.88L199.145 211.88L199.145 212.568C199.345 212.08 199.705 211.792 200.273 211.792C200.393 211.792 200.513 211.816 200.577 211.832L200.577 212.568C200.513 212.552 200.377 212.528 200.241 212.528C199.537 212.528 199.161 213.08 199.161 213.96L199.161 216L198.441 216ZM201.113 216L201.113 211.88L201.833 211.88L201.833 216L201.113 216ZM201.001 210.8C201.001 210.552 201.209 210.328 201.481 210.328C201.737 210.328 201.945 210.552 201.945 210.8C201.945 211.064 201.737 211.28 201.481 211.28C201.209 211.28 201.001 211.064 201.001 210.8ZM204.057 216.08C203.529 216.08 203.121 215.776 203.121 215.112L203.121 212.536L202.393 212.536L202.393 211.928L202.625 211.928C203.073 211.928 203.177 211.792 203.177 211.328L203.177 210.904L203.849 210.904L203.849 211.88L204.777 211.88L204.777 212.536L203.849 212.536L203.849 214.896C203.849 215.248 203.993 215.384 204.281 215.384C204.449 215.384 204.601 215.352 204.777 215.272L204.777 215.936C204.569 216.04 204.393 216.08 204.057 216.08ZM205.722 216L205.722 211.88L206.442 211.88L206.442 216L205.722 216ZM205.61 210.8C205.61 210.552 205.818 210.328 206.09 210.328C206.346 210.328 206.554 210.552 206.554 210.8C206.554 211.064 206.346 211.28 206.09 211.28C205.818 211.28 205.61 211.064 205.61 210.8ZM209.258 216.12C207.986 216.12 207.178 215.264 207.178 213.92C207.178 212.632 208.002 211.76 209.194 211.76C210.378 211.76 211.21 212.56 211.21 213.704C211.21 214.032 211.21 214.104 211.194 214.176L207.93 214.176C207.978 214.984 208.482 215.48 209.266 215.48C209.818 215.48 210.202 215.24 210.394 214.8L211.138 214.8C210.922 215.624 210.226 216.12 209.258 216.12ZM207.93 213.584L210.45 213.584C210.418 212.848 209.938 212.392 209.194 212.392C208.482 212.392 208.01 212.832 207.93 213.584ZM213.508 216.12C212.508 216.12 211.828 215.6 211.764 214.8L212.508 214.8C212.548 215.224 212.948 215.496 213.508 215.496C214.036 215.496 214.372 215.248 214.372 214.84C214.372 214.528 214.196 214.36 213.788 214.28L212.972 214.128C212.26 213.992 211.908 213.6 211.908 212.992C211.908 212.24 212.54 211.76 213.452 211.76C214.436 211.76 215.02 212.224 215.1 213.048L214.356 213.048C214.284 212.608 213.972 212.376 213.452 212.376C212.948 212.376 212.652 212.592 212.652 212.96C212.652 213.248 212.836 213.408 213.244 213.488L214.052 213.648C214.74 213.776 215.116 214.176 215.116 214.808C215.116 215.584 214.46 216.12 213.508 216.12ZM220.102 216.12C218.534 216.12 217.422 214.904 217.422 213.176C217.422 211.432 218.55 210.24 220.198 210.24C221.558 210.24 222.574 211.016 222.71 212.152L221.918 212.152C221.734 211.384 221.11 210.952 220.198 210.952C218.982 210.952 218.198 211.824 218.198 213.176C218.198 214.52 218.998 215.408 220.182 215.408C221.278 215.408 221.91 214.832 221.966 213.808L219.958 213.808L219.958 213.136L222.726 213.136L222.726 216L222.062 216L222.062 215.032C221.782 215.704 221.054 216.12 220.102 216.12ZM223.675 216L223.676 211.88L224.38 211.88L224.38 212.408C224.603 212 225.076 211.76 225.66 211.76C226.268 211.76 226.724 212.016 226.948 212.48C227.244 212.008 227.724 211.76 228.348 211.76C229.332 211.76 229.868 212.368 229.868 213.48L229.868 216L229.148 216L229.148 213.576C229.148 212.84 228.812 212.44 228.187 212.44C227.54 212.44 227.132 212.888 227.132 213.6L227.132 216L226.412 216L226.412 213.576C226.412 212.84 226.076 212.44 225.46 212.44C224.804 212.44 224.396 212.888 224.396 213.6L224.396 216L223.675 216ZM232.881 216.12C232.345 216.12 231.792 215.88 231.504 215.408L231.504 216L230.8 216L230.801 210.36L231.521 210.36L231.521 212.448C231.801 211.992 232.377 211.76 232.857 211.76C234.081 211.76 234.817 212.648 234.817 213.936C234.817 215.232 234.041 216.12 232.881 216.12ZM231.481 213.936C231.481 214.88 232.032 215.44 232.785 215.44C233.601 215.44 234.073 214.88 234.073 213.936C234.073 213 233.601 212.44 232.785 212.44C232.033 212.44 231.481 213 231.481 213.936ZM235.647 216L235.647 210.36L236.399 210.36L236.399 212.72L239.335 212.72L239.335 210.36L240.087 210.36L240.087 216L239.335 216L239.335 213.424L236.399 213.424L236.399 216L235.647 216ZM18.428 221.88L18.428 226L17.724 226L17.724 225.472C17.5 225.872 17.036 226.12 16.436 226.12C15.604 226.12 14.948 225.64 14.948 224.4L14.948 221.88L15.668 221.88L15.668 224.296C15.668 225.064 16.036 225.44 16.636 225.44C17.324 225.44 17.708 224.952 17.708 224.272L17.708 221.88L18.428 221.88ZM19.4021 226L19.4021 221.88L20.1061 221.88L20.1061 222.408C20.3381 222.008 20.8261 221.76 21.3781 221.76C22.2821 221.76 22.9381 222.24 22.9381 223.48L22.9381 226L22.2181 226L22.2181 223.584C22.2181 222.816 21.8421 222.44 21.2181 222.44C20.5141 222.44 20.1221 222.92 20.1221 223.608L20.1221 226L19.4021 226ZM25.5902 226.12C24.4302 226.12 23.6542 225.232 23.6542 223.936C23.6542 222.648 24.3902 221.76 25.6143 221.76C26.0943 221.76 26.6703 221.992 26.9503 222.448L26.9503 220.36L27.6703 220.36L27.6703 226L26.9663 226L26.9663 225.408C26.6782 225.88 26.1262 226.12 25.5902 226.12ZM24.3982 223.936C24.3982 224.88 24.8703 225.44 25.6863 225.44C26.4382 225.44 26.9903 224.88 26.9903 223.936C26.9903 223 26.4382 222.44 25.6863 222.44C24.8703 222.44 24.3982 223 24.3982 223.936ZM30.4127 226L30.4127 220.36L32.3967 220.36C33.9487 220.36 35.0127 221.552 35.0127 223.184C35.0127 224.808 33.9487 226 32.3967 226L30.4127 226ZM31.1647 225.296L32.3567 225.296C33.4127 225.296 34.2287 224.576 34.2287 223.184C34.2287 221.784 33.4127 221.064 32.3567 221.064L31.1647 221.064L31.1647 225.296ZM35.9517 226L35.9517 220.36L36.7037 220.36L36.7037 225.296L39.2238 225.296L39.2238 226L35.9517 226ZM40.5997 226L40.5997 221.064L38.7757 221.064L38.7757 220.36L43.1757 220.36L43.1757 221.064L41.3517 221.064L41.3517 226L40.5997 226ZM48.0419 226.12C46.4259 226.12 45.2499 224.936 45.2499 223.184C45.2499 221.424 46.4259 220.24 48.0419 220.24C49.4339 220.24 50.5059 221.144 50.5779 222.288L49.8019 222.288C49.6419 221.464 48.9619 220.96 48.0339 220.96C46.8659 220.96 46.0259 221.8 46.0259 223.184C46.0259 224.56 46.8659 225.4 48.0339 225.4C48.9619 225.4 49.6419 224.896 49.8019 224.072L50.5779 224.072C50.4899 225.216 49.4339 226.12 48.0419 226.12ZM54.8655 221.88L54.8655 226L54.1615 226L54.1615 225.472C53.9375 225.872 53.4735 226.12 52.8735 226.12C52.0415 226.12 51.3855 225.64 51.3855 224.4L51.3855 221.88L52.1055 221.88L52.1055 224.296C52.1055 225.064 52.4735 225.44 53.0735 225.44C53.7615 225.44 54.1455 224.952 54.1455 224.272L54.1455 221.88L54.8655 221.88ZM57.3436 226.12C56.3436 226.12 55.6636 225.6 55.5996 224.8L56.3436 224.8C56.3836 225.224 56.7836 225.496 57.3436 225.496C57.8716 225.496 58.2076 225.248 58.2076 224.84C58.2076 224.528 58.0316 224.36 57.6236 224.28L56.8076 224.128C56.0956 223.992 55.7436 223.6 55.7436 222.992C55.7436 222.24 56.3756 221.76 57.2876 221.76C58.2716 221.76 58.8556 222.224 58.9356 223.048L58.1916 223.048C58.1196 222.608 57.8076 222.376 57.2876 222.376C56.7836 222.376 56.4876 222.592 56.4876 222.96C56.4876 223.248 56.6716 223.408 57.0796 223.488L57.8876 223.648C58.5756 223.776 58.9516 224.176 58.9516 224.808C58.9516 225.584 58.2956 226.12 57.3436 226.12ZM61.0176 226.08C60.4896 226.08 60.0816 225.776 60.0816 225.112L60.0816 222.536L59.3536 222.536L59.3536 221.928L59.5856 221.928C60.0336 221.928 60.1376 221.792 60.1376 221.328L60.1376 220.904L60.8096 220.904L60.8096 221.88L61.7376 221.88L61.7376 222.536L60.8096 222.536L60.8096 224.896C60.8096 225.248 60.9536 225.384 61.2416 225.384C61.4096 225.384 61.5616 225.352 61.7376 225.272L61.7376 225.936C61.5296 226.04 61.3536 226.08 61.0176 226.08ZM64.4143 226.12C63.1503 226.12 62.3183 225.24 62.3183 223.936C62.3183 222.64 63.1503 221.76 64.4143 221.76C65.6863 221.76 66.5183 222.64 66.5183 223.936C66.5183 225.24 65.6863 226.12 64.4143 226.12ZM63.0623 223.936C63.0623 224.88 63.5903 225.44 64.4143 225.44C65.2463 225.44 65.7743 224.88 65.7743 223.936C65.7743 223 65.2463 222.44 64.4143 222.44C63.5903 222.44 63.0623 223 63.0623 223.936ZM68.9496 226.12C67.7896 226.12 67.0136 225.232 67.0136 223.936C67.0136 222.648 67.7496 221.76 68.9736 221.76C69.4536 221.76 70.0296 221.992 70.3096 222.448L70.3096 220.36L71.0296 220.36L71.0296 226L70.3256 226L70.3256 225.408C70.0376 225.88 69.4856 226.12 68.9496 226.12ZM67.7576 223.936C67.7576 224.88 68.2296 225.44 69.0456 225.44C69.7976 225.44 70.3496 224.88 70.3496 223.936C70.3496 223 69.7976 222.44 69.0456 222.44C68.2296 222.44 67.7576 223 67.7576 223.936ZM72.4596 227.32L73.2676 225.568L71.5556 221.88L72.3716 221.88L73.3476 224.032C73.4516 224.28 73.5636 224.528 73.6676 224.768C73.7716 224.52 73.8836 224.272 73.9876 224.032L74.9236 221.88L75.7396 221.88L73.2676 227.32L72.4596 227.32ZM80.4377 226.12C78.8697 226.12 77.7577 224.904 77.7577 223.176C77.7577 221.432 78.8857 220.24 80.5337 220.24C81.8937 220.24 82.9097 221.016 83.0457 222.152L82.2537 222.152C82.0697 221.384 81.4457 220.952 80.5337 220.952C79.3177 220.952 78.5337 221.824 78.5337 223.176C78.5337 224.52 79.3337 225.408 80.5177 225.408C81.6137 225.408 82.2457 224.832 82.3017 223.808L80.2937 223.808L80.2937 223.136L83.0617 223.136L83.0617 226L82.3977 226L82.3977 225.032C82.1177 225.704 81.3897 226.12 80.4377 226.12ZM84.0114 226L84.0114 221.88L84.7154 221.88L84.7154 222.408C84.9394 222 85.4114 221.76 85.9954 221.76C86.6034 221.76 87.0594 222.016 87.2834 222.48C87.5794 222.008 88.0594 221.76 88.6834 221.76C89.6674 221.76 90.2034 222.368 90.2034 223.48L90.2034 226L89.4834 226L89.4834 223.576C89.4834 222.84 89.1474 222.44 88.5234 222.44C87.8754 222.44 87.4674 222.888 87.4674 223.6L87.4674 226L86.7474 226L86.7474 223.576C86.7474 222.84 86.4114 222.44 85.7954 222.44C85.1394 222.44 84.7314 222.888 84.7314 223.6L84.7314 226L84.0114 226ZM93.2164 226.12C92.6804 226.12 92.1284 225.88 91.8404 225.408L91.8404 226L91.1364 226L91.1364 220.36L91.8564 220.36L91.8564 222.448C92.1364 221.992 92.7124 221.76 93.1924 221.76C94.4164 221.76 95.1524 222.648 95.1524 223.936C95.1524 225.232 94.3764 226.12 93.2164 226.12ZM91.8164 223.936C91.8164 224.88 92.3684 225.44 93.1204 225.44C93.9364 225.44 94.4084 224.88 94.4084 223.936C94.4084 223 93.9364 222.44 93.1204 222.44C92.3684 222.44 91.8164 223 91.8164 223.936ZM95.983 226L95.983 220.36L96.735 220.36L96.735 222.72L99.671 222.72L99.671 220.36L100.423 220.36L100.423 226L99.671 226L99.671 223.424L96.735 223.424L96.735 226L95.983 226ZM101.983 226.088C101.663 226.088 101.415 225.848 101.415 225.52C101.415 225.216 101.671 224.976 101.983 224.976C102.287 224.976 102.535 225.224 102.535 225.52C102.535 225.848 102.287 226.088 101.983 226.088ZM105.178 226L105.178 220.36L107.386 220.36C108.426 220.36 109.042 220.992 109.042 221.84C109.042 222.432 108.722 222.84 108.258 223.024C108.826 223.184 109.194 223.728 109.194 224.432C109.194 225.344 108.578 226 107.53 226L105.178 226ZM105.93 225.344L107.418 225.344C108.042 225.344 108.41 224.984 108.41 224.376C108.41 223.76 108.042 223.392 107.418 223.392L105.93 223.392L105.93 225.344ZM105.93 222.76L107.298 222.76C107.914 222.76 108.266 222.408 108.266 221.88C108.266 221.352 107.914 221.016 107.298 221.016L105.93 221.016L105.93 222.76ZM111.859 226.12C110.587 226.12 109.779 225.264 109.779 223.92C109.779 222.632 110.603 221.76 111.795 221.76C112.979 221.76 113.811 222.56 113.811 223.704C113.811 224.032 113.811 224.104 113.795 224.176L110.531 224.176C110.579 224.984 111.083 225.48 111.867 225.48C112.419 225.48 112.803 225.24 112.995 224.8L113.739 224.8C113.523 225.624 112.827 226.12 111.859 226.12ZM110.531 223.584L113.051 223.584C113.019 222.848 112.539 222.392 111.795 222.392C111.083 222.392 110.611 222.832 110.531 223.584ZM114.55 226L114.55 221.88L115.27 221.88L115.27 226L114.55 226ZM114.438 220.8C114.438 220.552 114.646 220.328 114.918 220.328C115.175 220.328 115.382 220.552 115.382 220.8C115.382 221.064 115.175 221.28 114.918 221.28C114.646 221.28 114.438 221.064 114.438 220.8ZM117.942 226.12C116.782 226.12 116.006 225.232 116.006 223.936C116.006 222.648 116.742 221.76 117.966 221.76C118.446 221.76 119.022 221.992 119.302 222.448L119.302 220.36L120.022 220.36L120.022 226L119.318 226L119.318 225.408C119.03 225.88 118.478 226.12 117.942 226.12ZM116.75 223.936C116.75 224.88 117.222 225.44 118.038 225.44C118.79 225.44 119.342 224.88 119.342 223.936C119.342 223 118.79 222.44 118.038 222.44C117.222 222.44 116.75 223 116.75 223.936ZM122.836 226.12C121.564 226.12 120.756 225.264 120.756 223.92C120.756 222.632 121.58 221.76 122.772 221.76C123.956 221.76 124.788 222.56 124.788 223.704C124.788 224.032 124.788 224.104 124.772 224.176L121.508 224.176C121.556 224.984 122.06 225.48 122.844 225.48C123.396 225.48 123.78 225.24 123.972 224.8L124.716 224.8C124.5 225.624 123.804 226.12 122.836 226.12ZM121.508 223.584L124.028 223.584C123.996 222.848 123.516 222.392 122.772 222.392C122.06 222.392 121.588 222.832 121.508 223.584ZM129.311 226.12C128.023 226.12 127.215 225.352 127.215 224.032L127.215 220.36L127.968 220.36L127.967 223.968C127.967 224.88 128.479 225.408 129.311 225.408C130.143 225.408 130.656 224.88 130.656 223.968L130.656 220.36L131.408 220.36L131.408 224.032C131.408 225.352 130.6 226.12 129.311 226.12ZM132.41 226L132.41 221.88L133.114 221.88L133.114 222.408C133.346 222.008 133.834 221.76 134.386 221.76C135.29 221.76 135.946 222.24 135.946 223.48L135.946 226L135.226 226L135.226 223.584C135.226 222.816 134.85 222.44 134.226 222.44C133.522 222.44 133.13 222.92 133.13 223.608L133.13 226L132.41 226ZM138.08 226.08C137.552 226.08 137.144 225.776 137.144 225.112L137.144 222.536L136.416 222.536L136.416 221.928L136.648 221.928C137.096 221.928 137.2 221.792 137.2 221.328L137.2 220.904L137.872 220.904L137.872 221.88L138.8 221.88L138.8 222.536L137.872 222.536L137.872 224.896C137.872 225.248 138.016 225.384 138.304 225.384C138.472 225.384 138.624 225.352 138.8 225.272L138.8 225.936C138.592 226.04 138.416 226.08 138.08 226.08ZM141.461 226.12C140.189 226.12 139.381 225.264 139.381 223.92C139.381 222.632 140.205 221.76 141.397 221.76C142.581 221.76 143.413 222.56 143.413 223.704C143.413 224.032 143.413 224.104 143.397 224.176L140.133 224.176C140.181 224.984 140.685 225.48 141.469 225.48C142.021 225.48 142.405 225.24 142.597 224.8L143.341 224.8C143.125 225.624 142.429 226.12 141.461 226.12ZM140.133 223.584L142.653 223.584C142.621 222.848 142.141 222.392 141.397 222.392C140.685 222.392 140.213 222.832 140.133 223.584ZM144.152 226L144.152 221.88L144.856 221.88L144.856 222.568C145.056 222.08 145.416 221.792 145.984 221.792C146.104 221.792 146.224 221.816 146.288 221.832L146.288 222.568C146.224 222.552 146.088 222.528 145.952 222.528C145.248 222.528 144.872 223.08 144.872 223.96L144.872 226L144.152 226ZM146.824 226L146.824 221.88L147.528 221.88L147.528 222.408C147.76 222.008 148.248 221.76 148.8 221.76C149.704 221.76 150.36 222.24 150.36 223.48L150.36 226L149.64 226L149.64 223.584C149.64 222.816 149.264 222.44 148.64 222.44C147.936 222.44 147.544 222.92 147.544 223.608L147.544 226L146.824 226ZM153.156 226.12C151.884 226.12 151.076 225.264 151.076 223.92C151.076 222.632 151.9 221.76 153.092 221.76C154.276 221.76 155.108 222.56 155.108 223.704C155.108 224.032 155.108 224.104 155.092 224.176L151.828 224.176C151.876 224.984 152.38 225.48 153.164 225.48C153.716 225.48 154.1 225.24 154.292 224.8L155.036 224.8C154.82 225.624 154.124 226.12 153.156 226.12ZM151.828 223.584L154.348 223.584C154.316 222.848 153.836 222.392 153.092 222.392C152.38 222.392 151.908 222.832 151.828 223.584ZM155.847 226L155.847 220.36L156.567 220.36L156.567 222.384C156.799 222 157.287 221.76 157.823 221.76C158.727 221.76 159.383 222.24 159.383 223.48L159.383 226L158.663 226L158.663 223.584C158.663 222.816 158.287 222.44 157.671 222.44C156.959 222.44 156.567 222.928 156.567 223.608L156.567 226L155.847 226ZM160.316 226L160.316 221.88L161.02 221.88L161.02 222.408C161.244 222 161.716 221.76 162.3 221.76C162.908 221.76 163.364 222.016 163.588 222.48C163.884 222.008 164.364 221.76 164.988 221.76C165.972 221.76 166.508 222.368 166.508 223.48L166.508 226L165.788 226L165.788 223.576C165.788 222.84 165.452 222.44 164.828 222.44C164.18 222.44 163.772 222.888 163.772 223.6L163.772 226L163.052 226L163.052 223.576C163.052 222.84 162.716 222.44 162.1 222.44C161.444 222.44 161.036 222.888 161.036 223.6L161.036 226L160.316 226ZM169.305 226.12C168.033 226.12 167.225 225.264 167.225 223.92C167.225 222.632 168.049 221.76 169.241 221.76C170.425 221.76 171.257 222.56 171.257 223.704C171.257 224.032 171.257 224.104 171.241 224.176L167.977 224.176C168.025 224.984 168.529 225.48 169.313 225.48C169.865 225.48 170.249 225.24 170.441 224.8L171.185 224.8C170.969 225.624 170.273 226.12 169.305 226.12ZM167.977 223.584L170.497 223.584C170.465 222.848 169.985 222.392 169.241 222.392C168.529 222.392 168.057 222.832 167.977 223.584ZM171.996 226L171.996 221.88L172.7 221.88L172.7 222.408C172.932 222.008 173.42 221.76 173.972 221.76C174.876 221.76 175.532 222.24 175.532 223.48L175.532 226L174.812 226L174.812 223.584C174.812 222.816 174.436 222.44 173.812 222.44C173.108 222.44 172.716 222.92 172.716 223.608L172.716 226L171.996 226ZM179.049 226L177.665 221.88L178.433 221.88L179.097 224.016C179.217 224.384 179.321 224.744 179.441 225.136L179.793 224.016L180.481 221.88L181.233 221.88L181.921 224.016L182.273 225.136C182.393 224.744 182.497 224.384 182.617 224.016L183.281 221.88L184.049 221.88L182.665 226L181.913 226L181.233 223.864L180.857 222.72C180.729 223.112 180.609 223.48 180.481 223.864L179.801 226L179.049 226ZM186.351 226.12C185.079 226.12 184.271 225.264 184.271 223.92C184.271 222.632 185.095 221.76 186.287 221.76C187.471 221.76 188.303 222.56 188.303 223.704C188.303 224.032 188.303 224.104 188.287 224.176L185.023 224.176C185.071 224.984 185.575 225.48 186.359 225.48C186.911 225.48 187.295 225.24 187.487 224.8L188.231 224.8C188.015 225.624 187.319 226.12 186.351 226.12ZM185.023 223.584L187.543 223.584C187.511 222.848 187.031 222.392 186.287 222.392C185.575 222.392 185.103 222.832 185.023 223.584ZM189.043 226L189.043 221.88L189.747 221.88L189.747 222.568C189.947 222.08 190.307 221.792 190.875 221.792C190.995 221.792 191.115 221.816 191.179 221.832L191.179 222.568C191.115 222.552 190.979 222.528 190.843 222.528C190.139 222.528 189.763 223.08 189.763 223.96L189.763 226L189.043 226ZM193.348 226.12C192.188 226.12 191.412 225.232 191.412 223.936C191.412 222.648 192.148 221.76 193.372 221.76C193.852 221.76 194.428 221.992 194.708 222.448L194.708 220.36L195.428 220.36L195.428 226L194.724 226L194.724 225.408C194.436 225.88 193.884 226.12 193.348 226.12ZM192.156 223.936C192.156 224.88 192.628 225.44 193.444 225.44C194.196 225.44 194.748 224.88 194.748 223.936C194.748 223 194.196 222.44 193.444 222.44C192.628 222.44 192.156 223 192.156 223.936ZM198.242 226.12C196.97 226.12 196.162 225.264 196.162 223.92C196.162 222.632 196.986 221.76 198.178 221.76C199.362 221.76 200.194 222.56 200.194 223.704C200.194 224.032 200.194 224.104 200.178 224.176L196.914 224.176C196.962 224.984 197.466 225.48 198.25 225.48C198.802 225.48 199.186 225.24 199.378 224.8L200.122 224.8C199.906 225.624 199.21 226.12 198.242 226.12ZM196.914 223.584L199.434 223.584C199.402 222.848 198.922 222.392 198.178 222.392C197.466 222.392 196.994 222.832 196.914 223.584ZM200.933 226L200.933 221.88L201.637 221.88L201.637 222.408C201.869 222.008 202.357 221.76 202.909 221.76C203.813 221.76 204.469 222.24 204.469 223.48L204.469 226L203.749 226L203.749 223.584C203.749 222.816 203.373 222.44 202.749 222.44C202.045 222.44 201.653 222.92 201.653 223.608L201.653 226L200.933 226ZM208.746 226.12C207.586 226.12 206.81 225.232 206.81 223.936C206.81 222.648 207.546 221.76 208.771 221.76C209.251 221.76 209.827 221.992 210.107 222.448L210.107 220.36L210.827 220.36L210.827 226L210.123 226L210.123 225.408C209.834 225.88 209.282 226.12 208.746 226.12ZM207.554 223.936C207.554 224.88 208.027 225.44 208.843 225.44C209.594 225.44 210.147 224.88 210.147 223.936C210.147 223 209.594 222.44 208.843 222.44C208.027 222.44 207.554 223 207.554 223.936ZM215.241 221.88L215.241 226L214.537 226L214.537 225.472C214.313 225.872 213.848 226.12 213.248 226.12C212.416 226.12 211.76 225.64 211.76 224.4L211.76 221.88L212.481 221.88L212.481 224.296C212.48 225.064 212.848 225.44 213.449 225.44C214.137 225.44 214.521 224.952 214.521 224.272L214.521 221.88L215.241 221.88ZM216.215 226L216.215 221.88L216.919 221.88L216.919 222.568C217.119 222.08 217.479 221.792 218.047 221.792C218.167 221.792 218.287 221.816 218.351 221.832L218.351 222.568C218.287 222.552 218.151 222.528 218.015 222.528C217.311 222.528 216.935 223.08 216.935 223.96L216.935 226L216.215 226ZM220.616 226.12C219.368 226.12 218.576 225.232 218.576 223.936C218.576 222.648 219.36 221.76 220.632 221.76C221.776 221.76 222.456 222.456 222.52 223.232L221.776 223.232C221.656 222.68 221.176 222.44 220.624 222.44C219.808 222.44 219.32 222.976 219.32 223.936C219.32 224.904 219.808 225.44 220.616 225.44C221.176 225.44 221.656 225.2 221.776 224.584L222.52 224.584C222.456 225.424 221.784 226.12 220.616 226.12ZM223.332 226L223.332 220.36L224.052 220.36L224.052 222.384C224.284 222 224.772 221.76 225.308 221.76C226.212 221.76 226.868 222.24 226.868 223.48L226.868 226L226.148 226L226.148 223.584C226.148 222.816 225.772 222.44 225.156 222.44C224.444 222.44 224.052 222.928 224.052 223.608L224.052 226L223.332 226ZM231.145 226.12C229.985 226.12 229.209 225.232 229.209 223.936C229.209 222.648 229.945 221.76 231.169 221.76C231.649 221.76 232.225 221.992 232.505 222.448L232.505 220.36L233.225 220.36L233.225 226L232.521 226L232.521 225.408C232.233 225.88 231.681 226.12 231.145 226.12ZM229.953 223.936C229.953 224.88 230.425 225.44 231.241 225.44C231.993 225.44 232.545 224.88 232.545 223.936C232.545 223 231.993 222.44 231.241 222.44C230.425 222.44 229.953 223 229.953 223.936ZM234.199 226L234.199 221.88L234.919 221.88L234.919 226L234.199 226ZM234.087 220.8C234.087 220.552 234.295 220.328 234.567 220.328C234.823 220.328 235.031 220.552 235.031 220.8C235.031 221.064 234.823 221.28 234.567 221.28C234.295 221.28 234.087 221.064 234.087 220.8ZM237.734 226.12C236.462 226.12 235.654 225.264 235.654 223.92C235.654 222.632 236.478 221.76 237.67 221.76C238.854 221.76 239.686 222.56 239.686 223.704C239.686 224.032 239.686 224.104 239.67 224.176L236.406 224.176C236.454 224.984 236.958 225.48 237.742 225.48C238.294 225.48 238.678 225.24 238.87 224.8L239.614 224.8C239.398 225.624 238.702 226.12 237.734 226.12ZM236.406 223.584L238.926 223.584C238.894 222.848 238.414 222.392 237.67 222.392C236.958 222.392 236.486 222.832 236.406 223.584ZM15.108 236L15.108 230.36L17.316 230.36C18.356 230.36 18.972 230.992 18.972 231.84C18.972 232.432 18.652 232.84 18.188 233.024C18.756 233.184 19.124 233.728 19.124 234.432C19.124 235.344 18.508 236 17.46 236L15.108 236ZM15.86 235.344L17.348 235.344C17.972 235.344 18.34 234.984 18.34 234.376C18.34 233.76 17.972 233.392 17.348 233.392L15.86 233.392L15.86 235.344ZM15.86 232.76L17.228 232.76C17.844 232.76 18.196 232.408 18.196 231.88C18.196 231.352 17.844 231.016 17.228 231.016L15.86 231.016L15.86 232.76ZM21.1889 236.12C20.3569 236.12 19.7489 235.672 19.7489 234.896C19.7489 234.12 20.3009 233.768 20.9489 233.648L21.9569 233.456C22.3009 233.392 22.5009 233.304 22.5009 232.992C22.5009 232.632 22.1969 232.392 21.5889 232.392C21.0929 232.392 20.6609 232.592 20.6049 233.048L19.8609 233.048C19.9089 232.24 20.6449 231.76 21.5969 231.76C22.7489 231.76 23.2209 232.336 23.2209 233.016L23.2209 235.128C23.2209 235.32 23.3089 235.416 23.4689 235.416C23.6049 235.416 23.6849 235.384 23.7569 235.336L23.7569 235.92C23.6449 236.016 23.4529 236.08 23.2209 236.08C22.8849 236.08 22.5969 235.864 22.5249 235.512C22.3329 235.784 21.9329 236.12 21.1889 236.12ZM20.4929 234.872C20.4929 235.288 20.8449 235.488 21.3169 235.488C21.9809 235.488 22.5009 235.112 22.5009 234.528L22.5009 233.864C22.4209 233.952 22.1729 234.024 21.8769 234.08L21.2049 234.208C20.7249 234.296 20.4929 234.504 20.4929 234.872ZM24.4127 236L24.4127 230.36L27.7727 230.36L27.7727 231.064L25.1647 231.064L25.1647 232.856L27.5887 232.856L27.5887 233.56L25.1647 233.56L25.1647 236L24.4127 236ZM28.4724 236L28.4724 231.88L29.1924 231.88L29.1924 236L28.4724 236ZM28.3604 230.8C28.3604 230.552 28.5684 230.328 28.8404 230.328C29.0964 230.328 29.3044 230.552 29.3044 230.8C29.3044 231.064 29.0964 231.28 28.8404 231.28C28.5684 231.28 28.3604 231.064 28.3604 230.8ZM30.1677 236L30.1677 231.88L30.8717 231.88L30.8717 232.408C31.1037 232.008 31.5917 231.76 32.1437 231.76C33.0477 231.76 33.7037 232.24 33.7037 233.48L33.7037 236L32.9837 236L32.9837 233.584C32.9837 232.816 32.6077 232.44 31.9837 232.44C31.2797 232.44 30.8877 232.92 30.8877 233.608L30.8877 236L30.1677 236ZM38.3649 236.12C37.8289 236.12 37.2769 235.88 36.9889 235.408L36.9889 236L36.2849 236L36.2849 230.36L37.0049 230.36L37.0049 232.448C37.2849 231.992 37.8609 231.76 38.3409 231.76C39.5649 231.76 40.3009 232.648 40.3009 233.936C40.3009 235.232 39.5249 236.12 38.3649 236.12ZM36.9649 233.936C36.9649 234.88 37.5169 235.44 38.2689 235.44C39.0849 235.44 39.5569 234.88 39.5569 233.936C39.5569 233 39.0849 232.44 38.2689 232.44C37.5169 232.44 36.9649 233 36.9649 233.936ZM42.8749 236.12C41.6029 236.12 40.7949 235.264 40.7949 233.92C40.7949 232.632 41.6189 231.76 42.8109 231.76C43.9949 231.76 44.8269 232.56 44.8269 233.704C44.8269 234.032 44.8269 234.104 44.8109 234.176L41.5469 234.176C41.5949 234.984 42.0989 235.48 42.8829 235.48C43.4349 235.48 43.8189 235.24 44.0109 234.8L44.7549 234.8C44.5389 235.624 43.8429 236.12 42.8749 236.12ZM41.5469 233.584L44.0669 233.584C44.0349 232.848 43.5549 232.392 42.8109 232.392C42.0989 232.392 41.6269 232.832 41.5469 233.584ZM46.8452 236.12C46.0132 236.12 45.4052 235.672 45.4052 234.896C45.4052 234.12 45.9572 233.768 46.6052 233.648L47.6132 233.456C47.9572 233.392 48.1572 233.304 48.1572 232.992C48.1572 232.632 47.8532 232.392 47.2452 232.392C46.7492 232.392 46.3172 232.592 46.2612 233.048L45.5172 233.048C45.5652 232.24 46.3012 231.76 47.2532 231.76C48.4052 231.76 48.8772 232.336 48.8772 233.016L48.8772 235.128C48.8772 235.32 48.9652 235.416 49.1252 235.416C49.2612 235.416 49.3412 235.384 49.4132 235.336L49.4132 235.92C49.3012 236.016 49.1092 236.08 48.8772 236.08C48.5412 236.08 48.2532 235.864 48.1812 235.512C47.9892 235.784 47.5892 236.12 46.8452 236.12ZM46.1492 234.872C46.1492 235.288 46.5012 235.488 46.9732 235.488C47.6372 235.488 48.1572 235.112 48.1572 234.528L48.1572 233.864C48.0772 233.952 47.8292 234.024 47.5332 234.08L46.8612 234.208C46.3812 234.296 46.1492 234.504 46.1492 234.872ZM53.3968 231.88L53.3968 236L52.6928 236L52.6928 235.472C52.4688 235.872 52.0047 236.12 51.4047 236.12C50.5727 236.12 49.9167 235.64 49.9167 234.4L49.9167 231.88L50.6367 231.88L50.6367 234.296C50.6367 235.064 51.0047 235.44 51.6047 235.44C52.2927 235.44 52.6768 234.952 52.6768 234.272L52.6768 231.88L53.3968 231.88ZM54.7228 231.424C54.7228 230.656 55.1628 230.24 55.8508 230.24C56.0908 230.24 56.2748 230.288 56.3788 230.328L56.3788 230.952C56.2348 230.904 56.1068 230.888 55.9708 230.888C55.6108 230.888 55.4428 231.08 55.4428 231.48L55.4428 231.88L56.3788 231.88L56.3788 232.536L55.4428 232.536L55.4428 236L54.7228 236L54.7228 232.536L53.9868 232.536L53.9868 231.88L54.7228 231.88L54.7228 231.424ZM58.4373 236.12C57.4373 236.12 56.7573 235.6 56.6933 234.8L57.4373 234.8C57.4773 235.224 57.8773 235.496 58.4373 235.496C58.9653 235.496 59.3013 235.248 59.3013 234.84C59.3013 234.528 59.1253 234.36 58.7173 234.28L57.9013 234.128C57.1893 233.992 56.8373 233.6 56.8373 232.992C56.8373 232.24 57.4693 231.76 58.3813 231.76C59.3653 231.76 59.9493 232.224 60.0293 233.048L59.2853 233.048C59.2133 232.608 58.9013 232.376 58.3813 232.376C57.8773 232.376 57.5813 232.592 57.5813 232.96C57.5813 233.248 57.7653 233.408 58.1733 233.488L58.9813 233.648C59.6693 233.776 60.0453 234.176 60.0453 234.808C60.0453 235.584 59.3893 236.12 58.4373 236.12ZM60.863 236L60.863 231.88L61.583 231.88L61.583 236L60.863 236ZM60.751 230.8C60.751 230.552 60.959 230.328 61.231 230.328C61.487 230.328 61.695 230.552 61.695 230.8C61.695 231.064 61.487 231.28 61.231 231.28C60.959 231.28 60.751 231.064 60.751 230.8ZM64.3583 236.12C63.1103 236.12 62.3183 235.232 62.3183 233.936C62.3183 232.648 63.1023 231.76 64.3743 231.76C65.5183 231.76 66.1983 232.456 66.2623 233.232L65.5183 233.232C65.3983 232.68 64.9183 232.44 64.3663 232.44C63.5503 232.44 63.0623 232.976 63.0623 233.936C63.0623 234.904 63.5503 235.44 64.3583 235.44C64.9183 235.44 65.3983 235.2 65.5183 234.584L66.2623 234.584C66.1983 235.424 65.5263 236.12 64.3583 236.12ZM67.0739 236L67.0739 230.36L67.7939 230.36L67.7939 232.384C68.0259 232 68.5139 231.76 69.0499 231.76C69.9539 231.76 70.6099 232.24 70.6099 233.48L70.6099 236L69.8899 236L69.8899 233.584C69.8899 232.816 69.5139 232.44 68.8979 232.44C68.1859 232.44 67.7939 232.928 67.7939 233.608L67.7939 236L67.0739 236ZM72.7442 236.08C72.2162 236.08 71.8082 235.776 71.8082 235.112L71.8082 232.536L71.0802 232.536L71.0802 231.928L71.3122 231.928C71.7602 231.928 71.8642 231.792 71.8642 231.328L71.8642 230.904L72.5362 230.904L72.5362 231.88L73.4642 231.88L73.4642 232.536L72.5362 232.536L72.5362 234.896C72.5362 235.248 72.6802 235.384 72.9682 235.384C73.1362 235.384 73.2882 235.352 73.4642 235.272L73.4642 235.936C73.2562 236.04 73.0802 236.08 72.7442 236.08ZM74.4099 236L74.4099 231.88L75.1299 231.88L75.1299 236L74.4099 236ZM74.2979 230.8C74.2979 230.552 74.5059 230.328 74.7779 230.328C75.0339 230.328 75.2419 230.552 75.2419 230.8C75.2419 231.064 75.0339 231.28 74.7779 231.28C74.5059 231.28 74.2979 231.064 74.2979 230.8ZM77.9212 237.44C76.8572 237.44 76.1132 236.864 76.0332 236.136L76.7772 236.136C76.8732 236.512 77.2972 236.8 77.9212 236.8C78.6652 236.8 79.1532 236.408 79.1532 235.6L79.1532 235.192C78.8812 235.616 78.3772 235.872 77.7772 235.872C76.6252 235.872 75.8732 235.024 75.8732 233.816C75.8732 232.6 76.6332 231.76 77.7772 231.76C78.3852 231.76 78.8812 232.008 79.1532 232.432L79.1532 231.88L79.8812 231.88L79.8812 235.592C79.8812 236.832 79.0652 237.44 77.9212 237.44ZM76.6172 233.816C76.6172 234.696 77.1212 235.216 77.8732 235.216C78.6332 235.216 79.1772 234.68 79.1772 233.816C79.1772 232.952 78.6332 232.408 77.8732 232.408C77.1212 232.408 76.6172 232.936 76.6172 233.816ZM82.1036 236.08C81.5756 236.08 81.1676 235.776 81.1676 235.112L81.1676 232.536L80.4396 232.536L80.4396 231.928L80.6716 231.928C81.1196 231.928 81.2236 231.792 81.2236 231.328L81.2236 230.904L81.8956 230.904L81.8956 231.88L82.8236 231.88L82.8236 232.536L81.8956 232.536L81.8956 234.896C81.8956 235.248 82.0396 235.384 82.3276 235.384C82.4956 235.384 82.6476 235.352 82.8236 235.272L82.8236 235.936C82.6156 236.04 82.4396 236.08 82.1036 236.08ZM84.3036 236.088C83.9836 236.088 83.7356 235.848 83.7356 235.52C83.7356 235.216 83.9916 234.976 84.3036 234.976C84.6076 234.976 84.8556 235.224 84.8556 235.52C84.8556 235.848 84.6076 236.088 84.3036 236.088Z" fill="#F0EFFF"/>
<path d="M14.1888 74.806V54.502H17.8464L22.9728 67.0876C23.5776 68.5564 24.1536 69.9964 24.7584 71.494H24.7872C25.3632 69.9964 25.9392 68.5564 26.544 67.0876L31.6704 54.502H35.328V74.806H32.7648V58.1884C32.304 59.3692 31.8144 60.55 31.3824 61.6732L27.8976 70.0252L25.9392 74.806H23.5776L21.648 70.0252L18.1632 61.6732C17.7024 60.55 17.2128 59.3692 16.752 58.1884V74.806H14.1888ZM43.1542 75.238C40.159 75.238 37.9702 73.6252 37.9702 70.8316C37.9702 68.038 39.9574 66.7708 42.2902 66.3388L45.919 65.6476C47.1574 65.4172 47.8774 65.1004 47.8774 63.9772C47.8774 62.6812 46.783 61.8172 44.5942 61.8172C42.8086 61.8172 41.2534 62.5372 41.0518 64.1788H38.3734C38.5462 61.27 41.1958 59.542 44.623 59.542C48.7702 59.542 50.4694 61.6156 50.4694 64.0636V71.6668C50.4694 72.358 50.7862 72.7036 51.3622 72.7036C51.8518 72.7036 52.1398 72.5884 52.399 72.4156V74.518C51.9958 74.8636 51.3046 75.094 50.4694 75.094C49.2598 75.094 48.223 74.3164 47.9638 73.0492C47.2726 74.0284 45.8326 75.238 43.1542 75.238ZM40.6486 70.7452C40.6486 72.2428 41.9158 72.9628 43.615 72.9628C46.0054 72.9628 47.8774 71.6092 47.8774 69.5068V67.1164C47.5894 67.4332 46.6966 67.6924 45.631 67.894L43.2118 68.3548C41.4838 68.6716 40.6486 69.4204 40.6486 70.7452ZM60.2879 75.238C55.7951 75.238 52.9439 72.0412 52.9439 67.3756C52.9439 62.7388 55.7663 59.542 60.3455 59.542C64.4639 59.542 66.9119 62.0476 67.1423 64.8412H64.4639C64.0319 62.854 62.3039 61.99 60.3167 61.99C57.3791 61.99 55.6223 63.9196 55.6223 67.3756C55.6223 70.8604 57.3791 72.79 60.2879 72.79C62.3039 72.79 64.0319 71.926 64.4639 69.7084H67.1423C66.9119 72.7324 64.4927 75.238 60.2879 75.238ZM69.4882 74.806V54.502H72.0802V61.7884C72.9154 60.406 74.6722 59.542 76.6018 59.542C79.8562 59.542 82.2178 61.27 82.2178 65.734V74.806H79.6258V66.1084C79.6258 63.3436 78.2722 61.99 76.0546 61.99C73.4914 61.99 72.0802 63.7468 72.0802 66.1948V74.806H69.4882ZM96.982 75.238C92.4028 75.238 89.494 72.1564 89.494 67.318C89.494 62.6812 92.4604 59.542 96.7517 59.542C101.014 59.542 104.009 62.422 104.009 66.5404C104.009 67.7212 104.009 67.9804 103.952 68.2396H92.2012C92.374 71.1484 94.1884 72.934 97.0109 72.934C98.9981 72.934 100.38 72.07 101.072 70.486H103.75C102.972 73.4524 100.467 75.238 96.982 75.238ZM92.2012 66.1084H101.273C101.158 63.4588 99.43 61.8172 96.7517 61.8172C94.1884 61.8172 92.4892 63.4012 92.2012 66.1084ZM111.706 75.238C108.106 75.238 105.658 73.366 105.427 70.486H108.106C108.25 72.0124 109.69 72.9916 111.706 72.9916C113.607 72.9916 114.816 72.0988 114.816 70.63C114.816 69.5068 114.183 68.902 112.714 68.614L109.776 68.0668C107.213 67.5772 105.946 66.166 105.946 63.9772C105.946 61.27 108.221 59.542 111.504 59.542C115.047 59.542 117.149 61.2124 117.437 64.1788H114.759C114.499 62.5948 113.376 61.7596 111.504 61.7596C109.69 61.7596 108.624 62.5372 108.624 63.862C108.624 64.8988 109.287 65.4748 110.755 65.7628L113.664 66.3388C116.141 66.7996 117.495 68.2396 117.495 70.5148C117.495 73.3084 115.133 75.238 111.706 75.238ZM19.8624 102.238C15.6864 102.238 12.8928 99.0412 12.8928 94.3756C12.8928 89.7388 15.5424 86.542 19.9488 86.542C21.6768 86.542 23.7504 87.3772 24.7584 89.0188V81.502H27.3504V101.806H24.816V99.6748C23.7792 101.374 21.792 102.238 19.8624 102.238ZM15.5712 94.3756C15.5712 97.774 17.2704 99.79 20.208 99.79C22.9152 99.79 24.9024 97.774 24.9024 94.3756C24.9024 91.006 22.9152 88.99 20.208 88.99C17.2704 88.99 15.5712 91.006 15.5712 94.3756ZM36.9048 102.238C32.3256 102.238 29.4168 99.1564 29.4168 94.318C29.4168 89.6812 32.3832 86.542 36.6744 86.542C40.9368 86.542 43.932 89.422 43.932 93.5404C43.932 94.7212 43.932 94.9804 43.8744 95.2396H32.124C32.2968 98.1484 34.1112 99.934 36.9336 99.934C38.9208 99.934 40.3032 99.07 40.9944 97.486H43.6728C42.8952 100.452 40.3896 102.238 36.9048 102.238ZM32.124 93.1084H41.196C41.0808 90.4588 39.3528 88.8172 36.6744 88.8172C34.1112 88.8172 32.412 90.4012 32.124 93.1084ZM46.0173 101.806V86.974H48.6093V101.806H46.0173ZM45.6141 83.086C45.6141 82.1932 46.3629 81.3868 47.3421 81.3868C48.2637 81.3868 49.0125 82.1932 49.0125 83.086C49.0125 84.0364 48.2637 84.814 47.3421 84.814C46.3629 84.814 45.6141 84.0364 45.6141 83.086ZM51.5444 101.806V86.974H54.0788V88.8748C54.914 87.4348 56.6708 86.542 58.658 86.542C61.9124 86.542 64.274 88.27 64.274 92.734V101.806H61.682V93.1084C61.682 90.3436 60.3284 88.99 58.082 88.99C55.5476 88.99 54.1364 90.718 54.1364 93.1948V101.806H51.5444ZM72.4703 102.238C68.8703 102.238 66.4223 100.366 66.1919 97.486H68.8703C69.0143 99.0124 70.4543 99.9916 72.4703 99.9916C74.3711 99.9916 75.5807 99.0988 75.5807 97.63C75.5807 96.5068 74.9471 95.902 73.4783 95.614L70.5407 95.0668C67.9775 94.5772 66.7103 93.166 66.7103 90.9772C66.7103 88.27 68.9855 86.542 72.2687 86.542C75.8111 86.542 77.9135 88.2124 78.2015 91.1788H75.5231C75.2639 89.5948 74.1407 88.7596 72.2687 88.7596C70.4543 88.7596 69.3887 89.5372 69.3887 90.862C69.3887 91.8988 70.0511 92.4748 71.5199 92.7628L74.4287 93.3388C76.9055 93.7996 78.2591 95.2396 78.2591 97.5148C78.2591 100.308 75.8975 102.238 72.4703 102.238ZM82.5222 102.123C81.3702 102.123 80.4774 101.259 80.4774 100.078C80.4774 98.9836 81.399 98.1196 82.5222 98.1196C83.6166 98.1196 84.5094 99.0124 84.5094 100.078C84.5094 101.259 83.6166 102.123 82.5222 102.123Z" fill="#F0EFFF"/>
<path d="M14.1888 74.806V54.502H17.8464L22.9728 67.0876C23.5776 68.5564 24.1536 69.9964 24.7584 71.494H24.7872C25.3632 69.9964 25.9392 68.5564 26.544 67.0876L31.6704 54.502H35.328V74.806H32.7648V58.1884C32.304 59.3692 31.8144 60.55 31.3824 61.6732L27.8976 70.0252L25.9392 74.806H23.5776L21.648 70.0252L18.1632 61.6732C17.7024 60.55 17.2128 59.3692 16.752 58.1884V74.806H14.1888ZM43.1542 75.238C40.159 75.238 37.9702 73.6252 37.9702 70.8316C37.9702 68.038 39.9574 66.7708 42.2902 66.3388L45.919 65.6476C47.1574 65.4172 47.8774 65.1004 47.8774 63.9772C47.8774 62.6812 46.783 61.8172 44.5942 61.8172C42.8086 61.8172 41.2534 62.5372 41.0518 64.1788H38.3734C38.5462 61.27 41.1958 59.542 44.623 59.542C48.7702 59.542 50.4694 61.6156 50.4694 64.0636V71.6668C50.4694 72.358 50.7862 72.7036 51.3622 72.7036C51.8518 72.7036 52.1398 72.5884 52.399 72.4156V74.518C51.9958 74.8636 51.3046 75.094 50.4694 75.094C49.2598 75.094 48.223 74.3164 47.9638 73.0492C47.2726 74.0284 45.8326 75.238 43.1542 75.238ZM40.6486 70.7452C40.6486 72.2428 41.9158 72.9628 43.615 72.9628C46.0054 72.9628 47.8774 71.6092 47.8774 69.5068V67.1164C47.5894 67.4332 46.6966 67.6924 45.631 67.894L43.2118 68.3548C41.4838 68.6716 40.6486 69.4204 40.6486 70.7452ZM60.2879 75.238C55.7951 75.238 52.9439 72.0412 52.9439 67.3756C52.9439 62.7388 55.7663 59.542 60.3455 59.542C64.4639 59.542 66.9119 62.0476 67.1423 64.8412H64.4639C64.0319 62.854 62.3039 61.99 60.3167 61.99C57.3791 61.99 55.6223 63.9196 55.6223 67.3756C55.6223 70.8604 57.3791 72.79 60.2879 72.79C62.3039 72.79 64.0319 71.926 64.4639 69.7084H67.1423C66.9119 72.7324 64.4927 75.238 60.2879 75.238ZM69.4882 74.806V54.502H72.0802V61.7884C72.9154 60.406 74.6722 59.542 76.6018 59.542C79.8562 59.542 82.2178 61.27 82.2178 65.734V74.806H79.6258V66.1084C79.6258 63.3436 78.2722 61.99 76.0546 61.99C73.4914 61.99 72.0802 63.7468 72.0802 66.1948V74.806H69.4882ZM96.982 75.238C92.4028 75.238 89.494 72.1564 89.494 67.318C89.494 62.6812 92.4604 59.542 96.7517 59.542C101.014 59.542 104.009 62.422 104.009 66.5404C104.009 67.7212 104.009 67.9804 103.952 68.2396H92.2012C92.374 71.1484 94.1884 72.934 97.0109 72.934C98.9981 72.934 100.38 72.07 101.072 70.486H103.75C102.972 73.4524 100.467 75.238 96.982 75.238ZM92.2012 66.1084H101.273C101.158 63.4588 99.43 61.8172 96.7517 61.8172C94.1884 61.8172 92.4892 63.4012 92.2012 66.1084ZM111.706 75.238C108.106 75.238 105.658 73.366 105.427 70.486H108.106C108.25 72.0124 109.69 72.9916 111.706 72.9916C113.607 72.9916 114.816 72.0988 114.816 70.63C114.816 69.5068 114.183 68.902 112.714 68.614L109.776 68.0668C107.213 67.5772 105.946 66.166 105.946 63.9772C105.946 61.27 108.221 59.542 111.504 59.542C115.047 59.542 117.149 61.2124 117.437 64.1788H114.759C114.499 62.5948 113.376 61.7596 111.504 61.7596C109.69 61.7596 108.624 62.5372 108.624 63.862C108.624 64.8988 109.287 65.4748 110.755 65.7628L113.664 66.3388C116.141 66.7996 117.495 68.2396 117.495 70.5148C117.495 73.3084 115.133 75.238 111.706 75.238ZM19.8624 102.238C15.6864 102.238 12.8928 99.0412 12.8928 94.3756C12.8928 89.7388 15.5424 86.542 19.9488 86.542C21.6768 86.542 23.7504 87.3772 24.7584 89.0188V81.502H27.3504V101.806H24.816V99.6748C23.7792 101.374 21.792 102.238 19.8624 102.238ZM15.5712 94.3756C15.5712 97.774 17.2704 99.79 20.208 99.79C22.9152 99.79 24.9024 97.774 24.9024 94.3756C24.9024 91.006 22.9152 88.99 20.208 88.99C17.2704 88.99 15.5712 91.006 15.5712 94.3756ZM36.9048 102.238C32.3256 102.238 29.4168 99.1564 29.4168 94.318C29.4168 89.6812 32.3832 86.542 36.6744 86.542C40.9368 86.542 43.932 89.422 43.932 93.5404C43.932 94.7212 43.932 94.9804 43.8744 95.2396H32.124C32.2968 98.1484 34.1112 99.934 36.9336 99.934C38.9208 99.934 40.3032 99.07 40.9944 97.486H43.6728C42.8952 100.452 40.3896 102.238 36.9048 102.238ZM32.124 93.1084H41.196C41.0808 90.4588 39.3528 88.8172 36.6744 88.8172C34.1112 88.8172 32.412 90.4012 32.124 93.1084ZM46.0173 101.806V86.974H48.6093V101.806H46.0173ZM45.6141 83.086C45.6141 82.1932 46.3629 81.3868 47.3421 81.3868C48.2637 81.3868 49.0125 82.1932 49.0125 83.086C49.0125 84.0364 48.2637 84.814 47.3421 84.814C46.3629 84.814 45.6141 84.0364 45.6141 83.086ZM51.5444 101.806V86.974H54.0788V88.8748C54.914 87.4348 56.6708 86.542 58.658 86.542C61.9124 86.542 64.274 88.27 64.274 92.734V101.806H61.682V93.1084C61.682 90.3436 60.3284 88.99 58.082 88.99C55.5476 88.99 54.1364 90.718 54.1364 93.1948V101.806H51.5444ZM72.4703 102.238C68.8703 102.238 66.4223 100.366 66.1919 97.486H68.8703C69.0143 99.0124 70.4543 99.9916 72.4703 99.9916C74.3711 99.9916 75.5807 99.0988 75.5807 97.63C75.5807 96.5068 74.9471 95.902 73.4783 95.614L70.5407 95.0668C67.9775 94.5772 66.7103 93.166 66.7103 90.9772C66.7103 88.27 68.9855 86.542 72.2687 86.542C75.8111 86.542 77.9135 88.2124 78.2015 91.1788H75.5231C75.2639 89.5948 74.1407 88.7596 72.2687 88.7596C70.4543 88.7596 69.3887 89.5372 69.3887 90.862C69.3887 91.8988 70.0511 92.4748 71.5199 92.7628L74.4287 93.3388C76.9055 93.7996 78.2591 95.2396 78.2591 97.5148C78.2591 100.308 75.8975 102.238 72.4703 102.238ZM82.5222 102.123C81.3702 102.123 80.4774 101.259 80.4774 100.078C80.4774 98.9836 81.399 98.1196 82.5222 98.1196C83.6166 98.1196 84.5094 99.0124 84.5094 100.078C84.5094 101.259 83.6166 102.123 82.5222 102.123Z" fill="url(#paint0_linear_50488_3689)"/>
<path d="M12.9913 127.406V118.21H16.2263C18.7568 118.21 20.4917 120.154 20.4917 122.815C20.4917 125.462 18.7568 127.406 16.2263 127.406H12.9913ZM14.2175 126.258H16.1611C17.8829 126.258 19.2134 125.084 19.2134 122.815C19.2134 120.532 17.8829 119.358 16.1611 119.358H14.2175V126.258ZM21.8272 127.406V120.688H23.0011V127.406H21.8272ZM21.6445 118.927C21.6445 118.523 21.9837 118.158 22.4272 118.158C22.8446 118.158 23.1837 118.523 23.1837 118.927C23.1837 119.358 22.8446 119.71 22.4272 119.71C21.9837 119.71 21.6445 119.358 21.6445 118.927ZM27.5915 127.602C25.5175 127.602 24.2001 126.206 24.2001 124.015C24.2001 121.914 25.5436 120.493 27.4872 120.493C29.4177 120.493 30.7743 121.797 30.7743 123.662C30.7743 124.197 30.7743 124.315 30.7482 124.432H25.4262C25.5045 125.749 26.3262 126.558 27.6046 126.558C28.5046 126.558 29.1307 126.167 29.4438 125.449H30.6569C30.3047 126.793 29.1698 127.602 27.5915 127.602ZM25.4262 123.467H29.5351C29.4829 122.267 28.7003 121.523 27.4872 121.523C26.3262 121.523 25.5566 122.241 25.4262 123.467ZM34.8631 127.406V118.21H36.0892V122.984L40.472 118.21H42.0112L38.5284 121.941L42.2851 127.406H40.8111L37.6936 122.828L36.0892 124.549V127.406H34.8631ZM43.304 127.406V120.688H44.4519V121.81C44.778 121.014 45.3649 120.545 46.2911 120.545C46.4867 120.545 46.6824 120.584 46.7867 120.61V121.81C46.6824 121.784 46.4606 121.745 46.2389 121.745C45.091 121.745 44.4779 122.645 44.4779 124.08V127.406H43.304ZM48.9263 129.558L50.2437 126.702L47.4523 120.688H48.7828L50.3742 124.197C50.5437 124.602 50.7264 125.006 50.8959 125.397C51.0655 124.993 51.2481 124.588 51.4177 124.197L52.9438 120.688H54.2743L50.2437 129.558H48.9263ZM55.1379 129.558V120.688H56.2858V121.654C56.7293 120.884 57.6945 120.493 58.4902 120.493C60.486 120.493 61.686 121.941 61.686 124.041C61.686 126.154 60.4207 127.602 58.5424 127.602C57.6684 127.602 56.7945 127.223 56.3119 126.48V129.558H55.1379ZM56.2466 124.041C56.2466 125.58 57.1467 126.493 58.3728 126.493C59.7033 126.493 60.4729 125.58 60.4729 124.041C60.4729 122.514 59.7033 121.601 58.3728 121.601C57.1467 121.601 56.2466 122.514 56.2466 124.041ZM64.9438 127.536C64.0828 127.536 63.4176 127.041 63.4176 125.958V121.758H62.2306V120.767H62.6089C63.3393 120.767 63.5089 120.545 63.5089 119.788V119.097H64.6046V120.688H66.1177V121.758H64.6046V125.606C64.6046 126.18 64.8394 126.402 65.309 126.402C65.5829 126.402 65.8308 126.349 66.1177 126.219V127.302C65.7786 127.471 65.4916 127.536 64.9438 127.536ZM70.4821 127.602C68.4211 127.602 67.0645 126.167 67.0645 124.041C67.0645 121.928 68.4211 120.493 70.4821 120.493C72.5561 120.493 73.9127 121.928 73.9127 124.041C73.9127 126.167 72.5561 127.602 70.4821 127.602ZM68.2776 124.041C68.2776 125.58 69.1385 126.493 70.4821 126.493C71.8387 126.493 72.6996 125.58 72.6996 124.041C72.6996 122.514 71.8387 121.601 70.4821 121.601C69.1385 121.601 68.2776 122.514 68.2776 124.041ZM74.6945 123.884V122.788H79.2208V123.884H74.6945ZM80.4281 127.406V118.21H83.6239C85.3065 118.21 86.8066 119.11 86.8066 120.988C86.8066 122.867 85.3065 123.767 83.6239 123.767H81.6542V127.406H80.4281ZM81.6542 122.645H83.5978C84.563 122.645 85.5413 122.214 85.5413 120.988C85.5413 119.762 84.563 119.332 83.5978 119.332H81.6542V122.645ZM87.748 127.406V118.21H88.922V127.406H87.748ZM92.5341 127.602C91.1775 127.602 90.1861 126.871 90.1861 125.606C90.1861 124.341 91.0862 123.767 92.1427 123.571L93.7863 123.258C94.3472 123.154 94.6733 123.01 94.6733 122.501C94.6733 121.914 94.1776 121.523 93.1863 121.523C92.3775 121.523 91.6732 121.849 91.5818 122.593H90.3687C90.447 121.275 91.6471 120.493 93.1993 120.493C95.0776 120.493 95.8472 121.432 95.8472 122.541V125.984C95.8472 126.297 95.9907 126.454 96.2516 126.454C96.4734 126.454 96.6038 126.402 96.7212 126.323V127.276C96.5386 127.432 96.2255 127.536 95.8472 127.536C95.2994 127.536 94.8298 127.184 94.7124 126.61C94.3994 127.054 93.7472 127.602 92.5341 127.602ZM91.3992 125.567C91.3992 126.245 91.9732 126.571 92.7428 126.571C93.8254 126.571 94.6733 125.958 94.6733 125.006V123.923C94.5428 124.067 94.1385 124.184 93.6558 124.275L92.5601 124.484C91.7775 124.628 91.3992 124.967 91.3992 125.567ZM99.6557 127.536C98.7948 127.536 98.1296 127.041 98.1296 125.958V121.758H96.9425V120.767H97.3208C98.0513 120.767 98.2209 120.545 98.2209 119.788V119.097H99.3166V120.688H100.83V121.758H99.3166V125.606C99.3166 126.18 99.5514 126.402 100.021 126.402C100.295 126.402 100.543 126.349 100.83 126.219V127.302C100.491 127.471 100.204 127.536 99.6557 127.536ZM104.433 127.536C103.572 127.536 102.906 127.041 102.906 125.958V121.758H101.719V120.767H102.098C102.828 120.767 102.998 120.545 102.998 119.788V119.097H104.093V120.688H105.607V121.758H104.093V125.606C104.093 126.18 104.328 126.402 104.798 126.402C105.072 126.402 105.32 126.349 105.607 126.219V127.302C105.267 127.471 104.98 127.536 104.433 127.536ZM107.722 119.945C107.722 118.693 108.44 118.014 109.562 118.014C109.953 118.014 110.253 118.093 110.423 118.158V119.175C110.188 119.097 109.979 119.071 109.757 119.071C109.17 119.071 108.896 119.384 108.896 120.036V120.688H110.423V121.758H108.896V127.406H107.722V121.758H106.522V120.688H107.722V119.945ZM114.251 127.602C112.19 127.602 110.833 126.167 110.833 124.041C110.833 121.928 112.19 120.493 114.251 120.493C116.325 120.493 117.682 121.928 117.682 124.041C117.682 126.167 116.325 127.602 114.251 127.602ZM112.047 124.041C112.047 125.58 112.907 126.493 114.251 126.493C115.608 126.493 116.468 125.58 116.468 124.041C116.468 122.514 115.608 121.601 114.251 121.601C112.907 121.601 112.047 122.514 112.047 124.041ZM118.88 127.406V120.688H120.028V121.81C120.354 121.014 120.941 120.545 121.868 120.545C122.063 120.545 122.259 120.584 122.363 120.61V121.81C122.259 121.784 122.037 121.745 121.815 121.745C120.668 121.745 120.054 122.645 120.054 124.08V127.406H118.88ZM123.237 127.406V120.688H124.385V121.549C124.75 120.884 125.52 120.493 126.472 120.493C127.463 120.493 128.207 120.91 128.572 121.667C129.055 120.897 129.837 120.493 130.855 120.493C132.459 120.493 133.333 121.484 133.333 123.297V127.406H132.159V123.454C132.159 122.254 131.611 121.601 130.594 121.601C129.537 121.601 128.872 122.332 128.872 123.493V127.406H127.698V123.454C127.698 122.254 127.15 121.601 126.146 121.601C125.076 121.601 124.411 122.332 124.411 123.493V127.406H123.237ZM135.099 129.154C135.53 128.593 135.895 128.045 136.038 127.445C135.947 127.51 135.817 127.549 135.673 127.549C135.177 127.549 134.812 127.158 134.812 126.649C134.812 126.115 135.217 125.736 135.777 125.736C136.351 125.736 136.821 126.115 136.821 126.936C136.821 127.706 136.43 128.541 135.973 129.154H135.099ZM15.561 143.602C13.6696 143.602 12.4044 142.154 12.4044 140.041C12.4044 137.941 13.6044 136.493 15.6002 136.493C16.3828 136.493 17.322 136.871 17.7785 137.614V134.21H18.9525V143.406H17.8046V142.441C17.335 143.21 16.435 143.602 15.561 143.602ZM13.6175 140.041C13.6175 141.58 14.3871 142.493 15.7176 142.493C16.9437 142.493 17.8437 141.58 17.8437 140.041C17.8437 138.514 16.9437 137.601 15.7176 137.601C14.3871 137.601 13.6175 138.514 13.6175 140.041ZM20.5406 143.406V136.688H21.7146V143.406H20.5406ZM20.358 134.927C20.358 134.523 20.6971 134.158 21.1406 134.158C21.558 134.158 21.8972 134.523 21.8972 134.927C21.8972 135.358 21.558 135.71 21.1406 135.71C20.6971 135.71 20.358 135.358 20.358 134.927ZM26.3049 143.602C24.2309 143.602 22.9135 142.206 22.9135 140.015C22.9135 137.914 24.257 136.493 26.2006 136.493C28.1311 136.493 29.4877 137.797 29.4877 139.662C29.4877 140.197 29.4877 140.315 29.4616 140.432H24.1396C24.2179 141.749 25.0397 142.558 26.318 142.558C27.218 142.558 27.8441 142.167 28.1572 141.449H29.3703C29.0181 142.793 27.8833 143.602 26.3049 143.602ZM24.1396 139.467H28.2485C28.1963 138.267 27.4137 137.523 26.2006 137.523C25.0397 137.523 24.2701 138.241 24.1396 139.467ZM35.8331 143.602C34.2026 143.602 33.0939 142.754 32.9895 141.449H34.2026C34.2678 142.141 34.92 142.584 35.8331 142.584C36.694 142.584 37.2419 142.18 37.2419 141.515C37.2419 141.006 36.9549 140.732 36.2897 140.602L34.9592 140.354C33.7982 140.132 33.2243 139.493 33.2243 138.501C33.2243 137.275 34.2548 136.493 35.7418 136.493C37.3462 136.493 38.2984 137.249 38.4289 138.593H37.2158C37.0984 137.875 36.5897 137.497 35.7418 137.497C34.92 137.497 34.4374 137.849 34.4374 138.449C34.4374 138.919 34.7374 139.18 35.4027 139.31L36.7201 139.571C37.8419 139.78 38.455 140.432 38.455 141.462C38.455 142.728 37.3854 143.602 35.8331 143.602ZM39.7882 143.406V136.688H40.9622V143.406H39.7882ZM39.6056 134.927C39.6056 134.523 39.9447 134.158 40.3882 134.158C40.8056 134.158 41.1448 134.523 41.1448 134.927C41.1448 135.358 40.8056 135.71 40.3882 135.71C39.9447 135.71 39.6056 135.358 39.6056 134.927ZM45.4873 143.602C43.4525 143.602 42.1611 142.154 42.1611 140.041C42.1611 137.941 43.4394 136.493 45.5134 136.493C47.3787 136.493 48.4875 137.627 48.5918 138.893H47.3787C47.1831 137.993 46.4004 137.601 45.5004 137.601C44.1699 137.601 43.3742 138.475 43.3742 140.041C43.3742 141.619 44.1699 142.493 45.4873 142.493C46.4004 142.493 47.1831 142.102 47.3787 141.097H48.5918C48.4875 142.467 47.3918 143.602 45.4873 143.602ZM49.9152 143.406V134.21H51.0891V137.51C51.4674 136.884 52.2631 136.493 53.1371 136.493C54.611 136.493 55.6806 137.275 55.6806 139.297V143.406H54.5067V139.467C54.5067 138.214 53.8936 137.601 52.8892 137.601C51.7283 137.601 51.0891 138.397 51.0891 139.506V143.406H49.9152ZM62.6546 143.602C60.7632 143.602 59.498 142.154 59.498 140.041C59.498 137.941 60.698 136.493 62.6938 136.493C63.4764 136.493 64.4156 136.871 64.8721 137.614V134.21H66.0461V143.406H64.8982V142.441C64.4286 143.21 63.5286 143.602 62.6546 143.602ZM60.7111 140.041C60.7111 141.58 61.4807 142.493 62.8112 142.493C64.0373 142.493 64.9373 141.58 64.9373 140.041C64.9373 138.514 64.0373 137.601 62.8112 137.601C61.4807 137.601 60.7111 138.514 60.7111 140.041ZM70.6343 143.602C68.5603 143.602 67.2429 142.206 67.2429 140.015C67.2429 137.914 68.5864 136.493 70.53 136.493C72.4605 136.493 73.8171 137.797 73.8171 139.662C73.8171 140.197 73.8171 140.315 73.791 140.432H68.469C68.5473 141.749 69.3691 142.558 70.6474 142.558C71.5474 142.558 72.1735 142.167 72.4866 141.449H73.6997C73.3475 142.793 72.2127 143.602 70.6343 143.602ZM68.469 139.467H72.5779C72.5257 138.267 71.7431 137.523 70.53 137.523C69.3691 137.523 68.5995 138.241 68.469 139.467ZM75.0224 143.406V136.688H76.1964V143.406H75.0224ZM74.8398 134.927C74.8398 134.523 75.179 134.158 75.6225 134.158C76.0399 134.158 76.379 134.523 76.379 134.927C76.379 135.358 76.0399 135.71 75.6225 135.71C75.179 135.71 74.8398 135.358 74.8398 134.927ZM77.7866 143.406V136.688H78.9345V137.549C79.3128 136.897 80.1085 136.493 81.0085 136.493C82.4825 136.493 83.5521 137.275 83.5521 139.297V143.406H82.3781V139.467C82.3781 138.214 81.7651 137.601 80.7476 137.601C79.5998 137.601 78.9606 138.384 78.9606 139.506V143.406H77.7866ZM88.1113 143.602C86.0373 143.602 84.7199 142.206 84.7199 140.015C84.7199 137.914 86.0634 136.493 88.007 136.493C89.9375 136.493 91.2941 137.797 91.2941 139.662C91.2941 140.197 91.2941 140.315 91.268 140.432H85.946C86.0243 141.749 86.846 142.558 88.1244 142.558C89.0244 142.558 89.6505 142.167 89.9636 141.449H91.1767C90.8245 142.793 89.6896 143.602 88.1113 143.602ZM85.946 139.467H90.0549C90.0027 138.267 89.2201 137.523 88.007 137.523C86.846 137.523 86.0764 138.241 85.946 139.467ZM92.4994 143.406V136.688H93.6473V137.549C94.0125 136.884 94.7821 136.493 95.7343 136.493C96.7257 136.493 97.4692 136.91 97.8344 137.667C98.3171 136.897 99.0997 136.493 100.117 136.493C101.722 136.493 102.596 137.484 102.596 139.297V143.406H101.422V139.454C101.422 138.254 100.874 137.601 99.8563 137.601C98.7997 137.601 98.1344 138.332 98.1344 139.493V143.406H96.9605V139.454C96.9605 138.254 96.4126 137.601 95.4082 137.601C94.3386 137.601 93.6734 138.332 93.6734 139.493V143.406H92.4994ZM108.892 143.406L106.126 134.21H107.457L109.074 139.936C109.231 140.484 109.387 141.058 109.544 141.645C109.726 141.058 109.896 140.484 110.066 139.923L111.787 134.21H113.079L114.801 139.923L115.309 141.645C115.466 141.058 115.635 140.484 115.792 139.936L117.396 134.21H118.74L115.961 143.406H114.67L113 137.888C112.818 137.249 112.622 136.61 112.427 135.971C112.244 136.61 112.048 137.249 111.853 137.888L110.196 143.406H108.892ZM119.658 143.406V136.688H120.831V143.406H119.658ZM119.475 134.927C119.475 134.523 119.814 134.158 120.258 134.158C120.675 134.158 121.014 134.523 121.014 134.927C121.014 135.358 120.675 135.71 120.258 135.71C119.814 135.71 119.475 135.358 119.475 134.927ZM122.422 143.406V134.21H123.596V143.406H122.422ZM125.186 143.406V134.21H126.36V143.406H125.186ZM130.95 143.602C128.876 143.602 127.559 142.206 127.559 140.015C127.559 137.914 128.902 136.493 130.846 136.493C132.776 136.493 134.133 137.797 134.133 139.662C134.133 140.197 134.133 140.315 134.107 140.432H128.785C128.863 141.749 129.685 142.558 130.963 142.558C131.863 142.558 132.49 142.167 132.803 141.449H134.016C133.663 142.793 132.529 143.602 130.95 143.602ZM128.785 139.467H132.894C132.842 138.267 132.059 137.523 130.846 137.523C129.685 137.523 128.915 138.241 128.785 139.467ZM135.338 143.406V136.688H136.486V137.549C136.865 136.897 137.66 136.493 138.56 136.493C140.034 136.493 141.104 137.275 141.104 139.297V143.406H139.93V139.467C139.93 138.214 139.317 137.601 138.299 137.601C137.152 137.601 136.512 138.384 136.512 139.506V143.406H135.338ZM14.8175 159.602C13.4609 159.602 12.4696 158.871 12.4696 157.606C12.4696 156.341 13.3696 155.767 14.4262 155.571L16.0697 155.258C16.6306 155.154 16.9567 155.01 16.9567 154.501C16.9567 153.914 16.4611 153.523 15.4697 153.523C14.661 153.523 13.9566 153.849 13.8653 154.593H12.6522C12.7305 153.275 13.9305 152.493 15.4828 152.493C17.3611 152.493 18.1307 153.432 18.1307 154.541V157.984C18.1307 158.297 18.2742 158.454 18.5351 158.454C18.7568 158.454 18.8873 158.402 19.0047 158.323V159.276C18.822 159.432 18.509 159.536 18.1307 159.536C17.5829 159.536 17.1133 159.184 16.9959 158.61C16.6828 159.054 16.0306 159.602 14.8175 159.602ZM13.6827 157.567C13.6827 158.245 14.2566 158.571 15.0262 158.571C16.1089 158.571 16.9567 157.958 16.9567 157.006V155.923C16.8263 156.067 16.4219 156.184 15.9393 156.275L14.8436 156.484C14.061 156.628 13.6827 156.967 13.6827 157.567ZM19.8782 159.406V152.688H21.0261V153.549C21.4044 152.897 22.2 152.493 23.1001 152.493C24.5741 152.493 25.6437 153.275 25.6437 155.297V159.406H24.4697V155.467C24.4697 154.214 23.8566 153.601 22.8392 153.601C21.6913 153.601 21.0522 154.384 21.0522 155.506V159.406H19.8782ZM27.1645 161.558V152.688H28.3124V153.654C28.7559 152.884 29.7212 152.493 30.5168 152.493C32.5126 152.493 33.7126 153.941 33.7126 156.041C33.7126 158.154 32.4474 159.602 30.569 159.602C29.6951 159.602 28.8211 159.223 28.3385 158.48V161.558H27.1645ZM28.2733 156.041C28.2733 157.58 29.1733 158.493 30.3994 158.493C31.7299 158.493 32.4995 157.58 32.4995 156.041C32.4995 154.514 31.7299 153.601 30.3994 153.601C29.1733 153.601 28.2733 154.514 28.2733 156.041ZM36.944 159.602C35.5874 159.602 34.5961 158.871 34.5961 157.606C34.5961 156.341 35.4961 155.767 36.5527 155.571L38.1962 155.258C38.7571 155.154 39.0832 155.01 39.0832 154.501C39.0832 153.914 38.5875 153.523 37.5962 153.523C36.7875 153.523 36.0831 153.849 35.9918 154.593H34.7787C34.8569 153.275 36.057 152.493 37.6092 152.493C39.4876 152.493 40.2572 153.432 40.2572 154.541V157.984C40.2572 158.297 40.4007 158.454 40.6615 158.454C40.8833 158.454 41.0137 158.402 41.1311 158.323V159.276C40.9485 159.432 40.6355 159.536 40.2572 159.536C39.7093 159.536 39.2397 159.184 39.1223 158.61C38.8093 159.054 38.1571 159.602 36.944 159.602ZM35.8092 157.567C35.8092 158.245 36.3831 158.571 37.1527 158.571C38.2354 158.571 39.0832 157.958 39.0832 157.006V155.923C38.9528 156.067 38.5484 156.184 38.0658 156.275L36.9701 156.484C36.1874 156.628 35.8092 156.967 35.8092 157.567ZM44.5079 159.602C42.8774 159.602 41.7687 158.754 41.6643 157.449H42.8774C42.9426 158.141 43.5948 158.584 44.5079 158.584C45.3688 158.584 45.9167 158.18 45.9167 157.515C45.9167 157.006 45.6297 156.732 44.9645 156.602L43.634 156.354C42.473 156.132 41.8991 155.493 41.8991 154.501C41.8991 153.275 42.9296 152.493 44.4166 152.493C46.021 152.493 46.9732 153.249 47.1037 154.593H45.8906C45.7732 153.875 45.2645 153.497 44.4166 153.497C43.5948 153.497 43.1122 153.849 43.1122 154.449C43.1122 154.919 43.4122 155.18 44.0775 155.31L45.3949 155.571C46.5167 155.78 47.1298 156.432 47.1298 157.462C47.1298 158.728 46.0602 159.602 44.5079 159.602ZM50.9917 159.602C49.3612 159.602 48.2525 158.754 48.1481 157.449H49.3612C49.4264 158.141 50.0786 158.584 50.9917 158.584C51.8526 158.584 52.4005 158.18 52.4005 157.515C52.4005 157.006 52.1135 156.732 51.4483 156.602L50.1178 156.354C48.9568 156.132 48.3829 155.493 48.3829 154.501C48.3829 153.275 49.4134 152.493 50.9004 152.493C52.5048 152.493 53.457 153.249 53.5875 154.593H52.3744C52.257 153.875 51.7483 153.497 50.9004 153.497C50.0786 153.497 49.596 153.849 49.596 154.449C49.596 154.919 49.896 155.18 50.5613 155.31L51.8787 155.571C53.0005 155.78 53.6136 156.432 53.6136 157.462C53.6136 158.728 52.544 159.602 50.9917 159.602ZM56.9823 159.536C56.1214 159.536 55.4561 159.041 55.4561 157.958V153.758H54.2691V152.767H54.6474C55.3779 152.767 55.5475 152.545 55.5475 151.788V151.097H56.6432V152.688H58.1563V153.758H56.6432V157.606C56.6432 158.18 56.878 158.402 57.3475 158.402C57.6215 158.402 57.8693 158.349 58.1563 158.219V159.302C57.8171 159.471 57.5302 159.536 56.9823 159.536ZM60.5694 159.549C60.0477 159.549 59.6433 159.158 59.6433 158.623C59.6433 158.128 60.0607 157.736 60.5694 157.736C61.0651 157.736 61.4695 158.141 61.4695 158.623C61.4695 159.158 61.0651 159.549 60.5694 159.549Z" fill="#F0EFFF"/>
<defs>
<linearGradient id="paint0_linear_50488_3689" x1="-10.6793" y1="122.291" x2="-0.604849" y2="36.4307" gradientUnits="userSpaceOnUse">
<stop offset="0.22" stop-color="#F0EFFF"/>
<stop offset="1" stop-color="#7132F5"/>
</linearGradient>
</defs>
</svg>
