<svg width="160" height="601" viewBox="0 0 160 601" fill="none" xmlns="http://www.w3.org/2000/svg">
<g filter="url(#filter0_d_50483_12752)">
<path d="M98.4523 38.0999V23.7024H100.878V25.5475C101.678 24.1497 103.36 23.283 105.262 23.283C108.378 23.283 110.638 24.9604 110.638 29.2936V38.0999H108.157V29.6571C108.157 26.9733 106.861 25.6593 104.711 25.6593C102.285 25.6593 100.934 27.3367 100.934 29.741V38.0999H98.4523Z" fill="#F0EFFF"/>
<path d="M98.4523 38.0999V23.7024H100.878V25.5475C101.678 24.1497 103.36 23.283 105.262 23.283C108.378 23.283 110.638 24.9604 110.638 29.2936V38.0999H108.157V29.6571C108.157 26.9733 106.861 25.6593 104.711 25.6593C102.285 25.6593 100.934 27.3367 100.934 29.741V38.0999H98.4523Z" fill="url(#paint0_linear_50483_12752)"/>
<path d="M89.7435 38.5193C85.6907 38.5193 82.5753 35.8634 82.5753 30.8313C82.5753 26.1346 85.5805 23.283 89.523 23.283C94.0169 23.283 96.4706 26.4701 96.4706 30.0764C96.4706 30.6635 96.443 31.2786 96.3603 31.7259H85.1669C85.3323 34.5215 87.1519 36.2548 89.7711 36.2548C91.8389 36.2548 92.9141 35.5838 93.6309 33.9065H96.2225C95.4505 36.8139 93.0519 38.5193 89.7435 38.5193ZM85.1669 29.6291H93.8515C93.7412 26.9453 91.9491 25.4916 89.523 25.4916C86.959 25.4916 85.3875 27.0571 85.1669 29.6291Z" fill="#F0EFFF"/>
<path d="M89.7435 38.5193C85.6907 38.5193 82.5753 35.8634 82.5753 30.8313C82.5753 26.1346 85.5805 23.283 89.523 23.283C94.0169 23.283 96.4706 26.4701 96.4706 30.0764C96.4706 30.6635 96.443 31.2786 96.3603 31.7259H85.1669C85.3323 34.5215 87.1519 36.2548 89.7711 36.2548C91.8389 36.2548 92.9141 35.5838 93.6309 33.9065H96.2225C95.4505 36.8139 93.0519 38.5193 89.7435 38.5193ZM85.1669 29.6291H93.8515C93.7412 26.9453 91.9491 25.4916 89.523 25.4916C86.959 25.4916 85.3875 27.0571 85.1669 29.6291Z" fill="url(#paint1_linear_50483_12752)"/>
<path d="M70.4692 23.7024V38.1H72.9505V33.4313L75.3215 31.1389L80.2565 38.1H83.1514L77.0033 29.4056L82.8205 23.7025H79.6224L72.9505 30.3002V23.7024H70.4692Z" fill="#F0EFFF"/>
<path d="M70.4692 23.7024V38.1H72.9505V33.4313L75.3215 31.1389L80.2565 38.1H83.1514L77.0033 29.4056L82.8205 23.7025H79.6224L72.9505 30.3002V23.7024H70.4692Z" fill="url(#paint2_linear_50483_12752)"/>
<path d="M60.3078 38.5193C57.5232 38.5193 55.3727 36.9537 55.3727 34.2699C55.3727 31.5022 57.2751 30.3001 59.5082 29.8807L63.0372 29.2098C64.1676 28.9861 64.8568 28.6227 64.8568 27.5044C64.8568 26.3023 63.8367 25.4916 61.8241 25.4916C60.0045 25.4916 58.5157 26.2464 58.3779 28.0077H55.7587C55.8139 25.0443 58.4606 23.283 61.8517 23.283C65.7666 23.283 67.3381 25.2959 67.3381 27.5883V35.0806C67.3381 35.7236 67.6414 36.0591 68.1928 36.0591C68.6615 36.0591 68.9372 35.9473 69.1853 35.7795V37.8204C68.7993 38.1558 68.1377 38.3795 67.3381 38.3795C66.1526 38.3795 65.1877 37.7365 64.9395 36.5064C64.3054 37.401 62.9821 38.5193 60.3078 38.5193ZM57.9367 34.186C57.9367 35.5838 59.1774 36.3107 60.7765 36.3107C63.1199 36.3107 64.8568 34.9688 64.8568 32.9559V30.6356C64.5811 30.971 63.6713 31.2226 62.7339 31.3904L60.3905 31.8377C58.7087 32.1732 57.9367 32.9 57.9367 34.186Z" fill="#F0EFFF"/>
<path d="M60.3078 38.5193C57.5232 38.5193 55.3727 36.9537 55.3727 34.2699C55.3727 31.5022 57.2751 30.3001 59.5082 29.8807L63.0372 29.2098C64.1676 28.9861 64.8568 28.6227 64.8568 27.5044C64.8568 26.3023 63.8367 25.4916 61.8241 25.4916C60.0045 25.4916 58.5157 26.2464 58.3779 28.0077H55.7587C55.8139 25.0443 58.4606 23.283 61.8517 23.283C65.7666 23.283 67.3381 25.2959 67.3381 27.5883V35.0806C67.3381 35.7236 67.6414 36.0591 68.1928 36.0591C68.6615 36.0591 68.9372 35.9473 69.1853 35.7795V37.8204C68.7993 38.1558 68.1377 38.3795 67.3381 38.3795C66.1526 38.3795 65.1877 37.7365 64.9395 36.5064C64.3054 37.401 62.9821 38.5193 60.3078 38.5193ZM57.9367 34.186C57.9367 35.5838 59.1774 36.3107 60.7765 36.3107C63.1199 36.3107 64.8568 34.9688 64.8568 32.9559V30.6356C64.5811 30.971 63.6713 31.2226 62.7339 31.3904L60.3905 31.8377C58.7087 32.1732 57.9367 32.9 57.9367 34.186Z" fill="url(#paint3_linear_50483_12752)"/>
<path d="M47.7562 38.0998V23.7022H50.1824V26.1065C50.8716 24.4011 52.1123 23.3947 54.0698 23.3947C54.4833 23.3947 54.8969 23.4786 55.1174 23.5345V26.1065C54.8969 26.0506 54.4282 25.9667 53.9595 25.9667C51.5333 25.9667 50.2375 27.8957 50.2375 30.9709V38.0998H47.7562Z" fill="#F0EFFF"/>
<path d="M47.7562 38.0998V23.7022H50.1824V26.1065C50.8716 24.4011 52.1123 23.3947 54.0698 23.3947C54.4833 23.3947 54.8969 23.4786 55.1174 23.5345V26.1065C54.8969 26.0506 54.4282 25.9667 53.9595 25.9667C51.5333 25.9667 50.2375 27.8957 50.2375 30.9709V38.0998H47.7562Z" fill="url(#paint4_linear_50483_12752)"/>
<path d="M33.9833 23.7024V38.0998H36.4646V33.4311L38.8356 31.1387L43.7706 38.0998H46.6655L40.5174 29.4054L46.3346 23.7023H43.1365L36.4646 30.3V23.7024H33.9833Z" fill="#F0EFFF"/>
<path d="M33.9833 23.7024V38.0998H36.4646V33.4311L38.8356 31.1387L43.7706 38.0998H46.6655L40.5174 29.4054L46.3346 23.7023H43.1365L36.4646 30.3V23.7024H33.9833Z" fill="url(#paint5_linear_50483_12752)"/>
<path d="M21.2976 23.283C16.0109 23.283 11.7256 27.6246 11.7256 32.98V37.1356C11.7256 37.9 12.3371 38.5193 13.0921 38.5193C13.847 38.5193 14.463 37.9 14.463 37.1356V32.98C14.463 32.2134 15.0723 31.5941 15.8295 31.5941C16.5844 31.5941 17.196 32.2134 17.196 32.98V37.1356C17.196 37.9 17.8075 38.5193 18.5624 38.5193C19.3196 38.5193 19.9311 37.9 19.9311 37.1356V32.98C19.9311 32.2134 20.5427 31.5941 21.2976 31.5941C22.0548 31.5941 22.6686 32.2134 22.6686 32.98V37.1356C22.6686 37.9 23.2801 38.5193 24.0351 38.5193C24.79 38.5193 25.4015 37.9 25.4015 37.1356V32.98C25.4015 32.2134 26.0131 31.5941 26.7725 31.5941C27.5274 31.5941 28.139 32.2134 28.139 32.98V37.1356C28.139 37.9 28.7505 38.5193 29.5077 38.5193C30.2626 38.5193 30.8741 37.9 30.8741 37.1356V32.98C30.8741 27.6246 26.5865 23.283 21.2976 23.283Z" fill="#F0EFFF"/>
<path d="M21.2976 23.283C16.0109 23.283 11.7256 27.6246 11.7256 32.98V37.1356C11.7256 37.9 12.3371 38.5193 13.0921 38.5193C13.847 38.5193 14.463 37.9 14.463 37.1356V32.98C14.463 32.2134 15.0723 31.5941 15.8295 31.5941C16.5844 31.5941 17.196 32.2134 17.196 32.98V37.1356C17.196 37.9 17.8075 38.5193 18.5624 38.5193C19.3196 38.5193 19.9311 37.9 19.9311 37.1356V32.98C19.9311 32.2134 20.5427 31.5941 21.2976 31.5941C22.0548 31.5941 22.6686 32.2134 22.6686 32.98V37.1356C22.6686 37.9 23.2801 38.5193 24.0351 38.5193C24.79 38.5193 25.4015 37.9 25.4015 37.1356V32.98C25.4015 32.2134 26.0131 31.5941 26.7725 31.5941C27.5274 31.5941 28.139 32.2134 28.139 32.98V37.1356C28.139 37.9 28.7505 38.5193 29.5077 38.5193C30.2626 38.5193 30.8741 37.9 30.8741 37.1356V32.98C30.8741 27.6246 26.5865 23.283 21.2976 23.283Z" fill="url(#paint6_linear_50483_12752)"/>
<path d="M123.369 29.1823C123.369 30.3086 122.562 30.7309 121.666 30.7309H119.964V27.6465H121.666C122.562 27.6465 123.369 28.0561 123.369 29.1823Z" fill="#F0EFFF"/>
<path d="M123.369 29.1823C123.369 30.3086 122.562 30.7309 121.666 30.7309H119.964V27.6465H121.666C122.562 27.6465 123.369 28.0561 123.369 29.1823Z" fill="url(#paint7_linear_50483_12752)"/>
<path d="M131.355 29.0927C131.355 30.027 130.741 30.5902 129.73 30.5902H127.951V27.6465H129.73C130.741 27.6465 131.355 28.1457 131.355 29.0927Z" fill="#F0EFFF"/>
<path d="M131.355 29.0927C131.355 30.027 130.741 30.5902 129.73 30.5902H127.951V27.6465H129.73C130.741 27.6465 131.355 28.1457 131.355 29.0927Z" fill="url(#paint8_linear_50483_12752)"/>
<path d="M142.105 30.8717C142.105 33.201 140.735 34.3145 139.123 34.3145C137.497 34.3145 136.141 33.2138 136.141 30.8845V30.8717C136.141 28.5296 137.497 27.4162 139.123 27.4162C140.735 27.4162 142.105 28.5296 142.105 30.8589V30.8717Z" fill="#F0EFFF"/>
<path d="M142.105 30.8717C142.105 33.201 140.735 34.3145 139.123 34.3145C137.497 34.3145 136.141 33.2138 136.141 30.8845V30.8717C136.141 28.5296 137.497 27.4162 139.123 27.4162C140.735 27.4162 142.105 28.5296 142.105 30.8589V30.8717Z" fill="url(#paint9_linear_50483_12752)"/>
<path fill-rule="evenodd" clip-rule="evenodd" d="M117.025 23.283C115.633 23.283 114.504 24.412 114.504 25.8046V35.9977C114.504 37.3903 115.633 38.5192 117.025 38.5192H144.359C145.752 38.5192 146.881 37.3903 146.881 35.9977V25.8046C146.881 24.412 145.752 23.283 144.359 23.283H117.025ZM118.428 26.3539V35.3768H119.964V32.0108H121.794C123.42 32.0108 124.956 31.0765 124.956 29.1695C124.956 27.2754 123.42 26.3539 121.794 26.3539H118.428ZM126.415 26.3539V35.3768H127.951V31.7804H129.499C130.434 31.7804 130.869 32.0876 131.086 32.9835L131.432 34.4041C131.547 34.8776 131.65 35.2232 131.701 35.3768H133.352C133.237 35.1208 133.121 34.6985 133.032 34.3657L132.597 32.6507C132.417 31.9468 132.059 31.3837 131.022 31.2173V31.0893C132.341 30.7693 132.942 29.8479 132.942 28.824C132.942 27.237 131.765 26.3539 129.883 26.3539H126.415ZM134.554 30.8717C134.554 33.585 136.473 35.5688 139.123 35.5688C141.759 35.5688 143.692 33.5978 143.692 30.8845V30.8717C143.692 28.1457 141.759 26.1619 139.123 26.1619C136.473 26.1619 134.554 28.1329 134.554 30.8589V30.8717Z" fill="#F0EFFF"/>
<path fill-rule="evenodd" clip-rule="evenodd" d="M117.025 23.283C115.633 23.283 114.504 24.412 114.504 25.8046V35.9977C114.504 37.3903 115.633 38.5192 117.025 38.5192H144.359C145.752 38.5192 146.881 37.3903 146.881 35.9977V25.8046C146.881 24.412 145.752 23.283 144.359 23.283H117.025ZM118.428 26.3539V35.3768H119.964V32.0108H121.794C123.42 32.0108 124.956 31.0765 124.956 29.1695C124.956 27.2754 123.42 26.3539 121.794 26.3539H118.428ZM126.415 26.3539V35.3768H127.951V31.7804H129.499C130.434 31.7804 130.869 32.0876 131.086 32.9835L131.432 34.4041C131.547 34.8776 131.65 35.2232 131.701 35.3768H133.352C133.237 35.1208 133.121 34.6985 133.032 34.3657L132.597 32.6507C132.417 31.9468 132.059 31.3837 131.022 31.2173V31.0893C132.341 30.7693 132.942 29.8479 132.942 28.824C132.942 27.237 131.765 26.3539 129.883 26.3539H126.415ZM134.554 30.8717C134.554 33.585 136.473 35.5688 139.123 35.5688C141.759 35.5688 143.692 33.5978 143.692 30.8845V30.8717C143.692 28.1457 141.759 26.1619 139.123 26.1619C136.473 26.1619 134.554 28.1329 134.554 30.8589V30.8717Z" fill="url(#paint10_linear_50483_12752)"/>
</g>
<defs>
<filter id="filter0_d_50483_12752" x="5.40599" y="16.9634" width="148.03" height="27.8754" filterUnits="userSpaceOnUse" color-interpolation-filters="sRGB">
<feFlood flood-opacity="0" result="BackgroundImageFix"/>
<feColorMatrix in="SourceAlpha" type="matrix" values="0 0 0 0 0 0 0 0 0 0 0 0 0 0 0 0 0 0 127 0" result="hardAlpha"/>
<feOffset/>
<feGaussianBlur stdDeviation="3.1598"/>
<feComposite in2="hardAlpha" operator="out"/>
<feColorMatrix type="matrix" values="0 0 0 0 0.458824 0 0 0 0 0.219608 0 0 0 0 0.960784 0 0 0 0.3 0"/>
<feBlend mode="normal" in2="BackgroundImageFix" result="effect1_dropShadow_50483_12752"/>
<feBlend mode="normal" in="SourceGraphic" in2="effect1_dropShadow_50483_12752" result="shape"/>
</filter>
<linearGradient id="paint0_linear_50483_12752" x1="11.7256" y1="38.5193" x2="13.313" y2="14.4676" gradientUnits="userSpaceOnUse">
<stop offset="0.22" stop-color="#F0EFFF"/>
<stop offset="1" stop-color="#7132F5"/>
</linearGradient>
<linearGradient id="paint1_linear_50483_12752" x1="11.7256" y1="38.5193" x2="13.313" y2="14.4676" gradientUnits="userSpaceOnUse">
<stop offset="0.22" stop-color="#F0EFFF"/>
<stop offset="1" stop-color="#7132F5"/>
</linearGradient>
<linearGradient id="paint2_linear_50483_12752" x1="11.7256" y1="38.5193" x2="13.313" y2="14.4676" gradientUnits="userSpaceOnUse">
<stop offset="0.22" stop-color="#F0EFFF"/>
<stop offset="1" stop-color="#7132F5"/>
</linearGradient>
<linearGradient id="paint3_linear_50483_12752" x1="11.7256" y1="38.5193" x2="13.313" y2="14.4676" gradientUnits="userSpaceOnUse">
<stop offset="0.22" stop-color="#F0EFFF"/>
<stop offset="1" stop-color="#7132F5"/>
</linearGradient>
<linearGradient id="paint4_linear_50483_12752" x1="11.7256" y1="38.5193" x2="13.313" y2="14.4676" gradientUnits="userSpaceOnUse">
<stop offset="0.22" stop-color="#F0EFFF"/>
<stop offset="1" stop-color="#7132F5"/>
</linearGradient>
<linearGradient id="paint5_linear_50483_12752" x1="11.7256" y1="38.5193" x2="13.313" y2="14.4676" gradientUnits="userSpaceOnUse">
<stop offset="0.22" stop-color="#F0EFFF"/>
<stop offset="1" stop-color="#7132F5"/>
</linearGradient>
<linearGradient id="paint6_linear_50483_12752" x1="11.7256" y1="38.5193" x2="13.313" y2="14.4676" gradientUnits="userSpaceOnUse">
<stop offset="0.22" stop-color="#F0EFFF"/>
<stop offset="1" stop-color="#7132F5"/>
</linearGradient>
<linearGradient id="paint7_linear_50483_12752" x1="11.7256" y1="38.5193" x2="13.313" y2="14.4676" gradientUnits="userSpaceOnUse">
<stop offset="0.22" stop-color="#F0EFFF"/>
<stop offset="1" stop-color="#7132F5"/>
</linearGradient>
<linearGradient id="paint8_linear_50483_12752" x1="11.7256" y1="38.5193" x2="13.313" y2="14.4676" gradientUnits="userSpaceOnUse">
<stop offset="0.22" stop-color="#F0EFFF"/>
<stop offset="1" stop-color="#7132F5"/>
</linearGradient>
<linearGradient id="paint9_linear_50483_12752" x1="11.7256" y1="38.5193" x2="13.313" y2="14.4676" gradientUnits="userSpaceOnUse">
<stop offset="0.22" stop-color="#F0EFFF"/>
<stop offset="1" stop-color="#7132F5"/>
</linearGradient>
<linearGradient id="paint10_linear_50483_12752" x1="11.7256" y1="38.5193" x2="13.313" y2="14.4676" gradientUnits="userSpaceOnUse">
<stop offset="0.22" stop-color="#F0EFFF"/>
<stop offset="1" stop-color="#7132F5"/>
</linearGradient>
</defs>
</svg>
